<svg width="36" height="27" viewBox="0 0 36 27" fill="none" xmlns="http://www.w3.org/2000/svg">
<path d="M33.7188 9.43945H15.6387V19.4914H33.7188V9.43945Z" fill="#FCBE32"/>
<path d="M16.8157 17.8691H3.11328V26.8355H16.8157V17.8691Z" fill="#FCBE32"/>
<path d="M7.62136 17.8691H0V26.8355H7.62136V17.8691Z" fill="#FFD580"/>
<path d="M24.183 9.43945H15.6387V19.4914H24.183V9.43945Z" fill="#FFD580"/>
<path d="M13.7032 10.9395H3.11328V17.8692H13.7032V10.9395Z" fill="#FCBE32"/>
<path d="M35.9993 19.4922H13.252V22.732H35.9993V19.4922Z" fill="#FF0000"/>
<path d="M33.7182 22.7324H15.1094V24.9982H33.7182V22.7324Z" fill="#FF0000"/>
<path d="M30.2901 0H15.6387V6.88753H30.2901V0Z" fill="#FFE6E6"/>
<path d="M28.3301 5.99593H17.5905C17.1209 5.99593 16.7402 5.61527 16.7402 5.14564V1.74092C16.7402 1.27129 17.1209 0.890625 17.5905 0.890625H28.3301C28.7997 0.890625 29.1804 1.27129 29.1804 1.74092V5.14564C29.1804 5.61527 28.7997 5.99593 28.3301 5.99593Z" fill="#FF0000"/>
<path d="M19.8379 6.88672H17.2852V9.43951H19.8379V6.88672Z" fill="#FFE6E6"/>
<path d="M17.7229 24.998H16.4844V26.8559H17.7229V24.998Z" fill="#FF0000"/>
<path d="M33.2503 24.998H32.0117V26.8559H33.2503V24.998Z" fill="#FF0000"/>
<path d="M9.4396 10.9395H7.37305V12.5805H9.4396V10.9395Z" fill="#FFE9C5"/>
<path d="M4.41421 17.8691H2.34766V19.5101H4.41421V17.8691Z" fill="#FFE9C5"/>
<path d="M13.7032 17.0371H3.11328V17.87H13.7032V17.0371Z" fill="#FFD580"/>
<path d="M33.7188 18.5586H15.6387V19.4924H33.7188V18.5586Z" fill="#FFD580"/>
<path d="M20.3986 9.43945H18.5625V11.2756H20.3986V9.43945Z" fill="#FFE9C5"/>
<path d="M33.7182 22.7324H15.1094V23.5498H33.7182V22.7324Z" fill="#E80000"/>
<path d="M19.8379 6.88672H17.2852V7.39607H19.8379V6.88672Z" fill="#FF0000"/>
<g clip-path="url(#clip0_1300_7916)">
<path d="M28.2491 4.04331H27.1816V3.6875H28.2491V4.04331ZM28.9607 5.46655H27.8933V5.11074H28.9607V5.46655ZM28.6049 4.75493H27.5375V4.39912H28.6049V4.75493Z" fill="white"/>
<path d="M26.6474 4.04214C26.646 3.89204 26.6059 3.74483 26.531 3.61477C26.4561 3.48471 26.3488 3.37619 26.2197 3.29974L27.5363 1.01775L27.2286 0.839844L25.8806 3.17503C25.7151 3.13809 25.5431 3.1432 25.3801 3.18992C25.2172 3.23663 25.0686 3.32344 24.9478 3.44242C24.2817 4.08483 24.3333 5.58671 24.3358 5.6504C24.3377 5.69634 24.3572 5.73978 24.3904 5.77162C24.4236 5.80346 24.4678 5.82122 24.5137 5.82119H27.1807C27.2181 5.82119 27.2544 5.80944 27.2847 5.78761C27.315 5.76577 27.3377 5.73496 27.3495 5.69954C27.3613 5.66412 27.3617 5.62588 27.3505 5.59024C27.3394 5.5546 27.3173 5.52336 27.2875 5.50096C26.6577 5.02844 26.6474 4.05174 26.6474 4.04214ZM25.7448 3.50789C25.8872 3.50945 26.0235 3.56586 26.1254 3.66536C26.2273 3.76487 26.2868 3.89982 26.2917 4.04214C26.2917 4.0489 26.2921 4.07914 26.2947 4.12557L25.2451 3.65875C25.3142 3.60174 25.394 3.55904 25.4798 3.53314C25.5656 3.50724 25.6557 3.49866 25.7448 3.50789ZM26.3711 5.46538C26.2289 5.32058 26.1382 5.13305 26.1131 4.93166H25.7573C25.77 5.121 25.8292 5.3043 25.9295 5.46538H25.534C25.4608 5.2345 25.4163 4.9955 25.4015 4.75376H25.0457C25.0571 4.99478 25.0968 5.23363 25.164 5.46538H24.6899C24.6954 5.13874 24.7415 4.41716 25.0106 3.94375L26.3508 4.53974C26.415 4.87412 26.5523 5.19019 26.7529 5.46538H26.3711Z" fill="white"/>
</g>
<g clip-path="url(#clip1_1300_7916)">
<path d="M21.6774 3.75751H20.5876V3.75468C20.5872 3.64044 20.5417 3.53097 20.4609 3.45019C20.3801 3.36941 20.2707 3.32387 20.1564 3.32353H20.1488L20.9895 1.05813L20.612 0.917969L19.7194 3.32353H19.7109C19.5966 3.32387 19.4872 3.36941 19.4064 3.45019C19.3256 3.53097 19.2801 3.64044 19.2797 3.75468V3.75751H18.1899V4.19346H21.6774V3.75751ZM21.6774 4.41187H18.1899L17.7539 5.27984H22.1134L21.6774 4.41187Z" fill="white"/>
</g>
<defs>
<clipPath id="clip0_1300_7916">
<rect width="5.69296" height="5.69296" fill="white" transform="translate(23.623 0.484375)"/>
</clipPath>
<clipPath id="clip1_1300_7916">
<rect width="5.23137" height="5.23137" fill="white" transform="translate(17.3164 0.484375)"/>
</clipPath>
</defs>
</svg>
