<svg width="271" height="197" viewBox="0 0 271 197" fill="none" xmlns="http://www.w3.org/2000/svg">
<path d="M207.492 26.8865C208.093 24.4682 207.465 22.2274 206.085 21.8722C204.705 21.5306 203.079 23.2112 202.478 25.6295C201.877 28.0478 202.505 30.3022 203.885 30.6438C205.265 30.999 206.877 29.3185 207.492 26.8865Z" fill="#E59673"/>
<path opacity="0.3" d="M206.7 26.8466C207.205 24.7971 206.673 22.898 205.511 22.611C204.336 22.3241 202.97 23.7451 202.464 25.7808C201.959 27.8303 202.492 29.7294 203.653 30.0163C204.828 30.3169 206.194 28.896 206.7 26.8466Z" fill="#673B00"/>
<path d="M182.462 26.068C181.697 23.6907 180.44 22.6796 179.087 23.1169C177.721 23.5541 176.778 25.2756 177.543 27.6393C178.308 30.0166 180.03 31.5879 181.383 31.1506C182.735 30.7271 183.213 28.4454 182.462 26.068Z" fill="#E59673"/>
<path opacity="0.3" d="M182.738 26.341C182.123 24.4282 181.112 23.6084 180.005 23.9636C178.912 24.3189 178.147 25.6989 178.762 27.6117C179.377 29.5245 180.77 30.7951 181.863 30.4399C182.97 30.0983 183.353 28.2538 182.738 26.341Z" fill="#673B00"/>
<path opacity="0.3" d="M270.998 193.315C232.045 188.875 25.8853 179.748 0.0078125 187.673C22.1007 195.051 252.061 201.103 270.998 193.315Z" fill="#431F00"/>
<path d="M203.652 188.82L203.666 188.574L199.69 186.743L200.127 175.786L196.37 174.419L196.807 166.194L194.375 165.743L194.689 152.162L189.388 147.722L185.303 148.255L184.77 152.162L182.379 151.998L181.983 147.476L176.231 145.509L175.889 138.158L172.309 136.792L168.73 137.475L168.525 144.279L163.661 144.73L163.224 135.589L157.922 131.941L158.141 119.604L148.577 116.98L136.485 128.744L134.805 186.005C158.592 186.757 182.434 187.754 203.652 188.82Z" fill="#B28869"/>
<path opacity="0.5" d="M149.384 187.412C131.076 184.994 33.1131 182.862 20.9531 187.166C31.3369 191.183 140.49 191.648 149.384 187.412Z" fill="#431F00"/>
<path d="M13.2188 153.064L47.6356 143.91L63.7715 160.593L58.9211 187.481H20.2005L13.2188 153.064Z" fill="#A8693F"/>
<g opacity="0.8">
<path d="M13.2188 153.064L20.2005 187.481L47.1437 185.855L47.1847 144.033L13.2188 153.064Z" fill="#F2E3A5"/>
<path opacity="0.2" d="M21.867 150.783L15.0355 164.105L12.6445 152.833L21.867 150.783Z" fill="#431F00"/>
<path opacity="0.3" d="M39.4648 146.001L46.8018 154.362L54.3164 147.886L47.6353 143.91L39.4648 146.001Z" fill="#431F00"/>
<path opacity="0.3" d="M39.6289 186.306L46.9795 174.174L53.6334 186.47L46.8019 187.509L39.6289 186.306Z" fill="#431F00"/>
</g>
<path d="M90.6328 84.7493L93.2561 34.6474L110.335 27.1328L138.685 38.0631L136.185 103.877L90.6328 84.7493Z" fill="#96744B"/>
<path opacity="0.3" d="M136.636 91.9633L138.685 38.0632L110.567 27.2148L108.859 87.0173L136.636 91.9633Z" fill="#431F00"/>
<path d="M58.1289 71.1138L72.6116 63.0254L84.4437 69.5699L86.0012 95.8847L61.0938 98.6173L58.1289 71.1138Z" fill="#96744B"/>
<path opacity="0.3" d="M59.9883 71.688L66.3279 82.632L62.5842 97.8388L67.4072 84.7498L72.5855 96.4588L68.0357 82.3588L69.7436 66.5371L67.1203 80.6236L59.9883 71.688Z" fill="#431F00"/>
<path opacity="0.3" d="M85.8406 93.2614L84.447 69.57L72.8199 63.1348L72.1914 93.6304L85.8406 93.2614Z" fill="#431F00"/>
<path d="M51.2434 188.355L143.126 187.672L150.983 86.7989L101.113 74.9531L47.1445 84.0663L51.2434 188.355Z" fill="url(#paint0_linear_1300_8560)"/>
<path d="M48.6719 85.0362L51.2405 188.355L97.3528 186.825L101.11 74.7207L48.6719 85.0362Z" fill="#F2E3A5"/>
<path d="M179.672 180.158L179.508 188.192H183.429L182.24 179.475L179.672 180.158Z" fill="#673B00"/>
<path d="M207.504 180.322L207.34 188.356L209.731 188.192L209.936 179.639L207.504 180.322Z" fill="#673B00"/>
<path d="M215.651 107.65C215.296 102.239 214.954 88.6035 212.031 75.815C211.73 71.115 211.798 63.3135 213.656 51.9323C190.511 40.3871 175.332 52.3148 175.332 52.3148L179.499 79.7363C177.641 95.8312 177.163 112.158 177.245 112.158L178.761 183.752L183.817 182.891L192.657 113.21C196.578 112.992 193.791 113.265 197.78 112.869L206.975 183.301H211.32L215.651 107.814C215.651 107.814 215.651 107.814 215.665 107.814C215.665 107.786 215.665 107.759 215.665 107.732L215.651 107.65Z" fill="url(#paint1_linear_1300_8560)"/>
<path d="M211.92 73.4787C211.783 68.683 212.07 61.6057 213.655 51.9187C212.193 51.1809 210.745 50.5524 209.351 49.9922L208.996 70.8008L211.92 73.4787Z" fill="#7EB7C4"/>
<path opacity="0.3" d="M208.806 183.3H211.307L215.638 107.812C215.638 107.812 215.638 107.812 215.652 107.812C215.652 107.785 215.652 107.758 215.652 107.73V107.648H215.638C215.296 102.238 214.955 88.6022 212.031 75.8138C211.498 72.0565 212.577 60.3337 212.577 60.3337C212.577 60.3337 211.32 60.0468 210.077 61.4131C209.804 69.966 209.681 84.8996 209.585 102.292C209.585 103.304 205.473 100.926 205.473 101.951C205.459 103.467 209.558 108.427 209.544 109.985C209.394 134.223 209.257 161.89 208.806 183.3Z" fill="#431F00"/>
<path d="M204.35 56.4253L206.399 48.9927C196.411 45.5633 189.143 46.6836 183.582 48.3642L185.468 56.8488L204.35 56.4253Z" fill="#7EB7C4"/>
<path d="M199.063 49.7577C199.063 48.0635 196.576 46.6836 193.516 46.6836C190.455 46.6836 187.969 48.0635 187.969 49.7577C188.57 51.288 190.961 52.8319 194.035 52.8319C197.109 52.8319 198.202 51.5612 199.063 49.7577Z" fill="#597B84"/>
<path opacity="0.3" d="M194.989 51.3297L213.653 51.9036C213.653 51.9036 200.29 43.4736 184.633 48.0233C190.945 46.6844 193.678 50.8105 194.989 51.3297Z" fill="#431F00"/>
<path d="M189.428 49.322C189.428 49.322 186.532 35.2219 192.134 34.1289C196.109 34.853 195.659 31.5056 197.831 49.5816C194.183 53.5166 189.428 49.322 189.428 49.322Z" fill="#FFB38A"/>
<path opacity="0.3" d="M189.007 46.6577L194.992 51.3304L196.809 50.6472L197.861 49.6772L196.918 42.9004L188.324 43.4196L189.007 46.6577Z" fill="#673B00"/>
<path d="M206.836 74.8172L210.839 70.691L208.366 70.0898L206.836 74.8172Z" fill="#2D464C"/>
<path d="M205.855 64.9241C205.855 64.9241 209.708 63.8447 209.654 69.0776C209.599 74.1875 207.604 72.9442 205.705 70.8675C203.806 68.7907 204.038 65.7302 205.855 64.9241Z" fill="#FFB38A"/>
<path d="M183.188 60.7023L207.972 59.4727L203.696 87.304L186.111 85.4868L183.188 60.7023Z" fill="#EAD67F"/>
<path opacity="0.3" d="M185.141 64.8148L185.824 85.4868L203.695 87.304L207.971 59.4727L206.837 61.4538L185.141 64.8148Z" fill="#673B00"/>
<path d="M204.089 27.8563C204.253 26.9956 204.349 26.1075 204.349 25.1784C204.622 11.8844 198.487 8.35938 192.421 8.35938C186.355 8.35938 181.3 16.2975 181.3 24.0853C181.3 25.479 181.136 25.2467 181.436 26.531C180.138 31.3403 178.089 45.5771 191.191 45.5771C200.851 44.5524 203.584 41.9291 204.089 27.8563Z" fill="#E59673"/>
<path d="M201.196 25.5082C201.21 15.9851 196.797 8.25197 191.331 8.23831C185.866 8.22464 180.62 13.8674 182.41 26.1094C179.786 44.5543 186.276 44.3083 191.741 44.322C202.945 41.8217 201.182 35.0312 201.196 25.5082Z" fill="#FFB38A"/>
<path d="M181.056 17.6242C179.608 18.6626 178.938 20.4661 179.321 22.215L180.646 28.1173L181.63 27.7894L182.668 16.4629L181.056 17.6242Z" fill="#673B00"/>
<path d="M204.008 17.6237C204.978 18.5254 205.498 19.8097 205.429 21.135L205.06 28.0211L204.036 27.8572L201.836 15.5879L204.008 17.6237Z" fill="#673B00"/>
<path d="M204.504 18.7032L207.113 5.84642L192.207 0.941406L180.211 5.65512L181.659 17.5828L192.863 15.6017L204.504 18.7032Z" fill="#7EB7C4"/>
<path opacity="0.3" d="M204.802 17.2276L207.125 5.83275L192.232 0.941406L191.754 13.3473C191.74 13.361 200.717 16.0799 204.802 17.2276Z" fill="#431F00"/>
<path d="M181.655 17.5825L178.144 15.0548C177.693 14.7269 177.447 14.1804 177.515 13.6202C177.584 13.06 177.952 12.5955 178.472 12.3769L184.77 9.86289C186.615 9.1251 188.664 9.07048 190.55 9.7263L204.581 14.5766C205.169 14.7816 205.647 15.2324 205.866 15.8199C206.084 16.4074 206.043 17.0633 205.729 17.6098L204.622 19.5636L193.76 16.7764C191.629 16.2298 189.388 16.1478 187.23 16.5441L181.655 17.5825Z" fill="#7EB7C4"/>
<path d="M181.655 18.1567L178.144 15.629C177.693 15.3011 177.447 14.7546 177.515 14.1944C177.584 13.6343 177.952 13.1697 178.472 12.9511L184.77 10.4371C186.615 9.69934 188.664 9.64468 190.55 10.3005L204.581 15.1509C205.169 15.3558 205.647 15.8067 205.866 16.3942C206.084 16.9817 206.043 17.6375 205.729 18.184L204.622 20.1378L193.76 17.3506C191.629 16.804 189.388 16.7221 187.23 17.1183L181.655 18.1567Z" fill="#597B84"/>
<path d="M183.323 187.672C178.992 186.756 177.858 186.305 164.141 192.973C164.25 195.104 183.433 189.803 183.323 187.672Z" fill="#423321"/>
<path d="M208.886 186.716C206.482 185.582 204.951 193.138 206.058 196.485C212.917 194.504 211.072 187.741 208.886 186.716Z" fill="#423321"/>
<path d="M188.61 27.5714C188.61 26.5604 188.31 26.2188 187.872 26.2188C187.435 26.2188 187.012 26.5604 187.012 27.5714C187.012 28.5825 187.367 29.3886 187.804 29.3886C188.255 29.4022 188.61 28.5825 188.61 27.5714Z" fill="#4C3F32"/>
<path d="M199.433 27.1202C199.433 26.1091 199.077 25.7129 198.64 25.7129C198.203 25.7129 197.848 26.1228 197.848 27.1202C197.848 28.1312 198.203 28.9374 198.64 28.9374C199.077 28.9374 199.433 28.1312 199.433 27.1202Z" fill="#4C3F32"/>
<path d="M192.916 27.0099C191.659 26.9826 191.959 31.1497 191.918 32.762C191.877 34.3742 194.432 34.7294 195.635 34.5245C198.818 33.2948 194.2 30.9995 192.916 27.0099Z" fill="#EA5D49"/>
<path d="M196.355 21.873C196.355 21.873 200.837 22.7748 201.547 22.5289C202.271 22.2693 202.326 24.5783 201.165 24.6603C200.003 24.7559 196.519 25.1112 196.355 21.873Z" fill="#673B00"/>
<path d="M189.566 21.6543C189.566 21.6543 185.317 23.1436 184.579 22.9933C183.841 22.843 184.101 25.1247 185.249 25.0564C186.396 24.9744 189.853 24.8787 189.566 21.6543Z" fill="#673B00"/>
<path opacity="0.3" d="M111.129 95.8984C111.129 95.8984 115.118 125.848 117.168 128.239L131.856 130.288C131.856 130.288 127.074 114.917 125.707 100.913C122.059 99.7787 111.129 95.8984 111.129 95.8984Z" fill="#431F00"/>
<path d="M110.907 94.082C110.907 94.082 110.333 121.749 114.774 126.531L127.986 128.472C127.986 128.472 124.228 106.843 125.827 100.463C122.179 99.3149 110.907 94.082 110.907 94.082Z" fill="#FFF8CB"/>
<path d="M180.565 49.4453C177.177 50.8389 175.332 52.3009 175.332 52.3009L179.445 79.3944L181.385 78.0281L180.565 49.4453Z" fill="#7EB7C4"/>
<path d="M98.6146 80.1855L72.7644 127.896L50.043 92.7144L72.4228 134.386L98.6146 82.9181V80.1855Z" fill="#EAD67F"/>
<path opacity="0.3" d="M192.887 40.3455L196.234 39.9492L194.649 41.821L192.887 40.3455Z" fill="#673B00"/>
<mask id="mask0_1300_8560" style="mask-type:luminance" maskUnits="userSpaceOnUse" x="175" y="46" width="41" height="138">
<path d="M215.651 107.65C215.296 102.239 214.954 88.6035 212.031 75.815C211.73 71.115 211.798 63.3135 213.656 51.9323C190.511 40.3871 175.332 52.3148 175.332 52.3148L179.499 79.7363C177.641 95.8312 177.163 112.158 177.245 112.158L178.761 183.752L183.817 182.891L192.657 113.21C196.578 112.992 193.791 113.265 197.78 112.869L206.975 183.301H211.32L215.651 107.814C215.651 107.814 215.651 107.814 215.665 107.814C215.665 107.786 215.665 107.759 215.665 107.732L215.651 107.65Z" fill="white"/>
</mask>
<g mask="url(#mask0_1300_8560)">
<path opacity="0.3" d="M187.531 183.233L181.383 184.941L187.531 110.137L196.07 114.919L187.531 183.233Z" fill="#431F00"/>
</g>
<path d="M192.285 80.5558C192.189 80.3372 190.508 80.8018 188.5 81.6216C186.505 82.4277 184.948 83.2611 185.043 83.4797C185.139 83.6983 186.819 83.2201 188.828 82.414C190.836 81.6079 192.38 80.7745 192.285 80.5558Z" fill="#FFB38A"/>
<path d="M192.615 82.3444C192.546 82.1122 190.879 82.3854 188.898 82.9592C186.917 83.5331 185.36 84.1889 185.428 84.4349C185.496 84.6671 187.163 84.3939 189.144 83.82C191.125 83.2325 192.683 82.5767 192.615 82.3444Z" fill="#FFB38A"/>
<path d="M192.655 84.7079C192.628 84.5166 190.824 84.6395 188.611 84.9674C186.411 85.2953 184.649 85.7189 184.676 85.9102C184.703 86.1015 186.507 85.9785 188.72 85.6506C190.92 85.3227 192.683 84.8992 192.655 84.7079Z" fill="#FFB38A"/>
<path d="M187.148 83.5331C187.668 84.8584 187.791 86.3203 184.061 86.1017C180.413 85.8967 181.369 84.5031 182.913 83.2188C184.457 81.9481 186.629 82.2078 187.148 83.5331Z" fill="#FFB38A"/>
<path d="M184.742 82.6045C184.742 82.6045 185.644 81.3338 185.74 80.8829C185.835 80.4321 185.808 78.9974 185.548 78.2733C185.316 77.6448 186.067 77.6448 186.231 78.123C186.395 78.6012 186.655 79.8445 186.559 80.7463C186.505 81.3201 186.436 82.0306 186.081 82.7001C185.753 83.3833 184.742 82.6045 184.742 82.6045Z" fill="#FFB38A"/>
<path d="M175.345 52.2051C174.443 54.6097 152.965 93.8496 182.572 87.592L181.725 82.81C181.725 82.81 160.889 88.2341 180.414 57.5883L175.345 52.2051Z" fill="#7EB7C4"/>
<path d="M206.824 74.694C206.824 74.694 240.818 104.711 213.642 51.918L210.254 56.1944C210.254 56.1944 230.734 90.8436 210.759 70.6908L206.824 74.694Z" fill="#7EB7C4"/>
<path d="M187.707 32.3392C187.707 31.82 186.409 31.3965 184.811 31.3965C183.212 31.3965 181.914 31.82 181.914 32.3392C181.914 32.8584 183.212 33.282 184.811 33.282C186.409 33.282 187.707 32.8584 187.707 32.3392Z" fill="#E59673"/>
<path d="M203.244 31.1366C203.148 30.6311 201.795 30.4535 200.211 30.7677C198.639 31.0683 197.437 31.7241 197.533 32.2433C197.628 32.7488 198.981 32.9265 200.566 32.6122C202.151 32.3116 203.353 31.6421 203.244 31.1366Z" fill="#E59673"/>
<path opacity="0.3" d="M182.517 100.461L178.938 107.115L179.101 102.852L182.517 100.461Z" fill="#431F00"/>
<path d="M177.623 96.705L177.391 93.8494L215.879 93.6309L215.77 97.2652L177.623 96.705Z" fill="#673B00"/>
<path opacity="0.8" d="M177.391 93.8495L177.623 96.7051L206.752 97.1423L206.875 93.6855L177.391 93.8495Z" fill="#F2E3A5"/>
<path opacity="0.3" d="M177.625 95.8983L178.008 96.7317L177.885 97.7975L215.198 99.7103L215.034 97.2783L215.758 97.2373L215.84 95.707L177.625 95.8983Z" fill="#431F00"/>
<path d="M190.152 93.0565L190.371 97.3877L196.984 97.7292V92.8242L190.152 93.0565Z" fill="#EAD67F"/>
<path d="M205.06 101.828L212.575 111.16L211.673 114.234L204.5 103.878L205.06 101.828Z" fill="#77A3BC"/>
<path d="M177.734 108.77L182.858 99.8887L185.372 101.255L178.882 111.27L177.734 108.77Z" fill="#77A3BC"/>
<path opacity="0.3" d="M206.824 74.694C206.824 74.694 240.818 104.711 213.642 51.918C212.918 55.3883 232.224 93.8357 210.759 70.6908L206.824 74.694Z" fill="#431F00"/>
<path d="M75.3203 85.5414L77.5474 92.7144L86.4282 91.1842L88.4777 83.1504L75.3203 85.5414Z" fill="#EAD67F"/>
<path d="M76.5195 85.9792L78.3367 91.8405L85.6054 90.5836L87.2859 84.0254L76.5195 85.9792Z" fill="#FFF8CB"/>
<path opacity="0.7" d="M80.7115 161.973L75.6016 174.57L80.5612 184.257L91.0816 171.209L80.7115 161.973ZM76.8722 174.105L80.8754 164.61L87.8845 171.619L80.7798 181.101L76.8722 174.105Z" fill="#D67641"/>
<path opacity="0.7" d="M80.3555 166.604L80.82 173.162L81.7354 173.066L82.1863 167.942L80.3555 166.604Z" fill="#D67641"/>
<path opacity="0.7" d="M80.3008 175.568L80.5194 178L81.7627 177.276L82.036 175.254L80.3008 175.568Z" fill="#D67641"/>
<path opacity="0.7" d="M194.444 32.1744C194.212 31.3546 193.638 30.8081 193.146 30.9448C192.654 31.0814 192.449 31.8601 192.682 32.6662C192.914 33.486 193.488 34.0326 193.979 33.8959C194.471 33.773 194.676 32.9942 194.444 32.1744Z" fill="#FFF5E6"/>
<path d="M56.3672 183.738L72.0795 126.873L91.5491 163.08L72.4211 134.729L56.3672 183.738Z" fill="#EAD67F"/>
<path opacity="0.2" d="M18.4531 179.133L28.5363 187.508L20.202 187.481L18.4531 179.133Z" fill="#431F00"/>
<path opacity="0.3" d="M112.727 99.5469L112.891 101.938L123.821 105.176L123.493 103.127L112.727 99.5469Z" fill="#431F00"/>
<path opacity="0.3" d="M113.066 105.354L113.408 107.745L123.819 109.452L123.314 107.908L113.066 105.354Z" fill="#431F00"/>
<path opacity="0.3" d="M113.41 110.641L113.752 113.045L124.34 114.234L123.493 112.362L113.41 110.641Z" fill="#431F00"/>
<path opacity="0.3" d="M120.076 119.193L119.898 120.724L125.186 121.407L125.022 119.357L120.076 119.193Z" fill="#431F00"/>
<path opacity="0.6" d="M66.7227 149.417C66.7227 149.417 67.1735 156.59 67.8567 156.59C68.5398 156.59 91.3159 154.991 91.3159 154.991L91.7668 141.561L66.7227 149.417ZM88.9659 153.024C88.9659 153.024 69.9334 155.114 69.3869 155.141C68.8404 155.182 68.5535 150.605 68.5535 150.605L89.1298 144.826L88.9659 153.024Z" fill="#D67641"/>
<path opacity="0.6" d="M70.6055 151.357L70.7558 153.475L86.8507 151.658L87.0009 147.859L70.6055 151.357Z" fill="#D67641"/>
<path opacity="0.3" d="M93.765 36.5333L101.102 53.8715L92.7539 75.6365L102.318 57.1916L107.783 75.4726L103.684 53.7759L109.149 30.7129L102.646 51.0433L93.765 36.5333Z" fill="#431F00"/>
<path d="M197.617 36.205C197.044 37.339 195.472 38.1451 193.587 38.1451C191.619 38.1451 189.98 37.2433 189.488 36.0273H189.16C189.215 37.5849 191.169 38.8282 193.587 38.8282C195.91 38.8282 197.795 37.6669 197.986 36.205H197.617Z" fill="#4C3F32"/>
<path opacity="0.3" d="M206.836 61.4538L202.669 85.7737L186.738 85.4322L203.694 87.304L207.97 59.4727L206.836 61.4538Z" fill="#431F00"/>
<path d="M213.653 51.9177C213.653 51.904 213.653 51.904 213.64 51.904L213.653 51.9177C207.71 48.9528 202.3 47.5319 197.531 47.0673C197.408 46.0699 197.299 45.1409 197.19 44.2938C202.04 42.6679 205.415 39.0882 205.415 34.9347C205.415 33.8963 205.182 32.366 204.786 30.5762C205.907 30.2073 207 28.7864 207.478 26.8872C208.079 24.4689 207.45 22.2282 206.071 21.8729C205.483 21.7226 204.868 21.9549 204.294 22.4331C204.253 21.5724 204.171 20.7662 204.062 19.9875L204.622 20.1241L205.729 18.1703C205.961 17.7604 206.043 17.2822 205.975 16.8177C206.016 16.4761 205.989 16.1345 205.866 15.8066C205.743 15.4787 205.524 15.1918 205.264 14.9595L207.123 5.8054L192.203 0.914062L180.207 5.62778L180.903 11.3935L178.458 12.3773C177.939 12.5822 177.57 13.0604 177.501 13.6205C177.488 13.7845 177.501 13.9348 177.529 14.0988C177.529 14.1261 177.501 14.1534 177.501 14.1944C177.433 14.7546 177.679 15.3011 178.13 15.629L181.641 18.1566C181.641 18.1566 181.313 21.8866 181.286 23.8677C180.63 23.1299 179.865 22.8703 179.059 23.1299C177.693 23.5672 176.75 25.2887 177.515 27.6524C178.007 29.1963 178.909 30.3849 179.851 30.9178C179.565 32.4617 179.455 34.1285 179.319 36.1233C179.319 41.1786 182.639 44.4304 188.828 45.1135C188.896 45.8787 188.978 46.5891 189.074 47.1903C180.903 48.2697 175.971 51.8084 175.384 52.2456L175.343 52.2046C174.482 54.4863 155.053 90.0781 178.622 88.1653C177.474 101.063 177.16 112.144 177.228 112.13L178.745 183.724L183.8 182.863L192.654 113.209C196.575 112.991 193.788 113.264 197.777 112.868L206.972 183.3H211.317L215.648 107.813C215.648 107.813 215.648 107.813 215.662 107.813C215.662 107.785 215.662 107.758 215.662 107.731V107.649H215.648C215.334 102.73 215.02 90.9935 212.765 79.2981C221.086 85.0092 233.178 89.8869 213.653 51.9177ZM176.996 63.3125L179.483 79.7216C179.346 80.8693 179.223 82.017 179.1 83.1647C174.646 83.356 166.954 81.4842 176.996 63.3125ZM211.891 71.8109C211.877 68.7367 212.028 64.8701 212.533 60.17C217.124 68.4361 225.936 85.5557 211.891 71.8109Z" fill="url(#paint2_linear_1300_8560)"/>
<path opacity="0.3" d="M181.781 18.2515C181.726 19.4539 181.808 22.2957 181.808 22.2957C181.808 22.2957 194.077 31.1766 205.349 25.0283C205.349 23.4298 205.581 21.6672 205.117 19.2216C206.592 16.7759 206.032 15.4643 203.354 14.8358C200.335 13.9341 193.339 10.9692 188.721 9.94451C186.563 9.37067 180.92 11.83 178.023 13.3602C176.097 15.519 181.439 17.4591 181.781 18.2515Z" fill="#431F00"/>
<defs>
<linearGradient id="paint0_linear_1300_8560" x1="53.9517" y1="99.648" x2="151.642" y2="178.21" gradientUnits="userSpaceOnUse">
<stop stop-color="#EAD67F"/>
<stop offset="0.9946" stop-color="#EAB57D"/>
</linearGradient>
<linearGradient id="paint1_linear_1300_8560" x1="247.158" y1="106.926" x2="156.983" y2="122.866" gradientUnits="userSpaceOnUse">
<stop stop-color="#597B84"/>
<stop offset="1" stop-color="#599ABF"/>
</linearGradient>
<linearGradient id="paint2_linear_1300_8560" x1="158.589" y1="-3.04968" x2="219.389" y2="170.128" gradientUnits="userSpaceOnUse">
<stop stop-color="#FFFCE9"/>
<stop offset="1" stop-color="#FF0000"/>
</linearGradient>
</defs>
</svg>
