<svg width="177" height="143" viewBox="0 0 177 143" fill="none" xmlns="http://www.w3.org/2000/svg">
<path opacity="0.4" d="M148.731 129.853C129.132 125.661 28.2636 128.161 12.5664 135.222C23.9924 143.295 94.1816 148.274 148.731 129.853Z" fill="#431F00"/>
<path d="M40.8283 124.909C40.2429 120.566 37.5472 117.35 34.8009 117.718C32.0546 118.087 30.3057 121.903 30.8839 126.246C31.4693 130.582 34.165 133.806 36.9112 133.437C39.6575 133.061 41.4137 129.245 40.8283 124.909Z" fill="#4F3D33"/>
<path d="M96.047 122.77C95.4617 118.427 92.766 115.211 90.0197 115.58C87.2734 115.948 85.5245 119.764 86.1026 124.107C86.688 128.451 89.3837 131.667 92.13 131.298C94.8763 130.93 96.6324 127.107 96.047 122.77Z" fill="#4F3D33"/>
<path d="M47.195 70.3601L37.5469 25.3211L38.6743 22.5676L96.3607 0.300994L101.109 0.0625L157.155 24.9959L138.87 119.996L88.5193 122.612L47.195 70.3601Z" fill="#282B2E"/>
<path opacity="0.5" d="M95.3532 117.61L139.402 116.482L138.875 119.995L94.6016 122.481L95.3532 117.61Z" fill="#431F00"/>
<path opacity="0.3" d="M138.873 119.996L157.158 24.9959L101.112 0.0625L99.2329 0.156453L95.8867 122.229L138.873 119.996Z" fill="#282B2E"/>
<path d="M98.6907 99.8258L92.143 64.1241L78.0719 57.7715L39.9564 66.9788L30.5757 101.828L0.648438 109.438L3.26464 126.645L55.6319 128.069L95.5397 125.294L98.6907 99.8258Z" fill="#FF0000"/>
<path d="M58.045 127.924L52.5524 106.51L0.734375 109.437L3.26385 126.644L58.045 127.924Z" fill="#FF0000"/>
<path d="M94.0352 125.387L135.981 123.321L136.689 119.996L96.0009 122.236L94.0352 125.387Z" fill="#443225"/>
<path d="M41.1973 68.5747L32.5898 101.472L75.1572 97.1722L75.7571 61.2754L41.1973 68.5747Z" fill="#FF8A8A"/>
<path d="M47.7305 72.2461L53.0424 74.6166L55.4201 99.9257L53.2953 100.056L47.7305 72.2461Z" fill="#FF5454"/>
<path opacity="0.2" d="M76.0492 97.1717L78.969 60.1836L92.5703 64.1223L98.9301 99.6433L96.3862 122.481L93.9507 126.564L58.473 127.981L52.9805 106.509L76.0492 97.1717Z" fill="#E80000"/>
<path d="M84.6819 95.7061L96.1224 96.7178L90.8972 65.7282L80.418 61.7461L84.6819 95.7061Z" fill="#8C0000"/>
<path d="M79.4658 62.5703L77.3555 96.075L82.2121 95.8943L79.4658 62.5703Z" fill="#8C0000"/>
<path d="M133.829 123.581C133.179 118.724 130.158 115.118 127.086 115.537C124.015 115.949 122.056 120.22 122.707 125.077C123.357 129.933 126.378 133.54 129.45 133.12C132.521 132.709 134.487 128.437 133.829 123.581Z" fill="#33241B"/>
<path d="M132.761 124.173C132.291 120.697 130.347 118.088 128.41 118.348C126.473 118.608 125.281 121.636 125.751 125.112C126.221 128.589 128.165 131.198 130.101 130.938C132.031 130.677 133.224 127.649 132.761 124.173Z" fill="#FFF1CF"/>
<path d="M55.8918 100.273L73.88 95.4305L75.759 61.2754L41.1992 68.5747L53.4924 74.1034L55.8918 100.273Z" fill="#8C0000"/>
<path d="M128.83 36.5872C118.734 35.5682 109.244 47.6807 107.633 63.6453C106.021 79.6099 112.894 93.3847 122.99 94.4037C133.086 95.4227 142.576 83.3102 144.187 67.3456C145.799 51.381 138.926 37.6062 128.83 36.5872ZM142.655 67.1866C141.174 81.8142 132.479 92.9149 123.229 91.9826C113.978 91.0503 107.683 78.4319 109.158 63.8043C110.639 49.1767 119.333 38.076 128.584 39.0083C137.835 39.9478 144.129 52.559 142.655 67.1866Z" fill="#FFFDD6"/>
<path d="M128.664 54.4316L114.918 61.6226L126.178 78.8519L127.218 71.2129L138.847 71.6537L139.541 68.5244L128.194 62.4103L128.664 54.4316Z" fill="#FFFDD6"/>
<path d="M96.0007 122.293L93.3772 126.608L60.8555 128.291L60.9494 126.889L92.351 125.292L96.0007 122.293Z" fill="#B50000"/>
<path d="M87.0873 125.062C80.2577 109.604 66.2228 108.122 66.5769 126.031C66.5769 126.638 66.6708 127.115 66.8226 127.52L87.1018 126.652C87.3402 126.204 87.3619 125.677 87.0873 125.062Z" fill="#8C0000"/>
<path d="M83.9068 127.007C83.1335 121.261 79.5633 117.004 75.9281 117.489C72.2929 117.98 69.973 123.032 70.7463 128.777C71.5196 134.523 75.0898 138.78 78.725 138.295C82.3602 137.804 84.6801 132.752 83.9068 127.007Z" fill="#33241B"/>
<path d="M82.6335 127.708C82.0843 123.596 79.7788 120.51 77.4879 120.82C75.1969 121.124 73.7876 124.709 74.3441 128.821C74.8933 132.933 77.1988 136.012 79.4898 135.708C81.7807 135.405 83.19 131.82 82.6335 127.708Z" fill="#FFF1CF"/>
<mask id="mask0_1380_8422" style="mask-type:luminance" maskUnits="userSpaceOnUse" x="34" y="59" width="44" height="41">
<path d="M42.8262 66.4087L34.2188 99.3063L77.3282 97.1671L77.386 59.1094L42.8262 66.4087Z" fill="white"/>
</mask>
<g mask="url(#mask0_1380_8422)">
<path d="M31.0132 91.783C26.5902 97.8827 31.9021 107.141 38.1607 103.231C44.4194 99.3281 37.4597 90.3882 31.0132 91.783ZM37.4091 102.082C32.4297 105.189 28.2018 97.8248 31.7214 92.9755C36.8526 91.8625 42.3886 98.974 37.4091 102.082Z" fill="#8C0000"/>
</g>
<mask id="mask1_1380_8422" style="mask-type:luminance" maskUnits="userSpaceOnUse" x="36" y="59" width="44" height="41">
<path d="M45.0293 66.4087L36.4219 99.3063L79.5313 97.1671L79.5891 59.1094L45.0293 66.4087Z" fill="white"/>
</mask>
<g mask="url(#mask1_1380_8422)">
<path d="M37.4175 93.7051L35.0977 98.2437L35.7192 98.7712L37.4175 93.7051Z" fill="#8C0000"/>
</g>
<path d="M74.979 95.4316L52.3944 106.475L0.554688 109.438L34.6953 97.2529L74.979 95.4316Z" fill="#FF3333"/>
<path d="M36.0038 97.2078L42.3058 68.6682L41.2001 68.5742L34.5078 97.2873L36.0038 97.2078Z" fill="#8C0000"/>
<path d="M41.9219 66.623L33.7842 100.287L30.3008 102.144L39.9561 66.9772L41.9219 66.623Z" fill="#FF3333"/>
<path d="M41.857 68.6191L39.1758 97.1805L40.5489 96.9637L42.6086 68.9516L41.857 68.6191Z" fill="#8C0000"/>
<path d="M74.3545 63.3145L72.9091 73.7937L45.2656 68.7347L74.3545 63.3145Z" fill="#FFFDD6"/>
<path d="M73.0352 75.8376L42.0167 69.2754L41.1133 73.973L72.3125 85.717L73.0352 75.8376Z" fill="#FFFDD6"/>
<path d="M96.5391 1.19708L97.4713 66.5008L99.1625 1.07422L96.5391 1.19708Z" fill="#FFFDD6"/>
<path d="M80.5547 72.0078L83.0842 87.8495L82.0507 93.1903L80.5547 72.0078Z" fill="#FF5454"/>
<path d="M72.9618 95.7051H75.4407L77.4426 58.8398L40.5195 66.9052L40.7074 67.6496L75.7587 60.437L72.9618 95.7051Z" fill="#FF3333"/>
<path d="M95.7847 107.082C94.8524 105.203 88.9624 105.036 88.1602 107.082C88.9624 109.293 94.9825 109.452 95.7847 107.082Z" fill="#8C0000"/>
<path d="M87.9166 106.424L95.9097 106.8L95.9748 107.551L87.8516 107.24L87.9166 106.424Z" fill="#FF8A8A"/>
<path d="M82.6771 127.54C82.2001 124.014 80.2271 121.368 78.2686 121.636C76.3028 121.896 75.0959 124.975 75.5729 128.494C76.0426 132.021 78.0229 134.659 79.9886 134.399C81.9471 134.139 83.1541 131.06 82.6771 127.54Z" fill="#33241B"/>
<path d="M132.752 124.114C132.355 121.144 130.685 118.911 129.03 119.135C127.375 119.359 126.356 121.946 126.754 124.924C127.151 127.894 128.821 130.127 130.476 129.903C132.138 129.679 133.157 127.084 132.752 124.114Z" fill="#33241B"/>
<path d="M75.5289 97.3537L56.2109 104.769L75.7095 94.6074L75.5289 97.3537Z" fill="#FF0000"/>
<path d="M27.4688 100.469L31.4942 107.154L38.9742 106.785L29.9404 99.1895L27.4688 100.469Z" fill="#FF5454"/>
<path d="M0.871094 109.394L28.8254 107.464L25.1757 100.924L0.871094 109.394Z" fill="#FF5454"/>
<path opacity="0.4" d="M77.1445 98.2926L79.4138 114.387L80.2594 114.879L77.9973 97.9023L77.1445 98.2926Z" fill="#FF3333"/>
<path opacity="0.4" d="M98.6848 100.128L78.066 99.2177L77.8203 97.9023L98.5042 99.3044L98.6848 100.128Z" fill="#FF3333"/>
<path d="M110.648 123.081L111.256 125.032L119.928 125.278L120.289 122.221L110.648 123.081Z" fill="#443225"/>
<path d="M167.349 39.8329L160.996 39.0234L161.581 43.9523L169.177 51.6419L176.043 48.4403L167.349 39.8329ZM164.942 42.6659C164.66 42.9261 163.952 42.6153 163.359 41.9721C162.767 41.3289 162.514 40.5917 162.796 40.3315C163.077 40.0714 163.786 40.3821 164.386 41.0253C164.971 41.6758 165.224 42.4057 164.942 42.6659Z" fill="#A3924D"/>
<path d="M167.071 40.0204L160.719 39.2109L161.304 44.1398L168.9 51.8294L175.765 48.6278L167.071 40.0204ZM164.665 42.8534C164.383 43.1136 163.675 42.8028 163.082 42.1596C162.489 41.5164 162.236 40.7792 162.518 40.519C162.8 40.2589 163.508 40.5696 164.101 41.2128C164.694 41.856 164.947 42.586 164.665 42.8534Z" fill="#FFEC8D"/>
<path d="M163.068 40.6794C159.057 39.0967 158.934 34.5581 158.833 30.9084C158.76 28.1838 158.695 25.8278 157.105 25.4303L157.192 25.0762C159.05 25.5387 159.115 28.0248 159.194 30.894C159.295 34.6159 159.411 38.8437 163.198 40.3397L163.068 40.6794Z" fill="#673B00"/>
<path d="M38.7578 26.101L39.6178 29.3966L40.4706 28.9124L39.495 25.3711L38.7578 26.101Z" fill="#FFFDD6"/>
<path d="M40.1016 31.2333L40.9544 34.5288L41.8144 34.0374L40.8315 30.4961L40.1016 31.2333Z" fill="#FFFDD6"/>
<path d="M41.6914 36.7254L42.5442 40.021L43.397 39.5295L42.4213 35.9883L41.6914 36.7254Z" fill="#FFFDD6"/>
<path d="M42.6641 42.3407L43.5169 45.6362L44.3696 45.1448L43.394 41.6035L42.6641 42.3407Z" fill="#FFFDD6"/>
<path d="M43.8906 48.3178L44.7434 51.6134L45.5962 51.1292L44.6206 47.5879L43.8906 48.3178Z" fill="#FFFDD6"/>
<path d="M45.2227 54.1786L46.0827 57.4741L46.9355 56.9827L45.9598 53.4414L45.2227 54.1786Z" fill="#FFFDD6"/>
<path d="M46.6914 60.4018L47.5442 63.6973L48.4042 63.2059L47.4213 59.6719L46.6914 60.4018Z" fill="#FFFDD6"/>
<path d="M95.2422 60.2268L95.2639 63.638L96.2106 63.3706L96.1383 59.6992L95.2422 60.2268Z" fill="#FFFDD6"/>
<path d="M95.1289 54.6188L95.1434 58.0227L96.0901 57.7553L96.0178 54.084L95.1289 54.6188Z" fill="#FFFDD6"/>
<path d="M94.8828 49.0036L94.8973 52.4075L95.8512 52.1401L95.7717 48.4688L94.8828 49.0036Z" fill="#FFFDD6"/>
<path d="M94.8828 42.7737L94.8973 46.1848L95.8512 45.9174L95.7717 42.2461L94.8828 42.7737Z" fill="#FFFDD6"/>
<path d="M95.0039 36.4299L95.0184 39.8339L95.9723 39.5737L95.8928 35.9023L95.0039 36.4299Z" fill="#FFFDD6"/>
<path d="M94.7578 30.4528L94.7795 33.8567L95.7262 33.5893L95.6467 29.918L94.7578 30.4528Z" fill="#FFFDD6"/>
<path d="M94.6406 24.469L94.6623 27.8729L95.609 27.6128L95.5296 23.9414L94.6406 24.469Z" fill="#FFFDD6"/>
<path d="M94.5117 18.2457L94.5334 21.6497L95.4801 21.3823L95.4006 17.7109L94.5117 18.2457Z" fill="#FFFDD6"/>
<path d="M94.2695 11.6539L94.2912 15.0579L95.238 14.7905L95.1657 11.1191L94.2695 11.6539Z" fill="#FFFDD6"/>
<path d="M94.5117 5.0641L94.5334 8.46805L95.4801 8.20065L95.4006 4.5293L94.5117 5.0641Z" fill="#FFFDD6"/>
<path opacity="0.3" d="M92.1445 64.123L97.348 66.8693L96.7409 89.8153L92.1445 64.123Z" fill="#673B00"/>
<path d="M73.0555 128.618C72.4701 124.687 73.3229 121.102 75.0646 119.057C72.434 120.488 70.9308 124.376 71.574 128.712C72.1955 132.875 74.6093 136.17 77.4134 137.088C75.3104 135.448 73.612 132.333 73.0555 128.618Z" fill="#FFECFB"/>
<path d="M124.843 124.946C124.366 121.737 125.06 118.803 126.484 117.141C124.337 118.304 123.102 121.484 123.629 125.025C124.135 128.422 126.108 131.118 128.399 131.862C126.679 130.525 125.291 127.981 124.843 124.946Z" fill="#FFECFB"/>
<path d="M9.74358 116.1C9.38946 113.288 7.879 111.164 6.36132 111.351C4.84364 111.539 3.90412 113.975 4.25825 116.786C4.61237 119.597 6.12283 121.722 7.64051 121.534C9.15097 121.354 10.0977 118.918 9.74358 116.1Z" fill="#C9B6A9"/>
<path d="M21.7969 108.612L21.9776 107.059L24.1746 108.432L21.7969 108.612Z" fill="#B50000"/>
<path d="M21.9766 107.088L45.6886 97.3535L23.805 108.339L21.9766 107.088Z" fill="#B50000"/>
<path opacity="0.8" d="M6.59562 116.519C6.44385 115.03 6.74739 113.708 7.29664 113.223C6.97865 112.804 6.62453 112.58 6.26317 112.638C5.35979 112.782 4.80331 114.604 5.01289 116.707C5.22248 118.81 6.12586 120.4 7.02924 120.255C7.36892 120.205 7.65077 119.916 7.87481 119.467C7.26774 119.128 6.74016 117.964 6.59562 116.519Z" fill="#FFFDD6"/>
<path opacity="0.8" d="M8.57007 116.26C8.4978 115.14 8.10031 114.258 7.6956 114.28C7.29088 114.309 7.01625 115.241 7.09575 116.361C7.16802 117.481 7.56551 118.363 7.97022 118.341C8.37494 118.305 8.64957 117.38 8.57007 116.26Z" fill="#FFFDD6"/>
<path d="M51.0408 114.365C49.9351 110.954 46.9937 108.677 44.4859 109.292C41.9709 109.899 40.829 113.165 41.942 116.576C43.0477 119.988 45.9891 122.264 48.4969 121.657C51.0119 121.043 52.1466 117.783 51.0408 114.365Z" fill="#C9B6A9"/>
<path opacity="0.8" d="M45.8301 115.659C45.3097 113.838 45.5771 112.118 46.4082 111.381C45.8012 110.94 45.158 110.752 44.5581 110.911C43.0621 111.309 42.455 113.715 43.1922 116.281C43.9294 118.847 45.7361 120.603 47.2321 120.205C47.7886 120.054 48.2222 119.627 48.5113 119.02C47.4345 118.738 46.336 117.423 45.8301 115.659Z" fill="#FFFDD6"/>
<path opacity="0.8" d="M49.1079 114.851C48.7755 113.478 47.9588 112.473 47.2722 112.603C46.5929 112.74 46.311 113.962 46.6435 115.335C46.9759 116.708 47.7926 117.713 48.4792 117.583C49.1585 117.445 49.4403 116.224 49.1079 114.851Z" fill="#FFFDD6"/>
<path opacity="0.4" d="M18.4766 110.919L19.1848 123.285H38.3293L33.4655 110.572L18.4766 110.919Z" fill="#FF3333"/>
<path d="M20.8964 112.018L19.7617 112.032L20.2387 122.439L22.2623 122.345L20.8964 112.018Z" fill="#8C0000"/>
<path d="M23.9835 111.98L22.1406 112.002L23.998 122.257L25.6819 122.178L23.9835 111.98Z" fill="#8C0000"/>
<path d="M27.9271 111.93L25.4844 111.959L27.3851 122.091L29.6399 121.983L27.9271 111.93Z" fill="#8C0000"/>
<path d="M32.0622 121.868L35.4734 121.702L32.3585 111.873L30.2266 111.895L32.0622 121.868Z" fill="#8C0000"/>
<path d="M1.73484 123.305L56.0968 123.883L63.7358 123.955L59.1611 130.127L1.92274 129.361L0.679688 126.68L1.73484 123.305Z" fill="#E9FFFE"/>
<path opacity="0.5" d="M33.8591 126.839L34.2566 123.594L17.1068 123.449L18.1258 126.709L0.679688 126.557L1.92274 129.469L59.349 130.228L63.042 127.07L33.8591 126.839Z" fill="#431F00"/>
<path d="M59.395 124.462L58.3398 127.295L59.1637 130.135L64.0275 128.784L63.7746 124.137L59.395 124.462Z" fill="#697F7E"/>
<path d="M18.7891 122.438L19.7936 128.205H32.0363L32.8529 121.434L18.7891 122.438Z" fill="#E9FFFE"/>
<path d="M20.082 123.45L20.6963 126.738L31.3129 127.02L31.8621 122.611L20.082 123.45Z" fill="#FF6561"/>
<path d="M82.0822 127.621C81.6847 124.687 80.1092 122.468 78.5626 122.678C77.016 122.887 76.0765 125.439 76.474 128.373C76.8715 131.314 78.447 133.526 79.9936 133.316C81.5402 133.106 82.4797 130.555 82.0822 127.621Z" fill="#B7AC95"/>
<path d="M132.672 124.174C132.332 121.644 130.916 119.751 129.507 119.939C128.097 120.127 127.23 122.331 127.57 124.86C127.909 127.39 129.326 129.283 130.735 129.095C132.144 128.907 133.012 126.703 132.672 124.174Z" fill="#B7AC95"/>
</svg>
