<svg width="303" height="246" viewBox="0 0 303 246" fill="none" xmlns="http://www.w3.org/2000/svg">
<path opacity="0.4" d="M255.843 224.099C222.002 216.861 47.8413 221.179 20.7383 233.37C40.4666 247.308 161.657 255.906 255.843 224.099Z" fill="#431F00"/>
<path d="M69.5426 215.563C68.5318 208.064 63.8774 202.511 59.1356 203.147C54.3938 203.784 51.374 210.372 52.3723 217.872C53.3831 225.359 58.0375 230.924 62.7793 230.288C67.5211 229.639 70.5533 223.05 69.5426 215.563Z" fill="#4F3D33"/>
<path d="M164.877 211.87C163.866 204.37 159.211 198.818 154.47 199.454C149.728 200.09 146.708 206.679 147.706 214.178C148.717 221.678 153.371 227.231 158.113 226.594C162.855 225.958 165.887 219.357 164.877 211.87Z" fill="#4F3D33"/>
<path d="M80.5356 121.377L63.877 43.6119L65.8236 38.8577L165.426 0.411789L173.624 0L270.394 43.0504L238.824 207.079L151.887 211.596L80.5356 121.377Z" fill="#282B2E"/>
<path opacity="0.5" d="M163.679 202.96L239.734 201.014L238.823 207.078L162.381 211.371L163.679 202.96Z" fill="#431F00"/>
<path opacity="0.3" d="M238.823 207.079L270.393 43.0504L173.623 0L170.379 0.16222L164.602 210.934L238.823 207.079Z" fill="#282B2E"/>
<path d="M169.444 172.252L158.138 110.609L133.843 99.6406L68.032 115.538L51.8351 175.709L0.162109 188.849L4.67929 218.56L95.0976 221.018L164.003 216.226L169.444 172.252Z" fill="#FF0000"/>
<path d="M99.266 220.768L89.7825 183.795L0.3125 188.849L4.67993 218.56L99.266 220.768Z" fill="#FF0000"/>
<path d="M161.408 216.387L233.833 212.818L235.056 207.078L164.802 210.946L161.408 216.387Z" fill="#443225"/>
<path d="M70.1782 118.295L55.3164 175.096L128.814 167.672L129.85 105.691L70.1782 118.295Z" fill="#FF8A8A"/>
<path d="M81.459 124.635L90.6306 128.728L94.736 172.427L91.0673 172.652L81.459 124.635Z" fill="#FF5454"/>
<path opacity="0.2" d="M130.351 167.671L135.392 103.807L158.876 110.607L169.857 171.939L165.465 211.37L161.259 218.421L100.003 220.866L90.5195 183.793L130.351 167.671Z" fill="#E80000"/>
<path d="M145.261 165.14L165.014 166.887L155.992 113.379L137.898 106.504L145.261 165.14Z" fill="#8C0000"/>
<path d="M136.251 107.926L132.607 165.776L140.993 165.464L136.251 107.926Z" fill="#8C0000"/>
<path d="M230.115 213.268C228.992 204.882 223.776 198.656 218.473 199.379C213.169 200.091 209.788 207.465 210.911 215.851C212.034 224.236 217.25 230.463 222.553 229.739C227.856 229.028 231.25 221.653 230.115 213.268Z" fill="#33241B"/>
<path d="M228.267 214.292C227.456 208.289 224.099 203.785 220.755 204.234C217.411 204.683 215.352 209.912 216.163 215.914C216.974 221.916 220.331 226.421 223.675 225.971C227.007 225.522 229.066 220.294 228.267 214.292Z" fill="#FFF1CF"/>
<path d="M95.5463 173.025L126.605 164.664L129.849 105.691L70.1777 118.295L91.4034 127.841L95.5463 173.025Z" fill="#8C0000"/>
<path d="M221.478 63.0662C204.046 61.3068 187.662 82.2206 184.879 109.785C182.097 137.35 193.963 161.134 211.396 162.893C228.828 164.653 245.212 143.739 247.995 116.174C250.777 88.6095 238.911 64.8257 221.478 63.0662ZM245.349 115.9C242.791 141.156 227.78 160.323 211.808 158.713C195.835 157.103 184.967 135.316 187.512 110.06C190.07 84.8036 205.082 65.6368 221.054 67.2465C237.026 68.8687 247.895 90.6435 245.349 115.9Z" fill="#FFFDD6"/>
<path d="M221.191 93.875L197.457 106.291L216.898 136.039L218.695 122.85L238.773 123.611L239.971 118.208L220.38 107.651L221.191 93.875Z" fill="#FFFDD6"/>
<path d="M164.801 211.047L160.272 218.496L104.119 221.404L104.281 218.983L158.5 216.225L164.801 211.047Z" fill="#B50000"/>
<path d="M149.404 215.827C137.611 189.135 113.378 186.577 113.99 217.499C113.99 218.547 114.152 219.37 114.414 220.069L149.428 218.572C149.84 217.798 149.878 216.887 149.404 215.827Z" fill="#8C0000"/>
<path d="M143.913 219.182C142.578 209.262 136.414 201.912 130.137 202.748C123.861 203.597 119.855 212.319 121.19 222.24C122.525 232.16 128.69 239.51 134.966 238.674C141.243 237.825 145.249 229.103 143.913 219.182Z" fill="#33241B"/>
<path d="M141.718 220.394C140.769 213.294 136.789 207.965 132.833 208.502C128.877 209.026 126.444 215.215 127.405 222.316C128.353 229.416 132.334 234.732 136.29 234.208C140.245 233.683 142.678 227.494 141.718 220.394Z" fill="#FFF1CF"/>
<mask id="mask0_769_1879" style="mask-type:luminance" maskUnits="userSpaceOnUse" x="58" y="101" width="75" height="71">
<path d="M72.9848 114.556L58.123 171.358L132.557 167.664L132.656 101.953L72.9848 114.556Z" fill="white"/>
</mask>
<g mask="url(#mask0_769_1879)">
<path d="M52.5865 158.368C44.9497 168.9 54.1213 184.884 64.9276 178.134C75.7339 171.395 63.7172 155.96 52.5865 158.368ZM63.6298 176.15C55.0322 181.515 47.7324 168.8 53.8093 160.427C62.669 158.505 72.2274 170.784 63.6298 176.15Z" fill="#8C0000"/>
</g>
<mask id="mask1_769_1879" style="mask-type:luminance" maskUnits="userSpaceOnUse" x="61" y="101" width="76" height="71">
<path d="M76.7973 114.556L61.9355 171.358L136.369 167.664L136.469 101.953L76.7973 114.556Z" fill="white"/>
</mask>
<g mask="url(#mask1_769_1879)">
<path d="M63.6559 161.688L59.6504 169.524L60.7235 170.435L63.6559 161.688Z" fill="#8C0000"/>
</g>
<path d="M128.502 164.664L89.5074 183.731L0 188.847L58.9479 167.809L128.502 164.664Z" fill="#FF3333"/>
<path d="M61.2061 167.734L72.0872 118.457L70.178 118.295L58.623 167.872L61.2061 167.734Z" fill="#8C0000"/>
<path d="M71.4266 114.926L57.3759 173.05L51.3613 176.257L68.0324 115.537L71.4266 114.926Z" fill="#FF3333"/>
<path d="M71.3131 118.369L66.6836 167.684L69.0545 167.309L72.6108 118.943L71.3131 118.369Z" fill="#8C0000"/>
<path d="M127.429 109.211L124.933 127.305L77.2031 118.57L127.429 109.211Z" fill="#FFFDD6"/>
<path d="M125.146 130.836L71.5891 119.506L70.0293 127.617L123.898 147.894L125.146 130.836Z" fill="#FFFDD6"/>
<path d="M165.725 1.95822L167.334 114.713L170.254 1.74609L165.725 1.95822Z" fill="#FFFDD6"/>
<path d="M138.123 124.223L142.49 151.575L140.706 160.797L138.123 124.223Z" fill="#FF5454"/>
<path d="M125.021 165.139H129.301L132.758 101.486L69.0059 115.412L69.3303 116.697L129.85 104.244L125.021 165.139Z" fill="#FF3333"/>
<path d="M164.428 184.78C162.819 181.536 152.649 181.249 151.264 184.78C152.649 188.599 163.043 188.873 164.428 184.78Z" fill="#8C0000"/>
<path d="M150.839 183.645L164.64 184.293L164.752 185.591L150.727 185.055L150.839 183.645Z" fill="#FF8A8A"/>
<path d="M141.792 220.106C140.968 214.016 137.562 209.449 134.18 209.911C130.786 210.36 128.702 215.676 129.525 221.753C130.337 227.842 133.756 232.397 137.15 231.948C140.531 231.499 142.615 226.183 141.792 220.106Z" fill="#33241B"/>
<path d="M228.255 214.191C227.569 209.062 224.687 205.206 221.829 205.593C218.972 205.98 217.212 210.447 217.898 215.588C218.585 220.717 221.467 224.573 224.325 224.186C227.195 223.799 228.954 219.319 228.255 214.191Z" fill="#33241B"/>
<path d="M129.45 167.984L96.0957 180.787L129.762 163.242L129.45 167.984Z" fill="#FF0000"/>
<path d="M46.4688 173.363L53.4192 184.905L66.3343 184.269L50.7364 171.154L46.4688 173.363Z" fill="#FF5454"/>
<path d="M0.548828 188.773L48.8152 185.441L42.5136 174.148L0.548828 188.773Z" fill="#FF5454"/>
<path opacity="0.4" d="M132.246 169.605L136.164 197.395L137.624 198.243L133.719 168.932L132.246 169.605Z" fill="#FF3333"/>
<path opacity="0.4" d="M169.431 172.775L133.831 171.203L133.406 168.932L169.119 171.352L169.431 172.775Z" fill="#FF3333"/>
<path d="M190.096 212.407L191.144 215.776L206.118 216.2L206.742 210.922L190.096 212.407Z" fill="#443225"/>
<path d="M287.988 68.6691L277.02 67.2715L278.03 75.7817L291.145 89.0587L303 83.5308L287.988 68.6691ZM283.833 73.5606C283.346 74.0098 282.123 73.4732 281.1 72.3627C280.077 71.2521 279.64 69.9793 280.127 69.5301C280.613 69.0808 281.836 69.6174 282.872 70.728C283.883 71.8511 284.319 73.1114 283.833 73.5606Z" fill="#A3924D"/>
<path d="M287.515 68.9933L276.547 67.5957L277.558 76.106L290.672 89.3829L302.527 83.855L287.515 68.9933ZM283.36 73.8848C282.873 74.334 281.651 73.7975 280.627 72.6869C279.604 71.5763 279.167 70.3035 279.654 69.8543C280.141 69.4051 281.364 69.9416 282.387 71.0522C283.41 72.1628 283.847 73.4231 283.36 73.8848Z" fill="#FFEC8D"/>
<path d="M280.601 70.1283C273.676 67.3956 273.464 59.5591 273.289 53.2576C273.164 48.5532 273.052 44.4853 270.307 43.7989L270.456 43.1875C273.663 43.9861 273.776 48.2787 273.913 53.2326C274.088 59.659 274.287 66.9588 280.826 69.5418L280.601 70.1283Z" fill="#673B00"/>
<path d="M65.9609 44.9595L67.4459 50.6497L68.9183 49.8136L67.2337 43.6992L65.9609 44.9595Z" fill="#FFFDD6"/>
<path d="M68.2812 53.8197L69.7537 59.5098L71.2386 58.6613L69.5416 52.5469L68.2812 53.8197Z" fill="#FFFDD6"/>
<path d="M71.0273 63.3021L72.4998 68.9922L73.9722 68.1437L72.2877 62.0293L71.0273 63.3021Z" fill="#FFFDD6"/>
<path d="M72.7109 72.9994L74.1834 78.6895L75.6558 77.841L73.9713 71.7266L72.7109 72.9994Z" fill="#FFFDD6"/>
<path d="M74.8203 83.3189L76.2928 89.009L77.7652 88.173L76.0806 82.0586L74.8203 83.3189Z" fill="#FFFDD6"/>
<path d="M77.1289 93.4388L78.6138 99.129L80.0863 98.2804L78.4017 92.166L77.1289 93.4388Z" fill="#FFFDD6"/>
<path d="M79.6621 104.182L81.1346 109.872L82.6195 109.024L80.9224 102.922L79.6621 104.182Z" fill="#FFFDD6"/>
<path d="M163.492 103.882L163.53 109.771L165.164 109.31L165.04 102.971L163.492 103.882Z" fill="#FFFDD6"/>
<path d="M163.291 94.1988L163.316 100.076L164.951 99.6144L164.826 93.2754L163.291 94.1988Z" fill="#FFFDD6"/>
<path d="M162.867 84.5035L162.892 90.3808L164.539 89.9191L164.402 83.5801L162.867 84.5035Z" fill="#FFFDD6"/>
<path d="M162.867 73.7469L162.892 79.6367L164.539 79.175L164.402 72.8359L162.867 73.7469Z" fill="#FFFDD6"/>
<path d="M163.08 62.7918L163.105 68.6691L164.752 68.2199L164.615 61.8809L163.08 62.7918Z" fill="#FFFDD6"/>
<path d="M162.656 52.4722L162.694 58.3495L164.328 57.8878L164.191 51.5488L162.656 52.4722Z" fill="#FFFDD6"/>
<path d="M162.443 42.1394L162.481 48.0168L164.115 47.5675L163.978 41.2285L162.443 42.1394Z" fill="#FFFDD6"/>
<path d="M162.23 31.3961L162.268 37.2734L163.903 36.8117L163.765 30.4727L162.23 31.3961Z" fill="#FFFDD6"/>
<path d="M161.807 20.0152L161.844 25.8925L163.479 25.4308L163.354 19.0918L161.807 20.0152Z" fill="#FFFDD6"/>
<path d="M162.23 8.63434L162.268 14.5117L163.903 14.05L163.765 7.71094L162.23 8.63434Z" fill="#FFFDD6"/>
<path opacity="0.3" d="M158.139 110.607L167.123 115.349L166.075 154.968L158.139 110.607Z" fill="#673B00"/>
<path d="M125.183 221.966C124.172 215.178 125.645 208.988 128.652 205.457C124.11 207.928 121.514 214.641 122.625 222.128C123.698 229.316 127.866 235.006 132.708 236.591C129.076 233.758 126.144 228.38 125.183 221.966Z" fill="#FFECFB"/>
<path d="M214.603 215.627C213.779 210.087 214.977 205.02 217.435 202.15C213.729 204.159 211.596 209.65 212.506 215.764C213.38 221.629 216.787 226.284 220.742 227.569C217.772 225.26 215.377 220.868 214.603 215.627Z" fill="#FFECFB"/>
<path d="M15.8597 200.353C15.2483 195.499 12.6403 191.83 10.0199 192.155C7.39941 192.479 5.77722 196.684 6.38866 201.538C7.0001 206.393 9.60808 210.061 12.2285 209.737C14.8365 209.425 16.4712 205.22 15.8597 200.353Z" fill="#C9B6A9"/>
<path d="M36.6738 187.425L36.9858 184.742L40.7792 187.113L36.6738 187.425Z" fill="#B50000"/>
<path d="M36.9863 184.793L77.9279 167.984L40.1434 186.952L36.9863 184.793Z" fill="#B50000"/>
<path opacity="0.8" d="M10.432 201.076C10.17 198.505 10.6941 196.222 11.6424 195.386C11.0934 194.662 10.4819 194.275 9.85802 194.375C8.29823 194.624 7.33739 197.769 7.69926 201.4C8.06114 205.031 9.62094 207.777 11.1807 207.527C11.7672 207.44 12.2539 206.941 12.6407 206.167C11.5925 205.58 10.6816 203.571 10.432 201.076Z" fill="#FFFDD6"/>
<path opacity="0.8" d="M13.8388 200.627C13.714 198.693 13.0277 197.17 12.3289 197.208C11.6301 197.258 11.156 198.867 11.2932 200.801C11.418 202.736 12.1043 204.258 12.8031 204.221C13.5019 204.158 13.9761 202.561 13.8388 200.627Z" fill="#FFFDD6"/>
<path d="M87.1749 197.358C85.2657 191.469 80.187 187.538 75.857 188.599C71.5145 189.647 69.543 195.287 71.4646 201.177C73.3738 207.067 78.4525 210.997 82.7825 209.949C87.125 208.888 89.0841 203.261 87.1749 197.358Z" fill="#C9B6A9"/>
<path opacity="0.8" d="M78.1776 199.592C77.2791 196.447 77.7408 193.477 79.1759 192.204C78.1277 191.443 77.0171 191.119 75.9814 191.393C73.3984 192.08 72.3502 196.235 73.623 200.665C74.8958 205.095 78.0154 208.127 80.5984 207.44C81.5592 207.178 82.3079 206.442 82.8071 205.394C80.9478 204.907 79.0511 202.636 78.1776 199.592Z" fill="#FFFDD6"/>
<path opacity="0.8" d="M83.8301 198.193C83.2561 195.822 81.846 194.088 80.6606 194.313C79.4876 194.55 79.001 196.658 79.575 199.029C80.149 201.4 81.559 203.135 82.7445 202.91C83.9174 202.673 84.4041 200.564 83.8301 198.193Z" fill="#FFFDD6"/>
<path opacity="0.4" d="M30.9453 191.406L32.1682 212.756H65.2234L56.8255 190.807L30.9453 191.406Z" fill="#FF3333"/>
<path d="M35.1271 193.303L33.168 193.328L33.9915 211.297L37.4855 211.134L35.1271 193.303Z" fill="#8C0000"/>
<path d="M40.4554 193.24L37.2734 193.278L40.4804 210.984L43.3878 210.847L40.4554 193.24Z" fill="#8C0000"/>
<path d="M47.2568 193.152L43.0391 193.202L46.3209 210.697L50.2141 210.51L47.2568 193.152Z" fill="#8C0000"/>
<path d="M54.4058 210.31L60.2956 210.023L54.9174 193.053L51.2363 193.09L54.4058 210.31Z" fill="#8C0000"/>
<path d="M2.03473 212.793L95.8971 213.791L109.087 213.916L101.188 224.573L2.35917 223.25L0.212891 218.62L2.03473 212.793Z" fill="#E9FFFE"/>
<path opacity="0.5" d="M57.5011 218.895L58.1874 213.293L28.5762 213.043L30.3357 218.671L0.212891 218.409L2.35917 223.437L101.512 224.748L107.889 219.295L57.5011 218.895Z" fill="#431F00"/>
<path d="M101.599 214.79L99.7773 219.682L101.2 224.586L109.598 222.252L109.161 214.229L101.599 214.79Z" fill="#697F7E"/>
<path d="M31.4824 211.297L33.2169 221.255H54.3553L55.7653 209.562L31.4824 211.297Z" fill="#E9FFFE"/>
<path d="M33.7168 213.043L34.7775 218.721L53.1082 219.208L54.0565 211.596L33.7168 213.043Z" fill="#FF6561"/>
<path d="M140.768 220.242C140.082 215.176 137.362 211.345 134.691 211.707C132.021 212.069 130.399 216.474 131.085 221.54C131.771 226.619 134.492 230.437 137.162 230.075C139.833 229.714 141.455 225.309 140.768 220.242Z" fill="#B7AC95"/>
<path d="M228.117 214.292C227.53 209.924 225.084 206.655 222.651 206.979C220.218 207.304 218.72 211.11 219.307 215.477C219.893 219.844 222.339 223.114 224.772 222.789C227.206 222.465 228.703 218.659 228.117 214.292Z" fill="#B7AC95"/>
</svg>
