<svg width="309" height="247" viewBox="0 0 309 247" fill="none" xmlns="http://www.w3.org/2000/svg">
<path opacity="0.3" d="M309 238.197C293.55 227.256 25.5206 227.087 0 238.197C21.7705 248.619 290.334 249.139 309 238.197Z" fill="#431F00"/>
<path d="M268.366 237.551L278.324 18.7085L260.346 0L40.3242 33.077L54.1449 237.551H268.366Z" fill="#DB712A"/>
<path opacity="0.3" d="M246.428 237.55H268.381L278.339 18.7082L260.361 0.0136719L258.394 0.308625C256.583 33.9054 248.97 175.778 246.428 237.55Z" fill="#673B00"/>
<path opacity="0.7" d="M46.9961 37.9938L63.9068 230.009L240.121 231.119L251.062 7.09375L46.9961 37.9938Z" fill="#673B00"/>
<path d="M55.8301 189.009L248.604 173.826V177.464L56.4902 192.436L55.8301 189.009Z" fill="#DB712A"/>
<path d="M50.2129 77.8827L252.116 60.4102V64.5957L50.9152 81.8295L50.2129 77.8827Z" fill="#DB712A"/>
<path d="M52.3613 137.842L246.905 120.805V124.709L53.0215 141.522L52.3613 137.842Z" fill="#DB712A"/>
<path d="M59.6934 90.6071L67.4184 136.606L104.99 133.797L102.883 92.7139L92.7002 87.0957L59.6934 90.6071Z" fill="url(#paint0_linear_769_1981)"/>
<path d="M92.7002 87.0957L59.6934 90.6071L72.6854 136.255L98.4448 134.274L92.967 87.2362L92.7002 87.0957Z" fill="#F2E3A5"/>
<path d="M99.7227 112.841L102.644 134.022L127.111 131.339L127.575 110.973L121.03 108.389L99.7227 112.841Z" fill="#564332"/>
<path d="M216.65 89.1597L218.575 103.037L234.6 101.267L234.909 87.9378L230.612 86.2383L216.65 89.1597Z" fill="#282B2E"/>
<path d="M68.0629 188.224L62.9082 163.167L88.6535 158.953L96.6173 165.274L95.6762 185.639L68.0629 188.224Z" fill="url(#paint1_linear_769_1981)"/>
<path d="M88.655 158.953L68.2891 162.24L69.8762 188.041L89.3994 186.229L89.5258 159.641L88.655 158.953Z" fill="#F2E3A5"/>
<path d="M103.584 112.027L106.562 133.447L119.764 132.14L120.481 108.502L103.584 112.027Z" fill="#F2E3A5"/>
<path d="M94.5684 172.772L95.0319 185.877L110.482 185.413L111.886 173.236L104.864 171.129L94.5684 172.772Z" fill="#6F7173"/>
<path d="M176.959 230.107L179.585 208.744L200.878 208.983L203.364 214.362L201.089 230.824L176.959 230.107Z" fill="#FF3333"/>
<path d="M71.6317 229.658L69.7637 202.269L90.5931 198.982L99.4838 202.733L101.127 230.36L71.6317 229.658Z" fill="#FF0000"/>
<path d="M107.448 230.121L105.58 204.375L129.921 201.566L136.002 208.35L134.837 231.062L107.448 230.121Z" fill="url(#paint2_linear_769_1981)"/>
<path d="M207.409 230.121L205.527 204.375L229.882 201.566L235.964 208.35L234.798 231.062L207.409 230.121Z" fill="url(#paint3_linear_769_1981)"/>
<path opacity="0.3" d="M121.029 208.589L119.751 202.732L111.253 203.716L111.197 210.921L121.029 208.589Z" fill="#431F00"/>
<path d="M106.745 184.712L106.506 209.291L116.338 206.946L111.422 184.234L106.745 184.712Z" fill="#EA5D49"/>
<path d="M109.048 184.473L106.744 184.711L107.208 206.707L111.899 203.673L109.048 184.473Z" fill="#F2E3A5"/>
<path d="M97.2646 173.588L96.7871 185.526L103.585 184.936L102.883 171.537L97.2646 173.588Z" fill="#F2E3A5"/>
<path d="M90.5931 198.982L69.7637 202.269L74.6796 206.483L91.2953 208.351L90.874 199.109L90.5931 198.982Z" fill="#F2E3A5"/>
<path d="M111.197 226.372L117.981 212.326L124.063 209.756L122.897 227.776L111.197 226.372Z" fill="#F2E3A5"/>
<path d="M58.0488 46.5896L61.5602 77.0261L90.831 74.217L89.1876 45.4238L78.6535 42.8535L58.0488 46.5896Z" fill="url(#paint4_linear_769_1981)"/>
<path d="M184.234 95.2853L187.746 125.722L216.651 123.081L215.359 94.1195L204.825 91.5352L184.234 95.2853Z" fill="url(#paint5_linear_769_1981)"/>
<path d="M213.955 123.347L214.292 102.223L235.079 100.229L238.071 105.215L237.565 121.521L213.955 123.347Z" fill="#FF3333"/>
<path d="M229.995 86.3945L229.883 99.6113H220.978L216.82 89.2036L229.995 86.3945Z" fill="#F2E3A5"/>
<path d="M206.706 92.2363L206.931 122.912L189.852 123.375L196.874 93.6409L206.706 92.2363Z" fill="#F2E3A5"/>
<path d="M222.438 103.416L219.629 120.622L230.809 120.102L232.804 102.012L222.438 103.416Z" fill="#F2E3A5"/>
<path d="M183.756 209.756L178.615 228.478L195.694 228.956L199.683 210.219L183.756 209.756Z" fill="#F2E3A5"/>
<path d="M207.633 205.542L209.276 228.253L224.726 228.955L228.476 202.732L207.633 205.542Z" fill="#F2E3A5"/>
<path d="M32.1914 202.789L57.2906 194.854L80.0302 198.281L77.4599 240.768L36.6859 240.122L32.1914 202.789Z" fill="url(#paint6_linear_769_1981)"/>
<path opacity="0.2" d="M64.9599 196.117C64.9599 196.117 62.3474 213.758 67.7971 216.652C73.2467 219.545 74.5108 215.163 74.5108 215.163C74.5108 215.163 67.769 208.056 70.6764 196.637L64.9599 196.117Z" fill="#431F00"/>
<path d="M124.893 240.655L130.862 104.357L134.247 104.526L129.106 240.655H124.893Z" fill="#A89851"/>
<path d="M150.581 97.8262C148.544 97.8262 146.873 100.481 146.606 103.908C146.564 104.371 146.325 107.321 145.946 112.026L130.566 112.588C132.56 111.9 133.923 108.346 134.134 105.046C134.386 101.253 132.729 99.0481 130.327 99.0481C128.136 99.0481 126.17 101.647 125.65 104.989C125.144 108.346 104.189 240.612 104.919 241.722C105.649 242.817 107.124 243.351 108.304 242.565C108.557 242.396 109.582 236.427 111.057 227.157L136.83 226.848C136.1 237.003 135.693 243.562 135.861 243.815C136.606 244.938 138.01 245.472 139.064 244.671C140.103 243.871 149.008 114.835 149.204 111.787C149.415 108.739 149.71 105.298 149.879 104.062C150.089 102.447 150.37 101.548 151.016 101.197C151.297 101.352 151.255 101.731 151.424 103.922C151.522 105.158 151.606 110.973 151.508 111.759C153.404 111.197 154.612 108.318 154.612 104.849C154.612 100.972 152.814 97.8262 150.581 97.8262ZM129.161 105.144C129.499 103.571 129.85 102.686 130.58 102.335C130.875 102.489 130.805 102.854 130.833 104.989C130.861 106.169 130.58 111.647 130.412 112.588L127.925 112.672C128.347 109.723 128.895 106.352 129.161 105.144ZM127.322 116.928L145.567 116.605C145.244 120.51 144.864 125.159 144.443 130.341L125.313 130.903C126.17 124.948 126.872 120.116 127.322 116.928ZM117.771 184.332L117.419 185.119C118.094 180.54 118.768 175.919 119.442 171.34L141.156 171.031C140.819 175.259 140.482 179.486 140.145 183.686L117.771 184.332ZM139.78 188.223C139.274 194.557 138.797 200.723 138.347 206.51L114.119 207.156C115.004 201.285 115.945 194.993 116.9 188.56L139.78 188.223ZM120.06 167.098C120.833 161.803 121.591 156.62 122.307 151.662L142.729 151.367C142.336 156.269 141.929 161.34 141.507 166.466L120.06 167.098ZM122.925 147.421C123.557 143.053 124.161 138.937 124.695 135.145L144.064 134.864C143.755 138.656 143.432 142.659 143.095 146.817L122.925 147.421ZM111.717 222.943C112.265 219.404 112.869 215.527 113.487 211.384L137.996 211.075C137.687 215.078 137.406 218.856 137.153 222.311L111.717 222.943Z" fill="#A89851"/>
<g opacity="0.8">
<path d="M125.44 122.436L122.307 126.312C116.296 164.572 104.371 240.895 104.933 241.724C105.467 242.51 106.366 243.002 107.279 242.917L125.44 122.436Z" fill="#F2E3A5"/>
<path d="M146.606 103.909C146.564 104.372 146.325 107.322 145.946 112.027L133.572 112.477L132.996 116.803L145.567 116.578C145.244 120.482 144.864 125.131 144.443 130.314L131.17 130.708L130.594 135.048L144.078 134.851C143.769 138.643 143.446 142.646 143.109 146.804L128.993 147.211L128.417 151.537L142.729 151.326C142.336 156.228 141.929 161.299 141.507 166.425L126.381 166.875L125.805 171.201L141.128 170.976C140.791 175.204 140.454 179.431 140.117 183.631L124.091 184.094L123.515 188.406L139.738 188.167C139.232 194.502 138.755 200.668 138.305 206.455L121.057 206.904L120.481 211.216L137.94 210.991C137.631 214.994 137.35 218.773 137.097 222.228L118.965 222.677L118.389 227.003L136.76 226.778C136.03 236.933 135.622 243.493 135.791 243.745C136.283 244.476 137.041 244.953 137.799 244.981L147.842 99.5547C147.224 100.706 146.746 102.223 146.606 103.909Z" fill="#F2E3A5"/>
</g>
<path d="M154.668 105.172C154.668 104.778 154.64 104.399 154.611 104.02V103.95C154.274 100.593 152.575 97.8398 150.594 97.8398C148.558 97.8398 146.886 100.494 146.62 103.922C146.606 104.188 146.507 105.228 146.381 106.885L149.274 110.916C149.471 108.107 149.738 105.172 149.892 104.062C150.103 102.447 150.384 101.548 151.03 101.197C151.311 101.351 151.269 101.73 151.437 103.922V103.95H151.423L149.471 241.356L153.221 241.595L154.597 106.66C154.64 106.07 154.668 105.565 154.668 105.172Z" fill="#A89851"/>
<path d="M130.819 93.642C130.819 93.642 123.825 111.213 136.929 105.244C143.46 101.634 144.921 99.6675 144.921 99.6675L147.87 103.221C147.87 103.221 133.558 118.713 126.226 110.089C119.625 101.479 124.134 93.1504 124.134 93.1504L130.819 93.642Z" fill="#FF0303"/>
<path opacity="0.3" d="M130.819 93.642C130.819 93.642 123.825 111.213 136.929 105.244C143.46 101.634 143.615 103.6 143.615 103.6L147.87 103.221C147.87 103.221 133.558 118.713 126.226 110.089C119.625 101.479 124.134 93.1504 124.134 93.1504L130.819 93.642Z" fill="#673B00"/>
<path d="M119.737 193.251L119.625 197.704L120.903 197.577L121.381 192.549L119.737 193.251Z" fill="#A38571"/>
<path d="M130.567 125.327C125.019 109.077 132.547 100.172 131.086 94.5817C129.71 89.2726 111.886 90.1293 109.779 99.9611C105.046 110.804 111.605 136.1 113.796 143.811C115.229 158.166 119.148 193.602 119.148 193.602L121.957 193.841L124.569 139.935C129.148 135.932 151.691 117.869 138.615 161.536L141.508 161.888C141.733 161.185 161.677 117.251 130.567 125.327Z" fill="url(#paint7_linear_769_1981)"/>
<path d="M112.279 95.5098C111.057 96.7177 110.158 98.1924 109.779 99.9762C108.108 103.811 107.841 109.443 108.304 115.468C108.375 115.412 108.431 115.37 108.487 115.314C121.03 103.361 116.198 96.83 112.279 95.5098Z" fill="#7EB7C4"/>
<path d="M120.439 103.247C125.187 100.972 127.111 100.087 127.111 100.087C127.111 100.087 129.218 95.7753 128.178 92.0251C124.484 90.7189 118.15 91.2948 113.908 94.16C113.922 94.2022 113.922 94.2443 113.936 94.2864C113.936 94.2864 120.257 99.2024 120.439 103.247Z" fill="#7EB7C4"/>
<path opacity="0.3" d="M138.614 161.537L141.507 161.888C141.746 161.186 161.676 117.252 130.566 125.328C125.018 109.077 132.546 100.172 131.085 94.5821C130.215 91.2112 122.714 90.3404 116.801 92.6579V92.7141C116.801 92.7141 117.504 105.116 108.486 110.622C110.425 112.027 114.105 118.347 116.043 126.774C116.534 129.457 117.026 133.741 117.489 138.882C117.574 139.738 115.439 145.005 115.523 145.904C115.621 147.042 117.883 141.901 117.981 143.095C119.568 163.461 120.79 193.013 120.79 193.013L121.956 193.827L124.568 139.921C129.147 135.932 151.69 117.87 138.614 161.537Z" fill="#673B00"/>
<path d="M57.2908 194.854L33.9473 203.899L36.6861 240.122L56.9677 240.445L57.2908 194.854Z" fill="#F2E3A5"/>
<path opacity="0.4" d="M35.8164 205.541L44.2437 219.347L38.162 237.845L45.887 221.229L54.1457 237.55L47.5163 218.645L54.0755 199.684L45.6482 216.313L35.8164 205.541Z" fill="#12263F"/>
<path d="M121.142 204.375C122.083 195.835 119.738 196.537 118.797 196.537C117.855 196.537 119.85 200.049 119.148 204.262C119.148 208.139 123.361 206.833 124.302 206.833C125.243 206.833 123.361 206.594 121.142 204.375Z" fill="#431F00"/>
<path d="M119.134 196.51C119.134 196.51 115.988 196.44 118.249 199.712L119.612 199.782L119.134 196.51Z" fill="#431F00"/>
<path d="M137.168 165.398C137.168 165.398 136.409 168.446 140.103 166.957L140.468 165.637L137.168 165.398Z" fill="#431F00"/>
<path d="M139.134 161.706L138.516 164.079L139.667 164.866L140.805 161.537L139.134 161.706Z" fill="#A38571"/>
<path d="M148.179 167.674C148.235 167.21 145.889 166.34 142.729 165.483C139.485 164.612 138.319 163.362 138.249 163.811C138.193 164.275 135.44 166.003 138.684 166.452C141.943 166.887 148.109 168.137 148.179 167.674Z" fill="#431F00"/>
<path d="M118.318 92.9951L118.094 80.6211L124.063 85.9303C124.063 85.9303 125.173 88.3601 126.058 92.335C124.063 98.0796 118.318 92.9951 118.318 92.9951Z" fill="#FFB38A"/>
<path opacity="0.3" d="M126.058 92.3349C125.173 88.3601 124.064 85.9302 124.064 85.9302L121.311 83.4863L118.207 83.711L118.15 83.8094L118.235 88.7253L122.926 95.0738C124.162 95.0317 125.342 94.3715 126.058 92.3349Z" fill="#673B00"/>
<path d="M118.15 78.4019C117.433 76.5338 115.72 75.4523 114.343 75.972C112.953 76.5057 112.405 78.4581 113.121 80.3261C113.838 82.1942 115.551 83.2757 116.928 82.756C118.332 82.2222 118.866 80.2699 118.15 78.4019Z" fill="#E59673"/>
<path opacity="0.3" d="M118.557 78.4713C117.967 76.9263 116.422 76.0977 115.102 76.6033C113.782 77.1089 113.192 78.7663 113.782 80.2973C114.371 81.8282 115.916 82.6709 117.237 82.1653C118.557 81.6737 119.147 80.0163 118.557 78.4713Z" fill="#673B00"/>
<path d="M134.57 78.6975C134.528 78.3182 134.457 77.939 134.345 77.5598C132.716 72.1101 132.027 64.8486 127.266 65.0312C113.881 61.9272 115.945 72.8967 116.156 78.5711C116.226 80.72 116.858 82.6864 117.856 84.3016C119.035 87.532 122.87 89.8215 127.336 89.6529C132.631 89.4563 136.789 85.9168 136.648 81.7453C136.578 80.0599 135.792 79.2452 134.57 78.6975Z" fill="#E59673"/>
<path d="M134.302 77.5593C133.137 73.1771 132.476 65.9156 128.08 65.8594C115.453 62.4464 116.942 72.4748 116.9 77.6295C116.886 79.5818 117.392 81.3937 118.276 82.8965C119.26 85.8742 122.813 88.1215 127.083 88.1776C132.139 88.2479 136.269 85.2281 136.297 81.4358C136.311 79.9049 135.595 78.7812 134.302 77.5593Z" fill="#FFB38A"/>
<path d="M118.151 74.2724C118.151 74.2724 118.32 79.4552 118.502 80.2417C118.671 81.0282 117.449 82.18 117.449 82.18C117.449 82.18 115.777 75.7752 115.426 73.9212C115.089 72.0813 118.151 74.2724 118.151 74.2724Z" fill="#4C3F32"/>
<path d="M115.988 75.9712L123.488 68.0074L132.14 67.7827L129.219 59.6504L118.039 60.8723L112.477 68.5973L115.988 75.9712Z" fill="#7EB7C4"/>
<path d="M118.039 60.8723L120.848 67.1928L131.916 67.0243L129.219 59.6504L118.039 60.8723Z" fill="#4A7C84"/>
<path d="M127.925 63.3878C127.925 62.4749 126.619 61.7305 124.99 61.7305C123.375 61.7305 122.068 62.4749 122.068 63.4019C122.068 64.3148 123.375 65.0592 124.99 65.0592C126.619 65.0592 127.925 64.3008 127.925 63.3878Z" fill="#7EB7C4"/>
<path d="M132.139 69.2437L134.709 67.1369C134.639 65.0442 133.066 63.3025 131.001 63.0216L129.569 62.825C127.813 62.5862 126.015 62.8671 124.4 63.6256L124.119 63.752C122.701 64.4262 121.521 65.5217 120.748 66.8701L115.748 75.5502L116.155 75.9013L124.175 68.7662L132.139 69.2437Z" fill="#7EB7C4"/>
<path d="M132.617 69.652L135.187 67.5451C135.117 65.4524 133.544 63.7107 131.479 63.4298L130.047 63.2332C128.291 62.9944 126.493 63.2753 124.878 64.0338L124.429 64.2445C123.108 64.8765 121.999 65.8597 121.226 67.0816L115.805 75.6213L116.043 76.0286C116.043 76.0286 124.639 69.1744 124.639 69.1885L132.617 69.652Z" fill="#4A7C84"/>
<path d="M126.479 74.2441C125.777 74.6374 126.114 76.7864 127.167 78.8932C128.445 81.1405 130.608 80.7612 131.31 80.368C133.277 76.5336 129.527 79.1881 126.479 74.2441Z" fill="#EA5D49"/>
<path d="M123.782 76.7019C123.585 75.9716 123.15 75.4659 122.813 75.5502C122.462 75.6485 122.349 76.3086 122.532 77.039C122.728 77.7694 123.164 78.275 123.501 78.1907C123.852 78.0924 123.979 77.4323 123.782 76.7019Z" fill="#4C3F32"/>
<path d="M131.016 75.1004C130.82 74.37 130.384 73.8643 130.047 73.9486C129.696 74.0469 129.584 74.7071 129.766 75.4374C129.963 76.1678 130.398 76.6734 130.735 76.5892C131.086 76.4909 131.199 75.8307 131.016 75.1004Z" fill="#4C3F32"/>
<path d="M132.098 81.7862C131.592 82.9379 130.412 83.8228 129.064 83.9492C128.109 84.0335 127.266 83.7104 126.704 83.1205L126.143 83.261C126.718 84.0756 127.8 84.5672 129.064 84.4548C130.778 84.3003 132.238 83.1065 132.575 81.6738L132.098 81.7862Z" fill="#4C3F32"/>
<path d="M120.327 75.7326C120.327 75.7326 123.136 73.3308 123.543 73.3308C123.95 73.3308 123.374 71.9824 123.374 71.9824C123.374 71.9824 119.807 74.1454 119.807 74.3842C119.793 74.623 120.327 75.7326 120.327 75.7326Z" fill="#4C3F32"/>
<path d="M128.685 72.4049C128.685 72.4049 130.792 71.9976 131.607 72.8684C132.421 73.7393 131.55 71.169 131.55 71.169C131.55 71.169 128.741 70.579 128.446 70.7616C128.151 70.9442 128.685 72.4049 128.685 72.4049Z" fill="#4C3F32"/>
<path d="M130.371 79.4691C130.595 79.1601 130.441 78.6405 130.005 78.3174C129.584 77.9944 129.05 77.9663 128.812 78.2753C128.587 78.5843 128.741 79.1039 129.177 79.427C129.598 79.7641 130.132 79.7781 130.371 79.4691Z" fill="#FFB38A"/>
<path d="M110.258 134.148L128.039 119.625L130.146 121.971L112.126 138.362L110.258 134.148Z" fill="#673B00"/>
<path opacity="0.3" d="M111.184 137.181L125.468 123.613L128.038 127.125L113.29 140.468L111.184 137.181Z" fill="#431F00"/>
<path d="M114.484 104.975L126.283 97.0957L139.527 101.267L138.151 122.911L127.799 132.827L118.122 127.631L114.484 104.975Z" fill="url(#paint8_linear_769_1981)"/>
<path d="M114.611 105.789L118.123 127.63L127.8 132.827L128.278 110.031L114.611 105.789Z" fill="url(#paint9_linear_769_1981)"/>
<path opacity="0.3" d="M115.061 106.281L120.44 116.942L118.684 127.476L121.732 118.22L127.112 131.338L122.547 117.166L126.297 110.621L121.381 116.239L115.061 106.281Z" fill="#673B00"/>
<path d="M110.65 97.5318C110.65 97.5318 96.8855 126.311 114.821 126.058C118.656 125.96 124.401 123.235 124.401 123.235L123.263 118.193C123.263 118.193 109.906 124.12 110.959 116.044C113.066 105.889 114.934 102.996 114.934 102.996C114.934 102.996 115.72 94.0767 110.65 97.5318Z" fill="#7EB7C4"/>
<path d="M127.799 132.828L137.42 122.729L138.389 116.1L138.305 122.813L127.799 132.828Z" fill="url(#paint10_linear_769_1981)"/>
<path opacity="0.8" d="M116.339 129.457L116.803 134.148L112.126 138.362L110.258 134.148L116.339 129.457Z" fill="#F2E3A5"/>
<path d="M115.523 145.905L119.386 139.416L117.799 136.424L115.523 145.905Z" fill="#77A3BC"/>
<path opacity="0.7" d="M64.9594 196.117C64.9594 196.117 62.3188 216.132 73.7378 215.612C73.7378 215.612 75.1423 212.269 77.6003 212.269C77.6003 212.269 67.937 213.323 70.409 196.988L64.9594 196.117Z" fill="#F2E3A5"/>
<path opacity="0.4" d="M62.502 93.0645L78.1907 113.304L71.2804 133.094L80.0588 114.835L94.8065 131.338L82.8679 111.675L90.944 89.9043L79.3565 110.972L62.502 93.0645Z" fill="#12263F"/>
<path opacity="0.2" d="M66.0137 166.102L75.1432 175.232L69.8762 186.468L77.6012 177.339L86.3796 184.01L78.6546 173.827L86.7307 161.889L76.8989 172.072L66.0137 166.102Z" fill="#431F00"/>
<path d="M79.5949 44.2578L82.404 73.978L62.5016 75.6213L58.9902 47.9939L79.5949 44.2578Z" fill="#F2E3A5"/>
<path d="M61.0977 48.9347L68.3592 60.6346L63.668 73.0507L70.2272 62.5167L80.5225 72.1097L72.334 60.4098L78.6545 45.6621L70.6907 57.6007L61.0977 48.9347Z" fill="url(#paint11_linear_769_1981)"/>
<path opacity="0.2" d="M185.752 96.225L195.05 110.088L189.263 123.965L196.806 111.844L206.286 122.56L198.21 109.919L206.286 93.9355L196.103 107.461L185.752 96.225Z" fill="#431F00"/>
<path opacity="0.2" d="M208.574 206.483L214.895 217.017L209.979 226.848L217.001 218.646L226.37 227.551L218.645 216.076L228.477 202.732L217.001 213.73L208.574 206.483Z" fill="#431F00"/>
<path d="M214.896 103.951L221.034 110.622L215.599 119.921L222.621 112.378L230.108 120.103L224.546 110.974L231.4 102.715L222.79 109.569L214.896 103.951Z" fill="#282B2E"/>
<path d="M87.8962 74.5674L86.7305 62.39L99.1326 60.2832L104.99 63.3311V73.2753L87.8962 74.5674Z" fill="#282B2E"/>
<g opacity="0.7">
<path d="M98.3028 71.0417L98.5696 70.9996L98.05 62.2773L96.0977 66.9545L98.3028 71.0417Z" fill="#F2E3A5"/>
<path d="M93.1638 64.9747L98.0375 62.0532L98.0235 61.8145L90.6777 63.0645L93.1638 64.9747Z" fill="#F2E3A5"/>
<path d="M91.7577 67.1945L90.4234 65.5371L89.7773 72.1104L91.7577 67.1945Z" fill="#F2E3A5"/>
<path d="M93.8653 68.8379L89.7641 72.3212L89.75 72.4616L97.7981 71.1273L93.8653 68.8379Z" fill="#F2E3A5"/>
</g>
<path d="M195.231 177.337L192.773 146.788L220.162 142.926L232.101 149.949L231.75 175.23L195.231 177.337Z" fill="#FF0000"/>
<path d="M218.828 144.682L220.092 174.627L196.454 175.582L194.234 148.151L218.828 144.682Z" fill="#F2E3A5"/>
<path d="M194.881 148.895L202.957 159.893L196.454 175.581L205.064 162.238L220.092 174.626L207.409 160.131L218.407 146.086L204.713 158.025L194.881 148.895Z" fill="#6F7173"/>
<path opacity="0.3" d="M116.043 76.0276L127.715 78.6682C127.715 78.6682 134.822 78.4013 134.344 77.5586C133.572 74.9602 133.249 71.9404 132.111 69.5386C128.74 69.3701 124.653 69.1875 124.653 69.1875L116.043 76.0276Z" fill="#673B00"/>
<path d="M139.527 101.267L126.283 97.0957L114.484 104.975L128.277 110.032L139.527 101.267Z" fill="#F2E3A5"/>
<path opacity="0.3" d="M128.276 110.032L127.799 132.828L138.15 122.912L138.81 103.01L128.276 110.032Z" fill="#431F00"/>
<path d="M136.62 124.387L127.8 132.828L118.122 127.632L117.869 125.721L124.302 123.376L123.249 118.348L116.816 120.216L114.625 105.791L114.499 104.99L126.297 97.1108L131.03 98.5996C131.311 97.0968 131.409 95.7625 131.114 94.5967C130.679 92.9112 128.586 91.8578 125.875 91.5067C125.707 90.8044 125.524 90.1443 125.356 89.5684C126.002 89.6527 126.662 89.7089 127.336 89.6808C132.631 89.4841 136.789 85.9447 136.648 81.7732C136.592 80.1018 135.806 79.2731 134.584 78.7253C134.541 78.3461 134.471 77.9669 134.359 77.5876C133.586 75.0173 133.025 72.0537 132.154 69.652L132.631 69.6801L135.202 67.5732C135.131 65.4805 133.558 63.7388 131.494 63.4579L130.553 63.3315L129.232 59.6797L118.052 60.9157L112.49 68.6407L115.833 75.6494V75.6634L115.889 75.7477L116.015 76.0145L116.029 76.0005C116.029 76.0286 116.029 76.0567 116.029 76.0848C115.482 75.8601 114.892 75.8179 114.358 76.0286C112.968 76.5623 112.42 78.5146 113.136 80.3827C113.852 82.2507 115.566 83.3322 116.942 82.8125C116.985 82.7985 117.013 82.7704 117.055 82.7564C117.294 83.3182 117.546 83.866 117.855 84.3576C117.94 84.5963 118.066 84.807 118.178 85.0317L118.305 92.209C115.173 93.136 112.279 94.8776 110.748 97.5462C110.706 97.5743 110.678 97.5743 110.65 97.6024C110.65 97.6024 100.116 119.654 109.498 124.977C110.833 132.927 112.785 140.301 113.81 143.868C115.243 158.223 119.162 193.659 119.162 193.659L121.971 193.898L124.583 139.992C129.162 135.989 151.705 117.926 138.629 161.594L141.522 161.945C141.719 161.242 158.812 123.53 136.62 124.387Z" fill="url(#paint12_linear_769_1981)"/>
<path d="M123.6 119.569L129.92 116.76C129.92 116.76 132.729 117.294 132.561 118.333C132.392 119.372 128.516 120.524 128.516 120.524L123.951 120.791L123.6 119.569Z" fill="#FFB38A"/>
<path d="M146.607 99.9615L150.933 98.7677C150.933 98.7677 152.927 98.3042 152.394 97.5317C151.86 96.7732 148.292 97.0682 148.292 97.0682L146.48 98.8519L146.607 99.9615Z" fill="#FFB38A"/>
<path d="M132.659 112.041C132.448 111.929 131.423 113.418 130.384 115.37C129.344 117.322 128.67 119.008 128.895 119.12C129.105 119.232 130.131 117.744 131.17 115.791C132.21 113.839 132.884 112.168 132.659 112.041Z" fill="#FFB38A"/>
<path d="M134.204 111.745C133.98 111.647 133.081 113.135 132.21 115.074C131.339 117.012 130.819 118.669 131.058 118.768C131.283 118.866 132.182 117.377 133.053 115.439C133.909 113.501 134.443 111.857 134.204 111.745Z" fill="#FFB38A"/>
<path d="M135.187 112.911C135.005 112.813 134.148 114.133 133.249 115.833C132.364 117.546 131.774 119.007 131.957 119.091C132.126 119.176 132.996 117.869 133.895 116.17C134.78 114.456 135.37 112.996 135.187 112.911Z" fill="#FFB38A"/>
<path d="M127.252 117.926C127.252 117.926 128.39 116.704 128.544 116.24C128.699 115.777 128.825 114.302 128.614 113.53C128.432 112.869 129.26 112.926 129.387 113.445C129.513 113.951 129.682 115.257 129.471 116.17C129.345 116.746 129.204 117.476 128.741 118.151C128.291 118.811 127.252 117.926 127.252 117.926Z" fill="#FFB38A"/>
<path d="M153.068 101.071C153.307 101.057 153.124 99.8212 153.307 98.4026C153.461 97.1526 151.2 97.1526 150.947 97.1666C150.708 97.1807 152.562 97.6863 152.646 98.9364C152.731 100.186 152.815 101.085 153.068 101.071Z" fill="#FFB38A"/>
<path d="M152.561 101.999C152.8 101.957 152.687 100.44 152.392 98.979C152.097 97.5042 150.594 97.7851 150.342 97.8413C150.089 97.8834 151.451 97.9256 151.746 99.3863C152.041 100.847 152.322 102.041 152.561 101.999Z" fill="#FFB38A"/>
<path d="M151.943 103.137C152.182 103.052 151.929 101.648 151.395 99.9904C150.861 98.333 149.26 98.024 149.035 98.1083C148.811 98.1925 150.019 98.6139 150.552 100.285C151.086 101.929 151.718 103.207 151.943 103.137Z" fill="#FFB38A"/>
<path d="M147.014 99.4972C147.014 99.4972 148.264 100.382 148.46 100.747C148.657 101.112 148.966 102.32 148.854 102.994C148.755 103.57 149.556 103.416 149.612 102.98C149.668 102.545 149.668 101.435 149.373 100.705C149.177 100.242 148.952 99.6376 148.432 99.146C147.884 98.6404 147.014 99.4972 147.014 99.4972Z" fill="#FFB38A"/>
<path d="M146.776 101.956L147.534 99.6803L146.481 98.8516L145.666 100.551L146.776 101.956Z" fill="#FFB38A"/>
<defs>
<linearGradient id="paint0_linear_769_1981" x1="59.6908" y1="111.846" x2="104.987" y2="111.846" gradientUnits="userSpaceOnUse">
<stop stop-color="#EAD67F"/>
<stop offset="0.9946" stop-color="#EAB57D"/>
</linearGradient>
<linearGradient id="paint1_linear_769_1981" x1="62.9085" y1="173.589" x2="96.6176" y2="173.589" gradientUnits="userSpaceOnUse">
<stop stop-color="#EAD67F"/>
<stop offset="0.9946" stop-color="#EAB57D"/>
</linearGradient>
<linearGradient id="paint2_linear_769_1981" x1="105.573" y1="216.31" x2="136.004" y2="216.31" gradientUnits="userSpaceOnUse">
<stop stop-color="#EAD67F"/>
<stop offset="0.9946" stop-color="#EAB57D"/>
</linearGradient>
<linearGradient id="paint3_linear_769_1981" x1="205.53" y1="216.31" x2="235.961" y2="216.31" gradientUnits="userSpaceOnUse">
<stop stop-color="#EAD67F"/>
<stop offset="0.9946" stop-color="#EAB57D"/>
</linearGradient>
<linearGradient id="paint4_linear_769_1981" x1="58.0519" y1="59.9377" x2="90.8242" y2="59.9377" gradientUnits="userSpaceOnUse">
<stop stop-color="#EAD67F"/>
<stop offset="0.9946" stop-color="#EAB57D"/>
</linearGradient>
<linearGradient id="paint5_linear_769_1981" x1="184.228" y1="108.628" x2="216.649" y2="108.628" gradientUnits="userSpaceOnUse">
<stop stop-color="#EAD67F"/>
<stop offset="0.9946" stop-color="#EAB57D"/>
</linearGradient>
<linearGradient id="paint6_linear_769_1981" x1="32.1847" y1="217.81" x2="80.0365" y2="217.81" gradientUnits="userSpaceOnUse">
<stop stop-color="#EAD67F"/>
<stop offset="0.9946" stop-color="#EAB57D"/>
</linearGradient>
<linearGradient id="paint7_linear_769_1981" x1="149.004" y1="197.568" x2="111.081" y2="112.594" gradientUnits="userSpaceOnUse">
<stop stop-color="#597B84"/>
<stop offset="1" stop-color="#599ABF"/>
</linearGradient>
<linearGradient id="paint8_linear_769_1981" x1="153.175" y1="120.348" x2="107.177" y2="110.867" gradientUnits="userSpaceOnUse">
<stop stop-color="#AF506D"/>
<stop offset="0.9946" stop-color="#FF8C68"/>
</linearGradient>
<linearGradient id="paint9_linear_769_1981" x1="152.082" y1="125.666" x2="106.081" y2="116.185" gradientUnits="userSpaceOnUse">
<stop stop-color="#AF506D"/>
<stop offset="0.9946" stop-color="#FF6445"/>
</linearGradient>
<linearGradient id="paint10_linear_769_1981" x1="127.803" y1="124.464" x2="138.388" y2="124.464" gradientUnits="userSpaceOnUse">
<stop stop-color="#AF506D"/>
<stop offset="0.9946" stop-color="#FF6445"/>
</linearGradient>
<linearGradient id="paint11_linear_769_1981" x1="61.0965" y1="59.3518" x2="80.5256" y2="59.3518" gradientUnits="userSpaceOnUse">
<stop stop-color="#EAD67F"/>
<stop offset="0.9946" stop-color="#EAB57D"/>
</linearGradient>
<linearGradient id="paint12_linear_769_1981" x1="101.999" y1="91.2224" x2="144.837" y2="157.235" gradientUnits="userSpaceOnUse">
<stop stop-color="#FFFCE9"/>
<stop offset="1" stop-color="#FF0000"/>
</linearGradient>
</defs>
</svg>
