<svg width="64" height="82" viewBox="0 0 64 82" fill="none" xmlns="http://www.w3.org/2000/svg">
<rect width="82" height="82" rx="41" fill="#EAEAEA"/>
<g clip-path="url(#clip0_1300_8895)">
<path d="M15.2891 41.9922V63.6146H66.6989V41.9922H15.2891ZM33.0692 59.3121H23.839V54.4583H33.0692V59.3121ZM33.0692 51.1486H23.839V46.2948H33.0692V51.1486ZM45.6091 59.3121H36.3789V54.4583H45.6091V59.3121ZM45.6091 51.1486H36.3789V46.2948H45.6091V51.1486ZM58.1489 59.3121H48.9187V54.4583H58.1489V59.3121ZM58.1489 51.1486H48.9187V46.2948H58.1489V51.1486Z" fill="#FF0000"/>
<path d="M59.3443 18.3848H22.6624L13.1484 35.2705V38.6832H68.8584V35.2705L59.3443 18.3848Z" fill="#FF0000"/>
</g>
<defs>
<clipPath id="clip0_1300_8895">
<rect width="55.7099" height="55.7099" fill="white" transform="translate(13.1445 13.1445)"/>
</clipPath>
</defs>
</svg>
