<svg width="82" height="82" viewBox="0 0 82 82" fill="none" xmlns="http://www.w3.org/2000/svg">
<rect width="82" height="82" rx="41" fill="#EAEAEA"/>
<g clip-path="url(#clip0_1300_8874)">
<path d="M61.8918 65.3719C61.8918 66.3329 61.1119 67.1128 60.1509 67.1128H46.2234V54.0558C46.2234 53.5744 45.8343 53.1853 45.3529 53.1853H36.6483C36.1669 53.1853 35.7778 53.5744 35.7778 54.0558V67.1128H21.8503C20.8893 67.1128 20.1094 66.3329 20.1094 65.3719V40.4861L41.0084 19.5879L61.8918 40.4713V65.3719Z" fill="#FF0000"/>
<path d="M25.332 18.3672H28.8139V24.1131L25.332 27.5881V18.3672Z" fill="#FF0000"/>
<path d="M44.4794 54.9277H37.5156V67.1143H44.4794V54.9277Z" fill="#F9EBB2"/>
<path d="M66.2443 41.8693C66.0041 41.8693 65.7203 41.8379 65.5636 41.6804L41.624 17.7408C41.4543 17.571 41.2314 17.4857 41.0086 17.4857C40.7857 17.4857 40.5629 17.571 40.3932 17.7408L16.4457 41.6891C16.2882 41.8466 15.9974 41.8693 15.7572 41.8693C15.2758 41.8693 14.8867 41.4802 14.8867 40.9988C14.8867 40.7585 14.9006 40.4574 15.0582 40.2998L40.1607 15.2417C40.1607 15.2417 40.4854 14.8848 41.0086 14.8848C41.5317 14.8848 41.8634 15.2312 41.8634 15.2312L66.9381 40.305C67.0956 40.4626 67.1148 40.7585 67.1148 40.9988C67.1148 41.4793 66.7257 41.8693 66.2443 41.8693Z" fill="#FF0000"/>
<path d="M68.1677 39.0749L43.1217 14.0281C43.1217 14.0281 42.3061 13.1445 41.0065 13.1445C39.7068 13.1445 38.9382 14.0072 38.9382 14.0072L30.5539 22.375V17.4969C30.5539 17.0155 30.1648 16.6264 29.6834 16.6264H24.4606C23.9792 16.6264 23.5901 17.0155 23.5901 17.4969V29.3257L13.8261 39.0697C13.3534 39.5423 13.1445 40.2787 13.1445 40.9995C13.1445 42.441 14.3136 43.6109 15.7559 43.6109C16.4767 43.6109 17.2027 43.3924 17.6753 42.9197L18.3673 42.2277V65.3726C18.3673 67.2972 19.9246 68.8545 21.8492 68.8545H60.1498C62.0744 68.8545 63.6316 67.2972 63.6316 65.3726V42.2129L64.3315 42.9128C64.8042 43.3837 65.5223 43.6109 66.243 43.6109C67.6854 43.6109 68.8545 42.4419 68.8545 40.9995C68.8545 40.2779 68.6403 39.5476 68.1677 39.0749ZM25.3311 18.3673H28.8129V24.1133L25.3311 27.5882V18.3673ZM44.4814 67.1135H37.5176V54.927H44.4814V67.1135ZM61.8907 65.3726C61.8907 66.3336 61.1108 67.1135 60.1498 67.1135H46.2223V54.0565C46.2223 53.5751 45.8332 53.186 45.3518 53.186H36.6472C36.1658 53.186 35.7767 53.5751 35.7767 54.0565V67.1135H21.8492C20.8882 67.1135 20.1083 66.3336 20.1083 65.3726V40.4868L41.0073 19.5886L61.8907 40.472V65.3726ZM66.243 41.87C66.0028 41.87 65.719 41.8386 65.5623 41.6811L41.6227 17.7415C41.453 17.5717 41.2302 17.4864 41.0073 17.4864C40.7845 17.4864 40.5616 17.5717 40.3919 17.7415L16.4445 41.6898C16.2869 41.8473 15.9962 41.87 15.7559 41.87C15.2746 41.87 14.8855 41.4809 14.8855 40.9995C14.8855 40.7592 14.8994 40.4581 15.0569 40.3005L40.1595 15.2424C40.1595 15.2424 40.4842 14.8855 41.0073 14.8855C41.5305 14.8855 41.8621 15.2319 41.8621 15.2319L66.9368 40.3057C67.0944 40.4633 67.1135 40.7592 67.1135 40.9995C67.1135 41.48 66.7244 41.87 66.243 41.87Z" fill="#FF0000"/>
<path d="M33.1662 41H26.2025C25.7211 41 25.332 41.3891 25.332 41.8705V48.8342C25.332 49.3156 25.7211 49.7047 26.2025 49.7047H33.1662C33.6476 49.7047 34.0367 49.3156 34.0367 48.8342V41.8705C34.0367 41.3891 33.6476 41 33.1662 41ZM32.2958 47.9637H27.073V42.7409H32.2958V47.9637Z" fill="#FF0000"/>
<path d="M48.8353 49.7047H55.7991C56.2804 49.7047 56.6695 49.3156 56.6695 48.8342V41.8705C56.6695 41.3891 56.2804 41 55.7991 41H48.8353C48.3539 41 47.9648 41.3891 47.9648 41.8705V48.8342C47.9648 49.3156 48.3539 49.7047 48.8353 49.7047ZM49.7058 42.7409H54.9286V47.9637H49.7058V42.7409Z" fill="#FF0000"/>
<path d="M44.4794 54.9277H37.5156V67.1143H44.4794V54.9277Z" fill="#FFE6E6"/>
<path d="M32.2931 42.7402H27.0703V47.963H32.2931V42.7402Z" fill="#FF0000"/>
<path d="M54.9259 42.7402H49.7031V47.963H54.9259V42.7402Z" fill="#FF0000"/>
</g>
<defs>
<clipPath id="clip0_1300_8874">
<rect width="55.7099" height="55.7099" fill="white" transform="translate(13.1445 13.1445)"/>
</clipPath>
</defs>
</svg>
