<svg width="34" height="26" viewBox="0 0 34 26" fill="none" xmlns="http://www.w3.org/2000/svg">
<path d="M17.3155 25.0607C23.9467 25.0607 29.3224 19.685 29.3224 13.0538C29.3224 6.42254 23.9467 1.04688 17.3155 1.04688C10.6843 1.04688 5.30859 6.42254 5.30859 13.0538C5.30859 19.685 10.6843 25.0607 17.3155 25.0607Z" fill="#FF3333"/>
<path d="M28.7846 9.49414H26.898L26.5448 10.6828L25.1757 11.0304C25.1757 11.0304 24.3366 11.8312 24.5576 12.1401C24.7783 12.4494 23.5859 13.8691 23.5859 13.8691L21.9078 13.465C21.9078 13.465 21.7754 13.8182 21.9078 14.2599C22.0403 14.7016 21.7899 15.0538 21.849 15.6725C21.9078 16.2912 21.2897 15.7612 21.0689 16.4679C20.8482 17.1746 19.3906 17.3071 19.3906 17.837C19.3906 18.367 19.3906 18.7644 19.3906 18.7644C19.3906 18.7644 19.6113 18.7644 20.8037 18.7644C21.9961 18.7644 23.5417 18.7644 23.5417 18.7644C23.5417 18.7644 25.0433 18.4552 25.1757 18.7644C25.3082 19.0736 26.0711 18.8087 25.8662 19.5593C25.6627 20.3049 26.1153 21.2008 26.1217 21.2127C28.1066 19.071 29.3217 16.2053 29.3217 13.0548C29.3217 11.815 29.1336 10.6192 28.7846 9.49414Z" fill="#A1C8E4"/>
<path d="M9.61412 10.0853C10.0489 9.35659 10.2392 8.29671 10.8022 8.55082C11.3653 8.80493 10.9331 9.72093 11.9284 10.0853C12.9236 10.4496 12.5908 12.6687 13.1271 12.6687C13.6631 12.6687 14.8762 14.0267 15.0733 13.705C15.2704 13.3834 16.3004 13.4636 16.201 12.8675C16.1017 12.2713 17.3603 11.5426 16.9297 11.2776C16.4991 11.0127 15.9361 10.4827 15.7042 10.284C15.4724 10.0853 15.7042 9.29036 15.9361 8.55082C16.1679 7.81129 15.8367 7.5018 15.4061 7.27684C14.9755 7.05188 15.1743 6.34255 15.2074 6.21007C15.2405 6.07758 15.1743 5.54764 14.6443 5.0177C14.1144 4.48775 14.6443 3.52724 14.6443 3.09666C14.6443 2.66714 13.1353 1.80333 13.1276 1.79883C9.17293 3.27127 6.20632 6.76809 5.48242 11.0296C5.50998 11.0365 7.62445 11.5755 7.92307 11.5426C8.22381 11.5095 9.1793 10.8139 9.61412 10.0853Z" fill="#A1C8E4"/>
<path d="M20.9707 3.99149C20.6063 4.09085 20.2751 5.41571 20.0102 5.87941C19.7452 6.3431 19.6127 6.90617 20.1095 7.78349C20.6063 8.66081 19.6127 9.1253 18.884 9.84284C18.1554 10.5604 17.9694 10.572 17.9898 11.0296C18.0229 11.7747 18.7515 11.3113 19.1821 11.51C19.6127 11.7088 19.9439 11.4107 20.0764 10.682C20.2089 9.95333 20.9044 9.82085 21.335 9.84284C21.7656 9.86483 22.5274 9.85397 23.2892 9.15842C24.051 8.46287 23.521 7.83357 23.8854 7.46923C24.2497 7.1049 25.0777 7.2705 25.8676 7.19021C26.3854 7.13748 26.9365 6.64888 27.2558 6.31741C26.0788 4.58423 24.4603 3.17538 22.5621 2.25195C22.348 2.42206 22.1132 2.6767 21.7987 2.86536C21.3019 3.16345 21.335 3.89212 20.9707 3.99149Z" fill="#A1C8E4"/>
<path d="M15.0124 15.6718C15.0124 11.2934 11.4631 7.74414 7.08469 7.74414C6.89974 7.74414 6.71691 7.75289 6.53541 7.76534C5.75083 9.36126 5.30859 11.1556 5.30859 13.0542C5.30859 17.1119 7.32343 20.697 10.4053 22.8703C13.1244 21.6138 15.0124 18.8642 15.0124 15.6718Z" fill="#1591E0"/>
<path d="M15.0124 15.6718C15.0124 11.2934 11.4631 7.74414 7.08469 7.74414C6.89974 7.74414 6.71691 7.75289 6.53541 7.76534C5.75083 9.36126 5.30859 11.1556 5.30859 13.0542C5.30859 17.1119 7.32343 20.697 10.4053 22.8703C13.1244 21.6138 15.0124 18.8642 15.0124 15.6718Z" fill="#FF8A8A"/>
<path d="M20.382 1.44336L17.0195 6.91183H27.6343L25.4859 1.74463L20.683 1.52656L20.382 1.44336Z" fill="#1591E0"/>
<path d="M7.08533 22.7566C10.9984 22.7566 14.1706 19.5844 14.1706 15.6713C14.1706 11.7581 10.9984 8.58594 7.08533 8.58594C3.17221 8.58594 0 11.7581 0 15.6713C0 19.5844 3.17221 22.7566 7.08533 22.7566Z" fill="#363C50"/>
<path d="M7.08469 21.5014C10.3039 21.5014 12.9135 18.8917 12.9135 15.6726C12.9135 12.4534 10.3039 9.84375 7.08469 9.84375C3.86552 9.84375 1.25586 12.4534 1.25586 15.6726C1.25586 18.8917 3.86552 21.5014 7.08469 21.5014Z" fill="white"/>
<path d="M8.44718 7.7832H5.72461V9.31897H8.44718V7.7832Z" fill="#363C50"/>
<path d="M7.08458 3.56055C6.0822 3.56055 5.26953 4.37321 5.26953 5.37559C5.26953 6.37798 6.0822 7.19064 7.08458 7.19064C8.08697 7.19064 8.89964 6.37798 8.89964 5.37559C8.89964 4.37321 8.08697 3.56055 7.08458 3.56055ZM7.08458 6.57432C6.42269 6.57432 5.88612 6.03776 5.88612 5.37586C5.88612 4.71396 6.42269 4.17713 7.08458 4.17713C7.74648 4.17713 8.28304 4.7137 8.28304 5.37586C8.28304 6.03749 7.74648 6.57432 7.08458 6.57432Z" fill="#363C50"/>
<path d="M7.48646 6.77148H6.68359V7.78367H7.48646V6.77148Z" fill="#363C50"/>
<path d="M6.68502 11.0293C6.68502 11.0293 7.89673 16.7068 6.68502 16.7068C5.47331 16.7068 6.68502 11.0293 6.68502 11.0293Z" fill="#363C50"/>
<path d="M9.61429 13.7051C9.61429 13.7051 7.12304 17.5053 6.33395 16.5856C5.54487 15.6659 9.61429 13.7051 9.61429 13.7051Z" fill="#363C50"/>
<path d="M17.7344 6.57393H33.9996V0H21.5738L17.7344 6.57393Z" fill="#282B2E"/>
<path d="M24.8947 4.87401H22.6226V4.31703L23.387 3.54411C23.6056 3.31571 23.7482 3.15964 23.8155 3.07591C23.8825 2.99271 23.9292 2.92063 23.9557 2.86075C23.9822 2.8006 23.9952 2.7378 23.9952 2.67209C23.9952 2.59074 23.9687 2.52636 23.9159 2.47919C23.8629 2.43203 23.7887 2.40844 23.6931 2.40844C23.5945 2.40844 23.4949 2.43653 23.3942 2.49297C23.2935 2.54941 23.1796 2.63261 23.0526 2.74231L22.5879 2.19832C22.7493 2.05418 22.8849 1.95084 22.9949 1.88884C23.1049 1.82683 23.2244 1.77941 23.3537 1.74655C23.483 1.7137 23.6282 1.69727 23.7895 1.69727C23.9925 1.69727 24.1732 1.73303 24.3325 1.80404C24.4917 1.87559 24.6152 1.97734 24.7029 2.10929C24.7906 2.24125 24.8346 2.38963 24.8346 2.55365C24.8346 2.6766 24.8192 2.79001 24.7885 2.89414C24.7577 2.99827 24.7103 3.10082 24.6462 3.20151C24.5818 3.30219 24.4967 3.40791 24.3902 3.51947C24.284 3.63075 24.0572 3.84221 23.7103 4.15328V4.17474H24.8947V4.87401Z" fill="white"/>
<path d="M27.5652 4.26736H27.2202V4.87335H26.3853V4.26736H25.1367V3.64627L26.4385 1.74219H27.2202V3.6354H27.5652V4.26736ZM26.3853 3.6354V3.2716C26.3853 3.20297 26.3876 3.11076 26.3927 2.99418C26.3977 2.87785 26.4014 2.81664 26.4043 2.81108H26.3808C26.332 2.92104 26.2772 3.02385 26.2159 3.11951L25.8688 3.6354H26.3853Z" fill="white"/>
<path d="M31.7925 4.87309H30.9425V3.59672H29.9594V4.87309H29.1094V1.74219H29.9594V2.90302H30.9425V1.74219H31.7925V4.87309Z" fill="white"/>
</svg>
