<svg width="31" height="28" viewBox="0 0 31 28" fill="none" xmlns="http://www.w3.org/2000/svg">
<path d="M23.9761 0H0V15.6579H23.9761V0Z" fill="#282B2E"/>
<path d="M22.7317 1.18164H1.16211V14.477H22.7317V1.18164Z" fill="#FF3333"/>
<path d="M17.9204 2.4668H10.5293V5.89213H17.9204V2.4668Z" fill="white"/>
<path d="M14.4971 15.6582H9.48047V21.4689H14.4971V15.6582Z" fill="#282B2E"/>
<path d="M15.5396 20.5566H8.4375V21.4951H15.5396V20.5566Z" fill="#282B2E"/>
<path d="M6.90537 18.7188H3.78906V14.4956C3.78906 13.7776 4.37133 13.1953 5.08932 13.1953H5.60511C6.32311 13.1953 6.90537 13.7776 6.90537 14.4956V18.7188Z" fill="#F2DBAF"/>
<path d="M9.03875 2.4668H2.61914V2.76922H9.03875V2.4668Z" fill="white"/>
<path d="M9.03875 3.37891H2.61914V3.68133H9.03875V3.37891Z" fill="white"/>
<path d="M9.03875 4.29102H2.61914V4.59344H9.03875V4.29102Z" fill="white"/>
<path d="M9.03875 5.20312H2.61914V5.50555H9.03875V5.20312Z" fill="white"/>
<path d="M9.03875 6.11523H2.61914V6.41766H9.03875V6.11523Z" fill="white"/>
<path d="M9.03875 7.02734H2.61914V7.32976H9.03875V7.02734Z" fill="white"/>
<path d="M9.03875 7.93945H2.61914V8.24188H9.03875V7.93945Z" fill="white"/>
<path d="M9.03875 8.85156H2.61914V9.15398H9.03875V8.85156Z" fill="white"/>
<path d="M9.03875 9.76367H2.61914V10.0661H9.03875V9.76367Z" fill="white"/>
<path d="M9.03875 10.6758H2.61914V10.9782H9.03875V10.6758Z" fill="white"/>
<path d="M9.03875 11.5879H2.61914V11.8903H9.03875V11.5879Z" fill="white"/>
<path d="M9.03875 12.5H2.61914V12.8024H9.03875V12.5Z" fill="white"/>
<path d="M23.9771 4.82548V3.9375H19.6564V4.82548H15.3464C14.7279 4.82548 14.2266 5.32681 14.2266 5.94535V15.6081H23.9929V4.82548H23.9771Z" fill="#FFB0B0"/>
<path d="M30.2601 27.7067H15.6248C15.2161 27.7067 14.8848 27.3753 14.8848 26.9666V6.13069C14.8848 5.72197 15.2161 5.39062 15.6248 5.39062H30.2601C30.6688 5.39062 31.0001 5.72197 31.0001 6.13069V26.9668C31.0001 27.3753 30.6688 27.7067 30.2601 27.7067Z" fill="#FF8A8A"/>
<path d="M29.9857 6.30273H15.9492V26.4709H29.9857V6.30273Z" fill="white"/>
<path d="M26.8957 4.40234H20.0293V7.24008H26.8957V4.40234Z" fill="#282B2E"/>
<path d="M24.3116 3.67969H22.9688V4.40175H24.3116V3.67969Z" fill="#363C50"/>
<path d="M20.3959 8.39258H17.3555V11.433H20.3959V8.39258Z" fill="#FF3333"/>
<path d="M28.3016 13.4473H20.3965V13.7512H28.3016V13.4473Z" fill="#363C50"/>
<path d="M28.3016 15.0684H20.3965V15.3723H28.3016V15.0684Z" fill="#363C50"/>
<path d="M28.3016 16.6895H20.3965V16.9934H28.3016V16.6895Z" fill="#363C50"/>
<path d="M28.3016 18.3125H20.3965V18.6164H28.3016V18.3125Z" fill="#363C50"/>
<path d="M28.3016 19.9336H20.3965V20.2375H28.3016V19.9336Z" fill="#363C50"/>
<path d="M28.3016 21.5547H20.3965V21.8586H28.3016V21.5547Z" fill="#363C50"/>
<path d="M28.3016 23.1758H20.3965V23.4797H28.3016V23.1758Z" fill="#363C50"/>
<path d="M17.3555 13.3338L17.8685 14.322L19.6546 12.5547L18.0014 13.6L17.3555 13.3338Z" fill="#FF3333"/>
<path d="M17.3555 15.2674L17.8685 16.2556L19.6546 14.4883L18.0014 15.5336L17.3555 15.2674Z" fill="#FF3333"/>
<path d="M17.3555 17.2027L17.8685 18.1909L19.6546 16.4238L18.0014 17.4689L17.3555 17.2027Z" fill="#FF3333"/>
<path d="M17.3555 19.1385L17.8685 20.1265L19.6546 18.3594L18.0014 19.4044L17.3555 19.1385Z" fill="#FF3333"/>
<path d="M17.3555 21.0741L17.8685 22.0623L19.6546 20.2949L18.0014 21.3399L17.3555 21.0741Z" fill="#FF3333"/>
<path d="M17.3555 23.0077L17.8685 23.9959L19.6546 22.2285L18.0014 23.2738L17.3555 23.0077Z" fill="#FF3333"/>
<path d="M3.78832 17.1621H0.189453V25.498H3.78832V17.1621Z" fill="#FF0000"/>
<path d="M9.60408 25.498H3.78906V17.1621H9.60408C10.4033 17.1621 11.0512 17.8101 11.0512 18.6093V24.0508C11.0512 24.85 10.4033 25.498 9.60408 25.498Z" fill="#F2DBAF"/>
</svg>
