<svg width="276" height="220" viewBox="0 0 276 220" fill="none" xmlns="http://www.w3.org/2000/svg">
<path opacity="0.3" d="M275.67 212.618C261.897 202.864 22.9721 202.714 0.222656 212.618C19.6291 221.908 259.03 222.371 275.67 212.618Z" fill="#431F00"/>
<path d="M239.448 212.041L248.325 16.9622L232.299 0.285156L36.168 29.7705L48.488 212.041H239.448Z" fill="#DB712A"/>
<path opacity="0.3" d="M219.891 212.04H239.46L248.337 16.9614L232.311 0.296875L230.558 0.559801C228.943 30.5084 222.157 156.976 219.891 212.04Z" fill="#673B00"/>
<path opacity="0.7" d="M42.1133 34.1521L57.1878 205.317L214.268 206.306L224.021 6.60742L42.1133 34.1521Z" fill="#673B00"/>
<path d="M49.9922 168.771L221.834 155.236V158.479L50.5806 171.826L49.9922 168.771Z" fill="#DB712A"/>
<path d="M44.9805 69.71L224.96 54.1348V57.8658L45.6065 73.2283L44.9805 69.71Z" fill="#DB712A"/>
<path d="M46.8945 123.16L220.313 107.973V111.453L47.483 126.44L46.8945 123.16Z" fill="#DB712A"/>
<path d="M53.4336 81.0539L60.3198 122.058L93.8116 119.554L91.9336 82.932L82.8563 77.9238L53.4336 81.0539Z" fill="url(#paint0_linear_1300_8422)"/>
<path d="M82.8524 77.9238L53.4297 81.0539L65.011 121.745L87.9732 119.98L83.0903 78.049L82.8524 77.9238Z" fill="#F2E3A5"/>
<path d="M89.1172 100.873L91.7214 119.754L113.532 117.362L113.945 99.208L108.111 96.9043L89.1172 100.873Z" fill="#564332"/>
<path d="M193.348 79.7644L195.063 92.1345L209.349 90.5569L209.624 78.6751L205.793 77.1602L193.348 79.7644Z" fill="#282B2E"/>
<path d="M60.8957 168.071L56.3008 145.735L79.2505 141.979L86.3495 147.613L85.5107 165.767L60.8957 168.071Z" fill="url(#paint1_linear_1300_8422)"/>
<path d="M79.2482 141.979L61.0938 144.908L62.5086 167.908L79.9118 166.293L80.0245 142.592L79.2482 141.979Z" fill="#F2E3A5"/>
<path d="M92.5625 100.146L95.2168 119.24L106.986 118.076L107.624 97.0039L92.5625 100.146Z" fill="#F2E3A5"/>
<path d="M84.5195 154.297L84.9327 165.978L98.7051 165.565L99.9571 154.71L93.6969 152.832L84.5195 154.297Z" fill="#6F7173"/>
<path d="M157.965 205.405L160.306 186.361L179.287 186.574L181.503 191.369L179.475 206.043L157.965 205.405Z" fill="#FF3333"/>
<path d="M64.0753 205.005L62.4102 180.59L80.9778 177.66L88.9031 181.003L90.368 205.631L64.0753 205.005Z" fill="#FF0000"/>
<path d="M96.0011 205.419L94.3359 182.469L116.034 179.965L121.455 186.012L120.416 206.258L96.0011 205.419Z" fill="url(#paint2_linear_1300_8422)"/>
<path d="M185.111 205.419L183.434 182.469L205.144 179.965L210.565 186.012L209.526 206.258L185.111 205.419Z" fill="url(#paint3_linear_1300_8422)"/>
<path opacity="0.3" d="M108.112 186.225L106.973 181.004L99.3977 181.88L99.3477 188.303L108.112 186.225Z" fill="#431F00"/>
<path d="M95.3769 164.939L95.1641 186.85L103.928 184.759L99.5462 164.514L95.3769 164.939Z" fill="#EA5D49"/>
<path d="M97.4283 164.727L95.375 164.939L95.7882 184.546L99.97 181.842L97.4283 164.727Z" fill="#F2E3A5"/>
<path d="M86.9257 155.023L86.5 165.666L92.5598 165.14L91.9338 153.195L86.9257 155.023Z" fill="#F2E3A5"/>
<path d="M80.9739 177.66L62.4062 180.59L66.7884 184.346L81.5999 186.011L81.2243 177.773L80.9739 177.66Z" fill="#F2E3A5"/>
<path d="M99.3477 202.075L105.395 189.555L110.816 187.264L109.777 203.327L99.3477 202.075Z" fill="#F2E3A5"/>
<path d="M51.9688 41.8148L55.0988 68.9463L81.1912 66.4422L79.7263 40.7756L70.3361 38.4844L51.9688 41.8148Z" fill="url(#paint4_linear_1300_8422)"/>
<path d="M164.453 85.2238L167.583 112.355L193.35 110.001L192.198 84.1846L182.808 81.8809L164.453 85.2238Z" fill="url(#paint5_linear_1300_8422)"/>
<path d="M190.941 110.239L191.242 91.4087L209.772 89.6309L212.439 94.0756L211.988 108.612L190.941 110.239Z" fill="#FF3333"/>
<path d="M205.244 77.2969L205.144 89.0785H197.206L193.5 79.8009L205.244 77.2969Z" fill="#F2E3A5"/>
<path d="M184.481 82.5059L184.682 109.85L169.457 110.263L175.717 83.7579L184.481 82.5059Z" fill="#F2E3A5"/>
<path d="M198.508 92.4727L196.004 107.81L205.97 107.347L207.748 91.2207L198.508 92.4727Z" fill="#F2E3A5"/>
<path d="M164.028 187.264L159.445 203.953L174.67 204.379L178.226 187.677L164.028 187.264Z" fill="#F2E3A5"/>
<path d="M185.309 183.508L186.773 203.753L200.546 204.379L203.889 181.004L185.309 183.508Z" fill="#F2E3A5"/>
<path d="M28.918 181.054L51.2918 173.98L71.5622 177.035L69.2709 214.909L32.9244 214.333L28.918 181.054Z" fill="url(#paint6_linear_1300_8422)"/>
<path opacity="0.2" d="M58.1322 175.105C58.1322 175.105 55.8034 190.831 60.6613 193.41C65.5191 195.989 66.646 192.083 66.646 192.083C66.646 192.083 60.6362 185.748 63.2279 175.569L58.1322 175.105Z" fill="#431F00"/>
<path d="M111.555 214.808L116.876 93.3105L119.893 93.4608L115.311 214.808H111.555Z" fill="#A89851"/>
<path d="M134.455 87.4883C132.639 87.4883 131.149 89.8546 130.911 92.9096C130.874 93.3228 130.661 95.952 130.323 100.146L116.613 100.647C118.391 100.034 119.605 96.866 119.793 93.9237C120.019 90.5432 118.541 88.5775 116.4 88.5775C114.447 88.5775 112.694 90.8938 112.231 93.8737C111.78 96.866 93.0999 214.77 93.751 215.759C94.4021 216.735 95.7167 217.211 96.7684 216.51C96.9937 216.36 97.9077 211.039 99.2224 202.775L122.197 202.5C121.546 211.552 121.183 217.399 121.333 217.624C121.997 218.626 123.249 219.102 124.188 218.388C125.114 217.675 133.052 102.65 133.228 99.9335C133.415 97.2166 133.678 94.1491 133.829 93.0473C134.016 91.6075 134.267 90.8062 134.843 90.4931C135.093 90.6309 135.056 90.9689 135.206 92.9221C135.293 94.0239 135.369 99.2073 135.281 99.9084C136.971 99.4076 138.048 96.841 138.048 93.7484C138.048 90.2928 136.445 87.4883 134.455 87.4883ZM115.361 94.0114C115.662 92.6091 115.975 91.8203 116.626 91.5073C116.889 91.645 116.826 91.9706 116.851 93.8737C116.876 94.9254 116.626 99.8083 116.475 100.647L114.259 100.722C114.635 98.093 115.123 95.0881 115.361 94.0114ZM113.721 104.516L129.985 104.228C129.697 107.709 129.359 111.853 128.983 116.473L111.93 116.974C112.694 111.665 113.32 107.358 113.721 104.516ZM105.207 164.601L104.894 165.302C105.495 161.22 106.096 157.101 106.697 153.02L126.053 152.744C125.753 156.513 125.452 160.281 125.152 164.025L105.207 164.601ZM124.826 168.069C124.376 173.716 123.95 179.212 123.549 184.37L101.952 184.946C102.741 179.713 103.579 174.104 104.431 168.37L124.826 168.069ZM107.248 149.238C107.937 144.518 108.613 139.898 109.251 135.479L127.456 135.216C127.105 139.585 126.742 144.105 126.366 148.675L107.248 149.238ZM109.802 131.698C110.365 127.804 110.904 124.135 111.38 120.755L128.645 120.504C128.37 123.885 128.082 127.453 127.781 131.159L109.802 131.698ZM99.8108 199.019C100.299 195.864 100.837 192.409 101.388 188.715L123.236 188.44C122.961 192.008 122.71 195.376 122.485 198.456L99.8108 199.019Z" fill="#A89851"/>
<g opacity="0.8">
<path d="M112.043 109.424L109.251 112.879C103.892 146.985 93.2624 215.02 93.7632 215.759C94.239 216.46 95.0403 216.898 95.8541 216.823L112.043 109.424Z" fill="#F2E3A5"/>
<path d="M130.911 92.9087C130.874 93.3218 130.661 95.9511 130.323 100.145L119.292 100.546L118.779 104.402L129.985 104.202C129.697 107.683 129.359 111.827 128.983 116.447L117.151 116.797L116.638 120.666L128.657 120.491C128.382 123.871 128.094 127.44 127.794 131.146L115.211 131.509L114.697 135.365L127.456 135.177C127.105 139.547 126.742 144.067 126.366 148.637L112.882 149.037L112.369 152.894L126.028 152.693C125.728 156.462 125.427 160.23 125.127 163.974L110.841 164.387L110.328 168.231L124.789 168.018C124.338 173.665 123.912 179.161 123.512 184.319L108.137 184.72L107.623 188.564L123.186 188.364C122.911 191.932 122.66 195.3 122.435 198.38L106.271 198.78L105.758 202.637L122.134 202.436C121.483 211.489 121.12 217.336 121.27 217.561C121.709 218.212 122.385 218.638 123.061 218.663L132.013 89.0273C131.462 90.054 131.036 91.4062 130.911 92.9087Z" fill="#F2E3A5"/>
</g>
<path d="M138.098 94.0356C138.098 93.685 138.073 93.347 138.048 93.009V92.9463C137.747 89.954 136.232 87.5 134.467 87.5C132.652 87.5 131.162 89.8663 130.924 92.9213C130.911 93.1592 130.824 94.0857 130.711 95.5631L133.29 99.1564C133.465 96.6524 133.703 94.0356 133.841 93.0465C134.029 91.6067 134.279 90.8054 134.855 90.4924C135.106 90.6301 135.068 90.9681 135.218 92.9213V92.9463H135.206L133.465 215.433L136.808 215.645L138.035 95.3628C138.073 94.8369 138.098 94.3862 138.098 94.0356Z" fill="#A89851"/>
<path d="M116.838 83.7585C116.838 83.7585 110.603 99.4214 122.285 94.1003C128.107 90.8826 129.409 89.1297 129.409 89.1297L132.038 92.2974C132.038 92.2974 119.28 106.107 112.744 98.4198C106.86 90.7449 110.879 83.3203 110.879 83.3203L116.838 83.7585Z" fill="#FF0303"/>
<path opacity="0.3" d="M116.838 83.7585C116.838 83.7585 110.603 99.4214 122.285 94.1003C128.107 90.8826 128.244 92.6354 128.244 92.6354L132.038 92.2974C132.038 92.2974 119.28 106.107 112.744 98.4198C106.86 90.7449 110.879 83.3203 110.879 83.3203L116.838 83.7585Z" fill="#673B00"/>
<path d="M106.96 172.552L106.859 176.521L107.999 176.408L108.424 171.926L106.96 172.552Z" fill="#A38571"/>
<path d="M116.612 112.005C111.666 97.5189 118.377 89.581 117.075 84.598C115.848 79.8653 99.9596 80.629 98.0815 89.3932C93.8622 99.0589 99.7092 121.608 101.662 128.482C102.939 141.277 106.433 172.866 106.433 172.866L108.937 173.079L111.265 125.026C115.347 121.458 135.442 105.357 123.786 144.282L126.365 144.595C126.565 143.969 144.344 104.806 116.612 112.005Z" fill="url(#paint7_linear_1300_8422)"/>
<path d="M100.31 85.4238C99.2207 86.5006 98.4194 87.8152 98.0813 89.4053C96.5914 92.8233 96.3535 97.844 96.7667 103.215C96.8293 103.165 96.8794 103.128 96.9294 103.077C108.11 92.4227 103.803 86.6007 100.31 85.4238Z" fill="#7EB7C4"/>
<path d="M107.588 92.322C111.819 90.2937 113.535 89.5049 113.535 89.5049C113.535 89.5049 115.413 85.6612 114.486 82.3183C111.193 81.1539 105.547 81.6672 101.766 84.2214C101.778 84.2589 101.778 84.2965 101.791 84.334C101.791 84.334 107.425 88.7162 107.588 92.322Z" fill="#7EB7C4"/>
<path opacity="0.3" d="M123.786 144.282L126.365 144.595C126.578 143.969 144.344 104.805 116.612 112.004C111.666 97.5184 118.377 89.5805 117.075 84.5974C116.299 81.5926 109.613 80.8163 104.342 82.8822V82.9322C104.342 82.9322 104.968 93.9877 96.9297 98.8956C98.6575 100.148 101.938 105.782 103.666 113.294C104.104 115.685 104.542 119.504 104.955 124.087C105.03 124.85 103.127 129.545 103.202 130.347C103.29 131.361 105.306 126.778 105.393 127.843C106.808 145.997 107.897 172.34 107.897 172.34L108.937 173.066L111.265 125.013C115.347 121.457 135.442 105.356 123.786 144.282Z" fill="#673B00"/>
<path d="M51.2931 173.98L30.4844 182.044L32.9258 214.333L51.0052 214.621L51.2931 173.98Z" fill="#F2E3A5"/>
<path opacity="0.4" d="M32.1484 183.508L39.6606 195.816L34.2393 212.305L41.1255 197.493L48.4874 212.042L42.5778 195.19L48.4248 178.287L40.9127 193.111L32.1484 183.508Z" fill="#12263F"/>
<path d="M108.211 182.468C109.05 174.855 106.959 175.481 106.12 175.481C105.281 175.481 107.059 178.611 106.433 182.367C106.433 185.823 110.189 184.659 111.028 184.659C111.867 184.659 110.189 184.446 108.211 182.468Z" fill="#431F00"/>
<path d="M106.42 175.457C106.42 175.457 103.615 175.395 105.631 178.312L106.846 178.374L106.42 175.457Z" fill="#431F00"/>
<path d="M122.499 147.725C122.499 147.725 121.823 150.442 125.115 149.114L125.441 147.937L122.499 147.725Z" fill="#431F00"/>
<path d="M124.25 144.431L123.699 146.547L124.726 147.249L125.74 144.281L124.25 144.431Z" fill="#A38571"/>
<path d="M132.312 149.752C132.362 149.339 130.272 148.563 127.454 147.799C124.562 147.023 123.523 145.908 123.461 146.309C123.41 146.722 120.956 148.262 123.849 148.663C126.753 149.051 132.25 150.165 132.312 149.752Z" fill="#431F00"/>
<path d="M105.693 83.1827L105.492 72.1523L110.813 76.885C110.813 76.885 111.802 79.051 112.591 82.5943C110.813 87.7151 105.693 83.1827 105.693 83.1827Z" fill="#FFB38A"/>
<path opacity="0.3" d="M112.588 82.5929C111.799 79.0496 110.81 76.8836 110.81 76.8836L108.356 74.7051L105.589 74.9054L105.539 74.993L105.614 79.3752L109.796 85.0343C110.898 84.9968 111.949 84.4083 112.588 82.5929Z" fill="#673B00"/>
<path d="M105.544 70.1727C104.906 68.5075 103.378 67.5435 102.151 68.0067C100.912 68.4825 100.423 70.2228 101.062 71.888C101.7 73.5532 103.228 74.5173 104.455 74.054C105.707 73.5782 106.183 71.8379 105.544 70.1727Z" fill="#E59673"/>
<path opacity="0.3" d="M105.906 70.2368C105.38 68.8595 104.003 68.1208 102.826 68.5716C101.649 69.0223 101.123 70.4997 101.649 71.8644C102.175 73.2291 103.552 73.9804 104.729 73.5296C105.906 73.0914 106.432 71.614 105.906 70.2368Z" fill="#673B00"/>
<path d="M120.179 70.4358C120.142 70.0977 120.079 69.7597 119.979 69.4217C118.527 64.5638 117.913 58.0908 113.669 58.2535C101.737 55.4865 103.577 65.2649 103.765 70.3231C103.828 72.2387 104.391 73.9916 105.28 75.4314C106.332 78.3111 109.75 80.3519 113.731 80.2016C118.452 80.0264 122.158 76.8712 122.032 73.1527C121.97 71.6503 121.269 70.9241 120.179 70.4358Z" fill="#E59673"/>
<path d="M119.942 69.4225C118.903 65.5162 118.314 59.0432 114.396 58.9931C103.14 55.9507 104.467 64.8902 104.429 69.4851C104.417 71.2254 104.868 72.8406 105.656 74.1802C106.533 76.8345 109.701 78.8378 113.507 78.8879C118.014 78.9505 121.695 76.2586 121.72 72.8781C121.733 71.5134 121.094 70.5118 119.942 69.4225Z" fill="#FFB38A"/>
<path d="M105.542 66.4923C105.542 66.4923 105.692 71.1123 105.855 71.8134C106.005 72.5145 104.916 73.5412 104.916 73.5412C104.916 73.5412 103.426 67.8319 103.113 66.1792C102.812 64.5391 105.542 66.4923 105.542 66.4923Z" fill="#4C3F32"/>
<path d="M103.614 68.0076L110.3 60.9086L118.013 60.7082L115.409 53.459L105.442 54.5483L100.484 61.4344L103.614 68.0076Z" fill="#7EB7C4"/>
<path d="M105.445 54.5483L107.949 60.1824L117.815 60.0322L115.411 53.459L105.445 54.5483Z" fill="#4A7C84"/>
<path d="M114.26 56.7899C114.26 55.9761 113.096 55.3125 111.643 55.3125C110.203 55.3125 109.039 55.9761 109.039 56.8024C109.039 57.6162 110.203 58.2798 111.643 58.2798C113.096 58.2798 114.26 57.6037 114.26 56.7899Z" fill="#7EB7C4"/>
<path d="M118.014 62.0104L120.305 60.1324C120.242 58.2669 118.84 56.7143 116.999 56.4639L115.722 56.2887C114.157 56.0758 112.555 56.3262 111.115 57.0023L110.864 57.115C109.6 57.716 108.548 58.6925 107.86 59.8945L103.402 67.6321L103.765 67.9451L110.915 61.5847L118.014 62.0104Z" fill="#7EB7C4"/>
<path d="M118.44 62.3737L120.731 60.4957C120.669 58.6301 119.266 57.0776 117.426 56.8272L116.149 56.6519C114.584 56.4391 112.981 56.6895 111.541 57.3656L111.141 57.5534C109.964 58.1168 108.975 58.9932 108.286 60.0825L103.453 67.6949L103.666 68.0579C103.666 68.0579 111.328 61.948 111.328 61.9605L118.44 62.3737Z" fill="#4A7C84"/>
<path d="M112.966 66.4668C112.34 66.8174 112.641 68.733 113.58 70.611C114.719 72.6143 116.647 72.2762 117.273 71.9257C119.026 68.5076 115.683 70.8739 112.966 66.4668Z" fill="#EA5D49"/>
<path d="M110.563 68.6579C110.387 68.0068 109.999 67.5561 109.699 67.6312C109.386 67.7189 109.285 68.3073 109.448 68.9584C109.623 69.6094 110.012 70.0602 110.312 69.985C110.625 69.8974 110.738 69.3089 110.563 68.6579Z" fill="#4C3F32"/>
<path d="M117.012 67.2321C116.836 66.5811 116.448 66.1303 116.148 66.2054C115.835 66.2931 115.735 66.8815 115.897 67.5326C116.073 68.1836 116.461 68.6344 116.761 68.5593C117.074 68.4716 117.175 67.8832 117.012 67.2321Z" fill="#4C3F32"/>
<path d="M117.977 73.19C117.526 74.2167 116.474 75.0054 115.272 75.1181C114.421 75.1933 113.67 74.9053 113.169 74.3794L112.668 74.5046C113.181 75.2308 114.145 75.669 115.272 75.5689C116.8 75.4311 118.102 74.3669 118.402 73.0898L117.977 73.19Z" fill="#4C3F32"/>
<path d="M107.487 67.7941C107.487 67.7941 109.991 65.6531 110.354 65.6531C110.717 65.6531 110.204 64.4512 110.204 64.4512C110.204 64.4512 107.024 66.3793 107.024 66.5921C107.011 66.805 107.487 67.7941 107.487 67.7941Z" fill="#4C3F32"/>
<path d="M114.933 64.8282C114.933 64.8282 116.811 64.4651 117.537 65.2413C118.263 66.0176 117.487 63.7264 117.487 63.7264C117.487 63.7264 114.983 63.2005 114.72 63.3633C114.457 63.5261 114.933 64.8282 114.933 64.8282Z" fill="#4C3F32"/>
<path d="M116.434 71.1246C116.635 70.8491 116.497 70.3859 116.109 70.0979C115.733 69.8099 115.257 69.7849 115.045 70.0603C114.844 70.3358 114.982 70.799 115.37 71.087C115.746 71.3875 116.222 71.4 116.434 71.1246Z" fill="#FFB38A"/>
<path d="M98.5078 119.866L114.359 106.92L116.237 109.011L100.173 123.622L98.5078 119.866Z" fill="#673B00"/>
<path opacity="0.3" d="M99.332 122.571L112.065 110.477L114.356 113.607L101.21 125.501L99.332 122.571Z" fill="#431F00"/>
<path d="M102.277 93.8618L112.794 86.8379L124.601 90.5564L123.374 109.85L114.147 118.69L105.52 114.057L102.277 93.8618Z" fill="url(#paint8_linear_1300_8422)"/>
<path d="M102.391 94.5879L105.521 114.057L114.147 118.689L114.573 98.369L102.391 94.5879Z" fill="url(#paint9_linear_1300_8422)"/>
<path opacity="0.3" d="M102.789 95.0254L107.584 104.528L106.019 113.919L108.736 105.668L113.531 117.362L109.462 104.729L112.805 98.8942L108.423 103.902L102.789 95.0254Z" fill="#673B00"/>
<path d="M98.8579 87.2267C98.8579 87.2267 86.588 112.881 102.576 112.655C105.994 112.568 111.115 110.139 111.115 110.139L110.101 105.644C110.101 105.644 98.1943 110.928 99.1333 103.728C101.011 94.6763 102.677 92.0971 102.677 92.0971C102.677 92.0971 103.378 84.1467 98.8579 87.2267Z" fill="#7EB7C4"/>
<path d="M114.145 118.689L122.721 109.687L123.585 103.777L123.51 109.762L114.145 118.689Z" fill="url(#paint10_linear_1300_8422)"/>
<path opacity="0.8" d="M103.929 115.686L104.342 119.867L100.173 123.623L98.5078 119.867L103.929 115.686Z" fill="#F2E3A5"/>
<path d="M103.203 130.346L106.646 124.561L105.231 121.895L103.203 130.346Z" fill="#77A3BC"/>
<path opacity="0.7" d="M58.1299 175.105C58.1299 175.105 55.7761 192.947 65.9551 192.484C65.9551 192.484 67.2071 189.504 69.3982 189.504C69.3982 189.504 60.7842 190.443 62.9878 175.882L58.1299 175.105Z" fill="#F2E3A5"/>
<path opacity="0.4" d="M55.9414 83.2448L69.9266 101.287L63.7666 118.928L71.5918 102.651L84.7381 117.363L74.0959 99.8342L81.295 80.4277L70.9658 99.2082L55.9414 83.2448Z" fill="#12263F"/>
<path opacity="0.2" d="M59.0703 148.35L67.2085 156.488L62.5134 166.504L69.3996 158.366L77.2248 164.313L70.3386 155.236L77.5378 144.594L68.7736 153.671L59.0703 148.35Z" fill="#431F00"/>
<path d="M71.1759 39.7363L73.68 66.2293L55.9387 67.6942L52.8086 43.0667L71.1759 39.7363Z" fill="#F2E3A5"/>
<path d="M54.6875 43.9055L61.1605 54.3349L56.9787 65.4029L62.8257 56.0127L72.0031 64.564L64.7038 54.1346L70.3379 40.9883L63.2389 51.6306L54.6875 43.9055Z" fill="url(#paint11_linear_1300_8422)"/>
<path opacity="0.2" d="M165.805 86.0623L174.093 98.4199L168.935 110.79L175.658 99.9849L184.109 109.538L176.91 98.2696L184.109 84.0215L175.032 96.0786L165.805 86.0623Z" fill="#431F00"/>
<path opacity="0.2" d="M186.148 184.347L191.783 193.737L187.4 202.501L193.661 195.189L202.012 203.127L195.126 192.898L203.89 181.004L193.661 190.807L186.148 184.347Z" fill="#431F00"/>
<path d="M191.781 92.9475L197.253 98.8946L192.407 107.183L198.667 100.46L205.341 107.346L200.383 99.2077L206.493 91.8457L198.818 97.9556L191.781 92.9475Z" fill="#282B2E"/>
<path d="M78.5743 66.7546L77.5352 55.8995L88.5906 54.0215L93.8116 56.7384V65.6028L78.5743 66.7546Z" fill="#282B2E"/>
<g opacity="0.7">
<path d="M87.8524 63.6135L88.0903 63.5759L87.627 55.8008L85.8867 59.97L87.8524 63.6135Z" fill="#F2E3A5"/>
<path d="M83.2669 58.2038L87.6114 55.5996L87.5989 55.3867L81.0508 56.501L83.2669 58.2038Z" fill="#F2E3A5"/>
<path d="M82.0153 60.1825L80.8259 58.7051L80.25 64.5646L82.0153 60.1825Z" fill="#F2E3A5"/>
<path d="M83.895 61.6465L80.2391 64.7515L80.2266 64.8767L87.4007 63.6873L83.895 61.6465Z" fill="#F2E3A5"/>
</g>
<path d="M174.254 158.366L172.062 131.134L196.477 127.691L207.119 133.952L206.806 156.488L174.254 158.366Z" fill="#FF0000"/>
<path d="M195.29 129.258L196.417 155.951L175.345 156.803L173.367 132.35L195.29 129.258Z" fill="#F2E3A5"/>
<path d="M173.945 133.014L181.144 142.817L175.348 156.802L183.023 144.908L196.419 155.951L185.113 143.03L194.917 130.51L182.71 141.152L173.945 133.014Z" fill="#6F7173"/>
<path opacity="0.3" d="M103.664 68.0583L114.068 70.4122C114.068 70.4122 120.404 70.1743 119.978 69.4231C119.289 67.1068 119.001 64.4149 117.987 62.2739C114.982 62.1237 111.339 61.9609 111.339 61.9609L103.664 68.0583Z" fill="#673B00"/>
<path d="M124.601 90.5564L112.794 86.8379L102.277 93.8618L114.572 98.3691L124.601 90.5564Z" fill="#F2E3A5"/>
<path opacity="0.3" d="M114.57 98.3695L114.145 118.69L123.372 109.851L123.96 92.1094L114.57 98.3695Z" fill="#431F00"/>
<path d="M122.008 111.165L114.146 118.69L105.519 114.058L105.294 112.355L111.028 110.264L110.089 105.782L104.355 107.447L102.402 94.5886L102.289 93.8749L112.806 86.851L117.025 88.1782C117.276 86.8385 117.363 85.6491 117.101 84.6099C116.712 83.1074 114.847 82.1684 112.43 81.8554C112.28 81.2294 112.117 80.6409 111.967 80.1276C112.543 80.2027 113.132 80.2528 113.733 80.2278C118.453 80.0525 122.159 76.8974 122.034 73.1788C121.983 71.6889 121.282 70.9502 120.193 70.4619C120.155 70.1239 120.093 69.7858 119.993 69.4478C119.304 67.1566 118.803 64.5148 118.027 62.3738L118.453 62.3988L120.744 60.5208C120.681 58.6553 119.279 57.1027 117.439 56.8523L116.6 56.7397L115.423 53.4844L105.457 54.5862L100.499 61.4723L103.478 67.72V67.7325L103.528 67.8076L103.641 68.0455L103.654 68.033C103.654 68.058 103.654 68.0831 103.654 68.1081C103.165 67.9078 102.64 67.8702 102.164 68.058C100.924 68.5338 100.436 70.2741 101.074 71.9393C101.713 73.6045 103.241 74.5686 104.468 74.1053C104.505 74.0928 104.53 74.0678 104.568 74.0553C104.781 74.5561 105.006 75.0444 105.281 75.4826C105.356 75.6954 105.469 75.8832 105.569 76.0835L105.682 82.4814C102.89 83.3078 100.311 84.8603 98.9461 87.2392C98.9085 87.2642 98.8834 87.2642 98.8584 87.2892C98.8584 87.2892 89.4682 106.946 97.8317 111.691C99.0212 118.778 100.761 125.351 101.675 128.531C102.953 141.327 106.446 172.916 106.446 172.916L108.95 173.129L111.279 125.076C115.36 121.507 135.455 105.406 123.799 144.332L126.378 144.645C126.553 144.019 141.791 110.402 122.008 111.165Z" fill="url(#paint12_linear_1300_8422)"/>
<path d="M110.402 106.871L116.036 104.367C116.036 104.367 118.541 104.843 118.39 105.769C118.24 106.696 114.784 107.723 114.784 107.723L110.715 107.961L110.402 106.871Z" fill="#FFB38A"/>
<path d="M130.91 89.3912L134.766 88.327C134.766 88.327 136.544 87.9138 136.068 87.2252C135.592 86.5491 132.412 86.812 132.412 86.812L130.797 88.4021L130.91 89.3912Z" fill="#FFB38A"/>
<path d="M118.476 100.16C118.288 100.059 117.374 101.387 116.448 103.127C115.521 104.867 114.92 106.37 115.121 106.47C115.308 106.57 116.222 105.243 117.149 103.503C118.075 101.762 118.676 100.272 118.476 100.16Z" fill="#FFB38A"/>
<path d="M119.852 99.8967C119.652 99.809 118.851 101.136 118.075 102.864C117.298 104.592 116.835 106.069 117.048 106.157C117.248 106.244 118.05 104.917 118.826 103.19C119.59 101.462 120.065 99.9968 119.852 99.8967Z" fill="#FFB38A"/>
<path d="M120.733 100.936C120.571 100.849 119.807 102.026 119.006 103.54C118.217 105.068 117.691 106.37 117.854 106.445C118.004 106.52 118.78 105.356 119.582 103.841C120.37 102.313 120.896 101.011 120.733 100.936Z" fill="#FFB38A"/>
<path d="M113.656 105.406C113.656 105.406 114.67 104.316 114.808 103.903C114.946 103.49 115.059 102.175 114.871 101.487C114.708 100.898 115.447 100.948 115.559 101.412C115.672 101.862 115.822 103.027 115.634 103.841C115.522 104.354 115.397 105.005 114.983 105.606C114.583 106.194 113.656 105.406 113.656 105.406Z" fill="#FFB38A"/>
<path d="M136.671 90.3814C136.884 90.3688 136.721 89.2671 136.884 88.0025C137.022 86.8882 135.006 86.8882 134.781 86.9007C134.568 86.9132 136.22 87.364 136.296 88.4783C136.371 89.5926 136.446 90.3939 136.671 90.3814Z" fill="#FFB38A"/>
<path d="M136.221 91.207C136.434 91.1695 136.333 89.8173 136.071 88.5152C135.808 87.2005 134.468 87.4509 134.243 87.501C134.017 87.5386 135.232 87.5761 135.495 88.8782C135.758 90.1804 136.008 91.2446 136.221 91.207Z" fill="#FFB38A"/>
<path d="M135.667 92.222C135.88 92.1469 135.655 90.8948 135.179 89.4174C134.703 87.94 133.276 87.6646 133.075 87.7397C132.875 87.8148 133.952 88.1904 134.428 89.6804C134.903 91.1452 135.467 92.2846 135.667 92.222Z" fill="#FFB38A"/>
<path d="M131.27 88.9788C131.27 88.9788 132.384 89.7676 132.559 90.0931C132.734 90.4186 133.01 91.4954 132.91 92.0964C132.822 92.6097 133.536 92.472 133.586 92.0838C133.636 91.6957 133.636 90.7066 133.373 90.0555C133.198 89.6424 132.997 89.104 132.534 88.6658C132.046 88.2151 131.27 88.9788 131.27 88.9788Z" fill="#FFB38A"/>
<path d="M131.059 91.1693L131.736 89.1411L130.797 88.4023L130.07 89.9173L131.059 91.1693Z" fill="#FFB38A"/>
<defs>
<linearGradient id="paint0_linear_1300_8422" x1="53.4313" y1="99.9868" x2="93.8094" y2="99.9868" gradientUnits="userSpaceOnUse">
<stop stop-color="#EAD67F"/>
<stop offset="0.9946" stop-color="#EAB57D"/>
</linearGradient>
<linearGradient id="paint1_linear_1300_8422" x1="56.301" y1="155.025" x2="86.3498" y2="155.025" gradientUnits="userSpaceOnUse">
<stop stop-color="#EAD67F"/>
<stop offset="0.9946" stop-color="#EAB57D"/>
</linearGradient>
<linearGradient id="paint2_linear_1300_8422" x1="94.3299" y1="193.107" x2="121.456" y2="193.107" gradientUnits="userSpaceOnUse">
<stop stop-color="#EAD67F"/>
<stop offset="0.9946" stop-color="#EAB57D"/>
</linearGradient>
<linearGradient id="paint3_linear_1300_8422" x1="183.436" y1="193.107" x2="210.563" y2="193.107" gradientUnits="userSpaceOnUse">
<stop stop-color="#EAD67F"/>
<stop offset="0.9946" stop-color="#EAB57D"/>
</linearGradient>
<linearGradient id="paint4_linear_1300_8422" x1="51.9715" y1="53.7135" x2="81.1852" y2="53.7135" gradientUnits="userSpaceOnUse">
<stop stop-color="#EAD67F"/>
<stop offset="0.9946" stop-color="#EAB57D"/>
</linearGradient>
<linearGradient id="paint5_linear_1300_8422" x1="164.447" y1="97.1181" x2="193.348" y2="97.1181" gradientUnits="userSpaceOnUse">
<stop stop-color="#EAD67F"/>
<stop offset="0.9946" stop-color="#EAB57D"/>
</linearGradient>
<linearGradient id="paint6_linear_1300_8422" x1="28.912" y1="194.444" x2="71.5678" y2="194.444" gradientUnits="userSpaceOnUse">
<stop stop-color="#EAD67F"/>
<stop offset="0.9946" stop-color="#EAB57D"/>
</linearGradient>
<linearGradient id="paint7_linear_1300_8422" x1="133.047" y1="176.402" x2="99.2423" y2="100.654" gradientUnits="userSpaceOnUse">
<stop stop-color="#597B84"/>
<stop offset="1" stop-color="#599ABF"/>
</linearGradient>
<linearGradient id="paint8_linear_1300_8422" x1="136.766" y1="107.565" x2="95.7637" y2="99.1142" gradientUnits="userSpaceOnUse">
<stop stop-color="#AF506D"/>
<stop offset="0.9946" stop-color="#FF8C68"/>
</linearGradient>
<linearGradient id="paint9_linear_1300_8422" x1="135.792" y1="112.307" x2="94.7863" y2="103.855" gradientUnits="userSpaceOnUse">
<stop stop-color="#AF506D"/>
<stop offset="0.9946" stop-color="#FF6445"/>
</linearGradient>
<linearGradient id="paint10_linear_1300_8422" x1="114.149" y1="111.234" x2="123.584" y2="111.234" gradientUnits="userSpaceOnUse">
<stop stop-color="#AF506D"/>
<stop offset="0.9946" stop-color="#FF6445"/>
</linearGradient>
<linearGradient id="paint11_linear_1300_8422" x1="54.6865" y1="53.1915" x2="72.0058" y2="53.1915" gradientUnits="userSpaceOnUse">
<stop stop-color="#EAD67F"/>
<stop offset="0.9946" stop-color="#EAB57D"/>
</linearGradient>
<linearGradient id="paint12_linear_1300_8422" x1="91.1468" y1="81.602" x2="129.333" y2="140.447" gradientUnits="userSpaceOnUse">
<stop stop-color="#FFFCE9"/>
<stop offset="1" stop-color="#FF0000"/>
</linearGradient>
</defs>
</svg>
