<svg width="271" height="220" viewBox="0 0 271 220" fill="none" xmlns="http://www.w3.org/2000/svg">
<path opacity="0.4" d="M228.959 200.009C198.792 193.557 43.5428 197.406 19.3828 208.274C36.9689 220.699 144.999 228.363 228.959 200.009Z" fill="#431F00"/>
<path d="M62.882 192.401C61.981 185.716 57.832 180.766 53.6051 181.333C49.3782 181.901 46.6863 187.774 47.5762 194.459C48.4772 201.133 52.6262 206.094 56.8531 205.527C61.08 204.948 63.783 199.075 62.882 192.401Z" fill="#4F3D33"/>
<path d="M147.866 189.108C146.965 182.423 142.816 177.473 138.589 178.04C134.363 178.608 131.671 184.481 132.561 191.166C133.462 197.851 137.611 202.801 141.838 202.234C146.064 201.666 148.767 195.782 147.866 189.108Z" fill="#4F3D33"/>
<path d="M72.6857 108.441L57.8359 39.1204L59.5712 34.8824L148.358 0.611215L155.666 0.244141L241.928 38.6199L213.786 184.837L136.289 188.864L72.6857 108.441Z" fill="#282B2E"/>
<path opacity="0.5" d="M146.801 181.167L214.599 179.432L213.786 184.838L145.645 188.664L146.801 181.167Z" fill="#431F00"/>
<path opacity="0.3" d="M213.787 184.837L241.929 38.6199L155.667 0.244141L152.775 0.388746L147.625 188.274L213.787 184.837Z" fill="#282B2E"/>
<path d="M151.935 153.792L141.857 98.8419L120.2 89.0645L61.5354 103.236L47.0972 156.873L1.03516 168.586L5.06183 195.07L85.662 197.262L147.085 192.99L151.935 153.792Z" fill="#FF0000"/>
<path d="M89.3844 197.039L80.9306 164.08L1.17578 168.585L5.06897 195.07L89.3844 197.039Z" fill="#FF0000"/>
<path d="M144.773 193.136L209.334 189.955L210.424 184.838L147.799 188.286L144.773 193.136Z" fill="#443225"/>
<path d="M63.455 105.694L50.207 156.327L115.724 149.709L116.647 94.459L63.455 105.694Z" fill="#FF8A8A"/>
<path d="M73.5078 111.346L81.6835 114.994L85.3431 153.948L82.0728 154.149L73.5078 111.346Z" fill="#FF5454"/>
<path opacity="0.2" d="M117.092 149.709L121.586 92.7793L142.52 98.8415L152.309 153.513L148.393 188.663L144.645 194.948L90.0397 197.128L81.5859 164.08L117.092 149.709Z" fill="#E80000"/>
<path d="M130.375 147.451L147.984 149.008L139.941 101.311L123.812 95.1816L130.375 147.451Z" fill="#8C0000"/>
<path d="M122.35 96.4492L119.102 148.017L126.576 147.739L122.35 96.4492Z" fill="#8C0000"/>
<path d="M206.018 190.353C205.017 182.878 200.367 177.328 195.64 177.973C190.912 178.607 187.898 185.181 188.899 192.656C189.9 200.131 194.55 205.681 199.277 205.036C204.005 204.402 207.03 197.828 206.018 190.353Z" fill="#33241B"/>
<path d="M204.373 191.266C203.65 185.916 200.658 181.901 197.677 182.301C194.696 182.701 192.86 187.362 193.583 192.712C194.306 198.063 197.298 202.078 200.28 201.678C203.25 201.278 205.085 196.617 204.373 191.266Z" fill="#FFF1CF"/>
<path d="M86.0631 154.481L113.749 147.028L116.641 94.459L63.4492 105.694L82.3701 114.203L86.0631 154.481Z" fill="#8C0000"/>
<path d="M198.325 56.4613C182.786 54.8929 168.181 73.5357 165.7 98.1073C163.22 122.679 173.798 143.88 189.338 145.449C204.877 147.017 219.482 128.374 221.963 103.802C224.443 79.2309 213.865 58.0297 198.325 56.4613ZM219.604 103.558C217.324 126.072 203.943 143.157 189.705 141.722C175.467 140.287 165.778 120.866 168.048 98.352C170.328 75.8382 183.709 58.7527 197.947 60.1876C212.185 61.6337 221.874 81.044 219.604 103.558Z" fill="#FFFDD6"/>
<path d="M198.067 83.9258L176.91 94.9936L194.24 121.512L195.842 109.754L213.74 110.433L214.808 105.616L197.344 96.206L198.067 83.9258Z" fill="#FFFDD6"/>
<path d="M147.804 188.375L143.766 195.016L93.7109 197.607L93.8555 195.449L142.187 192.991L147.804 188.375Z" fill="#B50000"/>
<path d="M134.078 192.634C123.567 168.841 101.965 166.561 102.51 194.124C102.51 195.059 102.655 195.793 102.888 196.416L134.101 195.081C134.468 194.391 134.501 193.579 134.078 192.634Z" fill="#8C0000"/>
<path d="M129.18 195.627C127.99 186.784 122.495 180.232 116.9 180.978C111.305 181.734 107.734 189.509 108.924 198.352C110.114 207.196 115.609 213.747 121.204 213.002C126.799 212.246 130.37 204.47 129.18 195.627Z" fill="#33241B"/>
<path d="M127.223 196.706C126.377 190.377 122.829 185.627 119.303 186.105C115.777 186.573 113.608 192.09 114.464 198.419C115.31 204.748 118.858 209.487 122.384 209.02C125.91 208.552 128.079 203.035 127.223 196.706Z" fill="#FFF1CF"/>
<mask id="mask0_1300_8317" style="mask-type:luminance" maskUnits="userSpaceOnUse" x="52" y="91" width="68" height="62">
<path d="M65.9433 102.362L52.6953 152.995L119.046 149.703L119.135 91.127L65.9433 102.362Z" fill="white"/>
</mask>
<g mask="url(#mask0_1300_8317)">
<path d="M47.7632 141.417C40.9557 150.805 49.1314 165.054 58.7643 159.036C68.3971 153.029 57.6853 139.27 47.7632 141.417ZM57.6074 157.267C49.9434 162.051 43.4362 150.716 48.8533 143.252C56.7509 141.539 65.2715 152.484 57.6074 157.267Z" fill="#8C0000"/>
</g>
<mask id="mask1_1300_8317" style="mask-type:luminance" maskUnits="userSpaceOnUse" x="56" y="91" width="67" height="62">
<path d="M69.3574 102.362L56.1094 152.995L122.46 149.703L122.549 91.127L69.3574 102.362Z" fill="white"/>
</mask>
<g mask="url(#mask1_1300_8317)">
<path d="M57.637 144.375L54.0664 151.36L55.023 152.172L57.637 144.375Z" fill="#8C0000"/>
</g>
<path d="M115.443 147.029L80.6827 164.026L0.894531 168.586L53.4415 149.832L115.443 147.029Z" fill="#FF3333"/>
<path d="M55.4588 149.764L65.1584 105.838L63.4565 105.693L53.1562 149.887L55.4588 149.764Z" fill="#8C0000"/>
<path d="M64.5661 102.691L52.0412 154.504L46.6797 157.363L61.5406 103.236L64.5661 102.691Z" fill="#FF3333"/>
<path d="M64.4627 105.762L60.3359 149.721L62.4494 149.388L65.6196 106.273L64.4627 105.762Z" fill="#8C0000"/>
<path d="M114.487 97.5957L112.262 113.725L69.7148 105.938L114.487 97.5957Z" fill="#FFFDD6"/>
<path d="M112.448 116.873L64.7068 106.773L63.3164 114.004L111.336 132.079L112.448 116.873Z" fill="#FFFDD6"/>
<path d="M148.625 1.98988L150.06 102.501L152.663 1.80078L148.625 1.98988Z" fill="#FFFDD6"/>
<path d="M124.023 110.979L127.917 135.361L126.326 143.581L124.023 110.979Z" fill="#FF5454"/>
<path d="M112.343 147.451H116.158L119.24 90.7109L62.4102 103.125L62.6994 104.27L116.648 93.1692L112.343 147.451Z" fill="#FF3333"/>
<path d="M147.473 164.959C146.039 162.067 136.973 161.811 135.738 164.959C136.973 168.363 146.239 168.608 147.473 164.959Z" fill="#8C0000"/>
<path d="M135.354 163.947L147.657 164.526L147.757 165.683L135.254 165.204L135.354 163.947Z" fill="#FF8A8A"/>
<path d="M127.286 196.45C126.552 191.022 123.515 186.951 120.501 187.363C117.475 187.763 115.618 192.502 116.352 197.919C117.075 203.347 120.123 207.407 123.148 207.007C126.163 206.606 128.02 201.868 127.286 196.45Z" fill="#33241B"/>
<path d="M204.361 191.178C203.749 186.606 201.18 183.169 198.632 183.514C196.085 183.859 194.517 187.841 195.128 192.424C195.74 196.996 198.31 200.433 200.857 200.088C203.415 199.743 204.984 195.75 204.361 191.178Z" fill="#33241B"/>
<path d="M116.291 149.987L86.5586 161.399L116.57 145.76L116.291 149.987Z" fill="#FF0000"/>
<path d="M42.3164 154.781L48.5121 165.07L60.0249 164.503L46.1206 152.812L42.3164 154.781Z" fill="#FF5454"/>
<path d="M1.38281 168.519L44.4081 165.549L38.7908 155.482L1.38281 168.519Z" fill="#FF5454"/>
<path opacity="0.4" d="M118.781 151.433L122.274 176.205L123.575 176.961L120.094 150.832L118.781 151.433Z" fill="#FF3333"/>
<path opacity="0.4" d="M151.934 154.258L120.199 152.856L119.82 150.832L151.656 152.99L151.934 154.258Z" fill="#FF3333"/>
<path d="M170.348 189.587L171.282 192.591L184.63 192.969L185.186 188.264L170.348 189.587Z" fill="#443225"/>
<path d="M257.61 61.4568L247.832 60.2109L248.733 67.7971L260.424 79.6324L270.991 74.7047L257.61 61.4568ZM253.905 65.8171C253.472 66.2176 252.381 65.7393 251.469 64.7493C250.557 63.7593 250.168 62.6247 250.602 62.2243C251.036 61.8238 252.126 62.3021 253.049 63.2921C253.95 64.2932 254.339 65.4167 253.905 65.8171Z" fill="#A3924D"/>
<path d="M257.188 61.7458L247.41 60.5L248.311 68.0862L260.002 79.9215L270.569 74.9938L257.188 61.7458ZM253.484 66.1062C253.05 66.5066 251.96 66.0283 251.047 65.0384C250.135 64.0484 249.746 62.9138 250.18 62.5133C250.614 62.1129 251.704 62.5912 252.616 63.5812C253.528 64.5712 253.917 65.6946 253.484 66.1062Z" fill="#FFEC8D"/>
<path d="M251.028 62.7576C244.855 60.3216 244.666 53.3361 244.51 47.7188C244.399 43.5253 244.299 39.899 241.852 39.2872L241.985 38.7422C244.844 39.4541 244.944 43.2805 245.066 47.6965C245.222 53.4251 245.4 59.9323 251.229 62.2348L251.028 62.7576Z" fill="#673B00"/>
<path d="M59.6953 40.3227L61.019 45.395L62.3316 44.6497L60.8299 39.1992L59.6953 40.3227Z" fill="#FFFDD6"/>
<path d="M61.7617 48.2186L63.0743 53.2908L64.398 52.5345L62.8852 47.084L61.7617 48.2186Z" fill="#FFFDD6"/>
<path d="M64.207 56.6736L65.5196 61.7459L66.8322 60.9895L65.3305 55.5391L64.207 56.6736Z" fill="#FFFDD6"/>
<path d="M65.7109 65.3162L67.0235 70.3885L68.3361 69.6321L66.8344 64.1816L65.7109 65.3162Z" fill="#FFFDD6"/>
<path d="M67.5898 74.516L68.9024 79.5883L70.215 78.843L68.7133 73.3926L67.5898 74.516Z" fill="#FFFDD6"/>
<path d="M69.6484 83.5369L70.9721 88.6092L72.2847 87.8528L70.783 82.4023L69.6484 83.5369Z" fill="#FFFDD6"/>
<path d="M71.9062 93.1137L73.2188 98.186L74.5425 97.4296L73.0297 91.9902L71.9062 93.1137Z" fill="#FFFDD6"/>
<path d="M146.633 92.8472L146.666 98.0974L148.123 97.6858L148.012 92.0352L146.633 92.8472Z" fill="#FFFDD6"/>
<path d="M146.453 84.2138L146.475 89.4529L147.933 89.0413L147.821 83.3906L146.453 84.2138Z" fill="#FFFDD6"/>
<path d="M146.074 75.5712L146.096 80.8103L147.565 80.3987L147.442 74.748L146.074 75.5712Z" fill="#FFFDD6"/>
<path d="M146.074 65.9839L146.096 71.2341L147.565 70.8226L147.442 65.1719L146.074 65.9839Z" fill="#FFFDD6"/>
<path d="M146.266 56.2163L146.288 61.4554L147.756 61.055L147.634 55.4043L146.266 56.2163Z" fill="#FFFDD6"/>
<path d="M145.891 47.0184L145.924 52.2576L147.381 51.846L147.259 46.1953L145.891 47.0184Z" fill="#FFFDD6"/>
<path d="M145.703 37.8081L145.736 43.0472L147.194 42.6468L147.071 36.9961L145.703 37.8081Z" fill="#FFFDD6"/>
<path d="M145.504 28.2313L145.537 33.4705L146.994 33.0589L146.872 27.4082L145.504 28.2313Z" fill="#FFFDD6"/>
<path d="M145.137 18.0868L145.17 23.3259L146.627 22.9144L146.516 17.2637L145.137 18.0868Z" fill="#FFFDD6"/>
<path d="M145.504 7.94227L145.537 13.1814L146.994 12.7698L146.872 7.11914L145.504 7.94227Z" fill="#FFFDD6"/>
<path opacity="0.3" d="M141.859 98.8418L149.868 103.069L148.934 138.385L141.859 98.8418Z" fill="#673B00"/>
<path d="M112.477 198.107C111.576 192.056 112.889 186.539 115.569 183.391C111.521 185.593 109.207 191.577 110.197 198.251C111.153 204.659 114.869 209.731 119.185 211.144C115.948 208.618 113.334 203.824 112.477 198.107Z" fill="#FFECFB"/>
<path d="M192.196 192.457C191.462 187.518 192.53 183.002 194.721 180.443C191.418 182.234 189.515 187.129 190.327 192.579C191.106 197.807 194.143 201.956 197.669 203.102C195.022 201.044 192.886 197.128 192.196 192.457Z" fill="#FFECFB"/>
<path d="M15.0302 178.841C14.4852 174.514 12.1604 171.244 9.82447 171.533C7.48855 171.823 6.04251 175.571 6.58756 179.898C7.1326 184.225 9.45739 187.495 11.7933 187.206C14.1181 186.928 15.5753 183.18 15.0302 178.841Z" fill="#C9B6A9"/>
<path d="M33.5859 167.317L33.864 164.926L37.2455 167.039L33.5859 167.317Z" fill="#B50000"/>
<path d="M33.8594 164.972L70.3553 149.988L36.6736 166.896L33.8594 164.972Z" fill="#B50000"/>
<path opacity="0.8" d="M10.1954 179.487C9.96178 177.196 10.429 175.16 11.2743 174.415C10.7849 173.77 10.2399 173.425 9.6837 173.514C8.29327 173.736 7.43677 176.539 7.75935 179.776C8.08193 183.013 9.47235 185.46 10.8628 185.238C11.3856 185.16 11.8194 184.715 12.1642 184.025C11.2298 183.503 10.4178 181.712 10.1954 179.487Z" fill="#FFFDD6"/>
<path opacity="0.8" d="M13.2356 179.086C13.1244 177.361 12.5126 176.004 11.8897 176.038C11.2668 176.082 10.8441 177.517 10.9664 179.241C11.0777 180.965 11.6894 182.322 12.3124 182.289C12.9353 182.233 13.358 180.81 13.2356 179.086Z" fill="#FFFDD6"/>
<path d="M78.6019 176.172C76.9001 170.921 72.3728 167.418 68.513 168.363C64.6421 169.297 62.8846 174.325 64.5976 179.575C66.2995 184.826 70.8267 188.33 74.6865 187.395C78.5575 186.45 80.3038 181.433 78.6019 176.172Z" fill="#C9B6A9"/>
<path opacity="0.8" d="M70.5813 178.164C69.7804 175.36 70.192 172.713 71.4712 171.578C70.5368 170.9 69.5468 170.611 68.6236 170.855C66.321 171.467 65.3867 175.171 66.5213 179.12C67.6559 183.069 70.4367 185.772 72.7393 185.16C73.5958 184.927 74.2632 184.27 74.7081 183.336C73.0507 182.902 71.3599 180.878 70.5813 178.164Z" fill="#FFFDD6"/>
<path opacity="0.8" d="M75.6173 176.916C75.1056 174.803 73.8486 173.257 72.7919 173.457C71.7463 173.668 71.3125 175.548 71.8242 177.662C72.3359 179.775 73.5928 181.321 74.6495 181.121C75.6951 180.91 76.1289 179.03 75.6173 176.916Z" fill="#FFFDD6"/>
<path opacity="0.4" d="M28.4805 170.866L29.5706 189.898H59.0365L51.5504 170.332L28.4805 170.866Z" fill="#FF3333"/>
<path d="M32.2073 172.557L30.4609 172.579L31.1951 188.597L34.3096 188.452L32.2073 172.557Z" fill="#8C0000"/>
<path d="M36.9576 172.502L34.1211 172.535L36.9798 188.319L39.5716 188.197L36.9576 172.502Z" fill="#8C0000"/>
<path d="M43.0214 172.424L39.2617 172.468L42.1872 188.063L45.6577 187.896L43.0214 172.424Z" fill="#8C0000"/>
<path d="M49.3878 187.718L54.6381 187.462L49.8439 172.334L46.5625 172.367L49.3878 187.718Z" fill="#8C0000"/>
<path d="M2.70214 189.932L86.3724 190.822L98.1298 190.933L91.0887 200.432L2.99135 199.253L1.07812 195.126L2.70214 189.932Z" fill="#E9FFFE"/>
<path opacity="0.5" d="M52.1457 195.371L52.7575 190.377L26.3616 190.154L27.93 195.171L1.07812 194.937L2.99135 199.42L91.3779 200.588L97.062 195.727L52.1457 195.371Z" fill="#431F00"/>
<path d="M91.46 191.711L89.8359 196.072L91.104 200.443L98.5901 198.363L98.2007 191.211L91.46 191.711Z" fill="#697F7E"/>
<path d="M28.957 188.597L30.5032 197.473H49.3462L50.6032 187.051L28.957 188.597Z" fill="#E9FFFE"/>
<path d="M30.9453 190.154L31.8908 195.215L48.2311 195.649L49.0765 188.863L30.9453 190.154Z" fill="#FF6561"/>
<path d="M126.378 196.573C125.766 192.057 123.341 188.642 120.96 188.964C118.58 189.287 117.134 193.214 117.746 197.73C118.358 202.257 120.783 205.661 123.163 205.338C125.543 205.016 126.989 201.089 126.378 196.573Z" fill="#B7AC95"/>
<path d="M204.24 191.267C203.717 187.373 201.537 184.459 199.368 184.748C197.199 185.038 195.864 188.43 196.387 192.323C196.91 196.217 199.09 199.131 201.259 198.842C203.428 198.552 204.763 195.16 204.24 191.267Z" fill="#B7AC95"/>
</svg>
