<svg width="131" height="131" viewBox="0 0 131 131" fill="none" xmlns="http://www.w3.org/2000/svg">
<rect width="131" height="131" rx="65.5" fill="#EAEAEA"/>
<path d="M65.0654 56.8225H62.1521L53.6519 70.0369L52.6263 60.1426L54.0239 56.7912H47.7556L49.1532 60.1426L48.065 70.0995L39.5648 56.8225H36.1509C28.1791 56.8225 21.6953 63.3376 21.6953 71.278V106.523H31.8086V74.1949H31.7773C31.7773 73.3257 32.3371 72.7382 33.2375 72.7382C34.1345 72.7382 34.6942 73.2945 34.6942 74.1949V106.523H66.4943V74.1949C66.4943 73.3257 67.054 72.7382 67.951 72.7382C68.8201 72.7382 69.4111 73.2945 69.4111 74.1949V106.523H79.5245V71.278C79.5245 63.3063 73.0094 56.8225 65.0654 56.8225ZM50.4221 30.8248C44.0322 30.8248 38.8521 36.0048 38.8521 42.3948C38.8521 48.7882 44.0322 53.9682 50.4221 53.9682C56.8155 53.9682 61.9956 48.7882 61.9956 42.3948C61.9956 36.0048 56.8155 30.8248 50.4221 30.8248ZM102.699 26.9102V24.4766H89.1406V26.9102H82.1875V61.6758H93.3125V54.375H98.1797V61.6758H109.305V26.9102H102.699ZM91.2266 49.1602H86.707V44.6406H91.2266V49.1602ZM91.2266 42.5547H86.707V38.0352H91.2266V42.5547ZM91.2266 35.9492H86.707V31.4297H91.2266V35.9492ZM98.1797 49.1602H93.3125V44.6406H98.1797V49.1602ZM98.1797 42.5547H93.3125V38.0352H98.1797V42.5547ZM98.1797 35.9492H93.3125V31.4297H98.1797V35.9492ZM104.785 49.1602H100.266V44.6406H104.785V49.1602ZM104.785 42.5547H100.266V38.0352H104.785V42.5547ZM104.785 35.9492H100.266V31.4297H104.785V35.9492Z" fill="#FF0000"/>
</svg>
