<svg width="178" height="128" viewBox="0 0 178 128" fill="none" xmlns="http://www.w3.org/2000/svg">
<path d="M135.765 17.4662C136.156 15.895 135.748 14.4391 134.851 14.2083C133.954 13.9864 132.898 15.0783 132.507 16.6495C132.117 18.2207 132.525 19.6855 133.422 19.9074C134.318 20.1382 135.366 19.0463 135.765 17.4662Z" fill="#E59673"/>
<path opacity="0.3" d="M135.247 17.4399C135.575 16.1083 135.229 14.8744 134.475 14.688C133.711 14.5016 132.824 15.4248 132.495 16.7475C132.167 18.079 132.513 19.3129 133.267 19.4993C134.031 19.6946 134.919 18.7714 135.247 17.4399Z" fill="#673B00"/>
<path d="M119.499 16.9351C119.001 15.3905 118.185 14.7336 117.306 15.0176C116.418 15.3017 115.806 16.4202 116.303 17.9559C116.8 19.5005 117.918 20.5214 118.797 20.2373C119.676 19.9621 119.987 18.4797 119.499 16.9351Z" fill="#E59673"/>
<path opacity="0.3" d="M119.679 17.1128C119.279 15.87 118.622 15.3373 117.903 15.5681C117.193 15.7989 116.696 16.6955 117.095 17.9383C117.495 19.1811 118.4 20.0067 119.11 19.7759C119.829 19.5539 120.078 18.3555 119.679 17.1128Z" fill="#673B00"/>
<path opacity="0.3" d="M177.024 125.598C151.715 122.713 17.7701 116.783 0.957031 121.932C15.3112 126.725 164.72 130.658 177.024 125.598Z" fill="#431F00"/>
<path d="M133.266 122.677L133.275 122.517L130.692 121.328L130.976 114.209L128.535 113.321L128.819 107.977L127.239 107.684L127.443 98.8603L123.999 95.9752L121.345 96.3214L120.998 98.8603L119.445 98.7537L119.187 95.8154L115.45 94.5372L115.228 89.7613L112.903 88.8736L110.577 89.3175L110.444 93.7382L107.283 94.0312L106.999 88.0924L103.555 85.7223L103.697 77.7063L97.4832 76.002L89.627 83.645L88.5352 120.849C103.99 121.337 119.48 121.985 133.266 122.677Z" fill="#B28869"/>
<path opacity="0.5" d="M98.0064 121.763C86.1112 120.191 22.463 118.806 14.5625 121.603C21.309 124.213 92.2275 124.514 98.0064 121.763Z" fill="#431F00"/>
<path d="M9.54297 99.4457L31.9042 93.498L42.3879 104.337L39.2366 121.807H14.0791L9.54297 99.4457Z" fill="#A8693F"/>
<g opacity="0.8">
<path d="M9.53906 99.4458L14.0752 121.807L31.5807 120.751L31.6073 93.5781L9.53906 99.4458Z" fill="#F2E3A5"/>
<path opacity="0.2" d="M15.16 97.9629L10.7214 106.618L9.16797 99.2944L15.16 97.9629Z" fill="#431F00"/>
<path opacity="0.3" d="M26.5898 94.8562L31.3568 100.289L36.2392 96.0813L31.8983 93.498L26.5898 94.8562Z" fill="#431F00"/>
<path opacity="0.3" d="M26.6992 121.043L31.475 113.16L35.7982 121.149L31.3596 121.824L26.6992 121.043Z" fill="#431F00"/>
</g>
<path d="M59.8398 55.0613L61.5442 22.5093L72.6405 17.627L91.0603 24.7286L89.4358 67.4891L59.8398 55.0613Z" fill="#96744B"/>
<path opacity="0.3" d="M89.7267 59.7479L91.0582 24.728L72.7893 17.6797L71.6797 56.5344L89.7267 59.7479Z" fill="#431F00"/>
<path d="M38.7227 46.2025L48.1323 40.9473L55.8198 45.1994L56.8318 62.2965L40.649 64.0719L38.7227 46.2025Z" fill="#96744B"/>
<path opacity="0.3" d="M39.9258 46.5751L44.0447 53.6856L41.6124 63.5658L44.746 55.0616L48.1104 62.6692L45.1543 53.5081L46.264 43.2285L44.5596 52.3807L39.9258 46.5751Z" fill="#431F00"/>
<path opacity="0.3" d="M56.7236 60.5914L55.8182 45.1986L48.2638 41.0176L47.8555 60.8311L56.7236 60.5914Z" fill="#431F00"/>
<path d="M34.2451 122.376L93.943 121.933L99.0473 56.3936L66.6462 48.6973L31.582 54.6182L34.2451 122.376Z" fill="url(#paint0_linear_1380_8313)"/>
<path d="M32.5742 55.2471L34.2431 122.375L64.203 121.381L66.6442 48.5449L32.5742 55.2471Z" fill="#F2E3A5"/>
<path d="M117.689 117.049L117.582 122.269H120.13L119.357 116.605L117.689 117.049Z" fill="#673B00"/>
<path d="M135.771 117.157L135.664 122.376L137.218 122.27L137.351 116.713L135.771 117.157Z" fill="#673B00"/>
<path d="M141.063 69.9398C140.832 66.4245 140.611 57.5652 138.711 49.2563C138.516 46.2027 138.56 41.1339 139.767 33.7393C124.73 26.2382 114.867 33.9879 114.867 33.9879L117.575 51.804C116.367 62.2612 116.057 72.8692 116.11 72.8692L117.095 119.385L120.38 118.825L126.123 73.5527C128.671 73.4107 126.86 73.5882 129.452 73.3308L135.426 119.092H138.249L141.063 70.0463C141.063 70.0463 141.063 70.0463 141.072 70.0463C141.072 70.0285 141.072 70.0108 141.072 69.993L141.063 69.9398Z" fill="url(#paint1_linear_1380_8313)"/>
<path d="M138.638 47.7381C138.549 44.6223 138.736 40.024 139.765 33.7302C138.815 33.2508 137.875 32.8425 136.969 32.4785L136.738 45.9982L138.638 47.7381Z" fill="#7EB7C4"/>
<path opacity="0.3" d="M136.615 119.091H138.24L141.054 70.0456C141.054 70.0456 141.054 70.0456 141.063 70.0456C141.063 70.0278 141.063 70.0101 141.063 69.9923V69.939H141.054C140.832 66.4237 140.61 57.5645 138.71 49.2556C138.364 46.8144 139.065 39.1979 139.065 39.1979C139.065 39.1979 138.249 39.0115 137.441 39.8992C137.263 45.4562 137.183 55.1588 137.121 66.4593C137.121 67.1162 134.449 65.5716 134.449 66.2373C134.44 67.2227 137.103 70.4451 137.095 71.457C136.997 87.2049 136.908 105.181 136.615 119.091Z" fill="#431F00"/>
<path d="M133.72 36.66L135.051 31.8309C128.562 29.6028 123.84 30.3307 120.227 31.4226L121.452 36.9352L133.72 36.66Z" fill="#7EB7C4"/>
<path d="M130.286 32.3274C130.286 31.2267 128.671 30.3301 126.682 30.3301C124.694 30.3301 123.078 31.2267 123.078 32.3274C123.469 33.3216 125.022 34.3247 127.02 34.3247C129.017 34.3247 129.727 33.4992 130.286 32.3274Z" fill="#597B84"/>
<path opacity="0.3" d="M127.639 33.348L139.765 33.7208C139.765 33.7208 131.083 28.2437 120.91 31.1997C125.011 30.3298 126.787 33.0106 127.639 33.348Z" fill="#431F00"/>
<path d="M124.029 32.0431C124.029 32.0431 122.147 22.882 125.787 22.1719C128.37 22.6424 128.077 20.4675 129.489 32.2118C127.119 34.7684 124.029 32.0431 124.029 32.0431Z" fill="#FFB38A"/>
<path opacity="0.3" d="M123.752 30.3123L127.641 33.3482L128.821 32.9043L129.505 32.2741L128.892 27.8711L123.309 28.2084L123.752 30.3123Z" fill="#673B00"/>
<path d="M135.34 48.6066L137.941 45.9257L136.334 45.5352L135.34 48.6066Z" fill="#2D464C"/>
<path d="M134.699 42.1809C134.699 42.1809 137.202 41.4796 137.167 44.8795C137.131 48.1995 135.835 47.3917 134.601 46.0424C133.367 44.6931 133.518 42.7047 134.699 42.1809Z" fill="#FFB38A"/>
<path d="M119.973 39.4376L136.076 38.6387L133.297 56.7211L121.872 55.5405L119.973 39.4376Z" fill="#EAD67F"/>
<path opacity="0.3" d="M121.238 42.1096L121.682 55.5405L133.293 56.7211L136.072 38.6387L135.335 39.9258L121.238 42.1096Z" fill="#673B00"/>
<path d="M133.552 18.0972C133.659 17.5379 133.721 16.9609 133.721 16.3573C133.899 7.71995 129.913 5.42969 125.972 5.42969C122.03 5.42969 118.746 10.5872 118.746 15.6471C118.746 16.5526 118.639 16.4017 118.834 17.2361C117.991 20.3608 116.66 29.6107 125.173 29.6107C131.449 28.9449 133.224 27.2405 133.552 18.0972Z" fill="#E59673"/>
<path d="M131.671 16.5702C131.679 10.3829 128.812 5.3585 125.261 5.34963C121.711 5.34075 118.302 9.00694 119.465 16.9607C117.76 28.9447 121.977 28.7849 125.528 28.7938C132.807 27.1693 131.662 22.7574 131.671 16.5702Z" fill="#FFB38A"/>
<path d="M118.587 11.4479C117.646 12.1226 117.211 13.2943 117.46 14.4306L118.321 18.2655L118.96 18.0524L119.634 10.6934L118.587 11.4479Z" fill="#673B00"/>
<path d="M133.501 11.4477C134.132 12.0336 134.469 12.868 134.425 13.7291L134.185 18.2031L133.519 18.0966L132.09 10.125L133.501 11.4477Z" fill="#673B00"/>
<path d="M133.822 12.1495L135.518 3.79625L125.833 0.609375L118.039 3.67196L118.98 11.4216L126.259 10.1344L133.822 12.1495Z" fill="#7EB7C4"/>
<path opacity="0.3" d="M134.013 11.1908L135.522 3.78736L125.846 0.609375L125.535 8.66972C125.526 8.67859 131.358 10.4451 134.013 11.1908Z" fill="#431F00"/>
<path d="M118.974 11.4225L116.693 9.78028C116.4 9.56723 116.24 9.21214 116.285 8.84818C116.329 8.48422 116.569 8.18243 116.906 8.0404L120.998 6.407C122.197 5.92764 123.528 5.89216 124.753 6.31825L133.87 9.46958C134.252 9.60274 134.562 9.89568 134.704 10.2774C134.847 10.6591 134.82 11.0852 134.616 11.4403L133.897 12.7097L126.839 10.8988C125.455 10.5437 123.999 10.4904 122.596 10.7479L118.974 11.4225Z" fill="#7EB7C4"/>
<path d="M118.974 11.7956L116.693 10.1533C116.4 9.94027 116.24 9.5852 116.285 9.22124C116.329 8.85728 116.569 8.55546 116.906 8.41343L120.998 6.78006C122.197 6.3007 123.528 6.26519 124.753 6.69129L133.87 9.84264C134.252 9.9758 134.562 10.2687 134.704 10.6505C134.847 11.0322 134.82 11.4583 134.616 11.8133L133.897 13.0827L126.839 11.2718C125.455 10.9167 123.999 10.8635 122.596 11.1209L118.974 11.7956Z" fill="#597B84"/>
<path d="M120.061 121.931C117.247 121.336 116.51 121.043 107.598 125.375C107.669 126.76 120.132 123.316 120.061 121.931Z" fill="#423321"/>
<path d="M136.67 121.311C135.107 120.574 134.113 125.483 134.832 127.658C139.288 126.371 138.09 121.977 136.67 121.311Z" fill="#423321"/>
<path d="M123.496 17.9101C123.496 17.2532 123.3 17.0312 123.016 17.0312C122.732 17.0312 122.457 17.2532 122.457 17.9101C122.457 18.567 122.688 19.0907 122.972 19.0907C123.265 19.0996 123.496 18.567 123.496 17.9101Z" fill="#4C3F32"/>
<path d="M130.526 17.6175C130.526 16.9606 130.295 16.7031 130.011 16.7031C129.727 16.7031 129.496 16.9694 129.496 17.6175C129.496 18.2744 129.727 18.7981 130.011 18.7981C130.295 18.7981 130.526 18.2744 130.526 17.6175Z" fill="#4C3F32"/>
<path d="M126.291 17.547C125.475 17.5292 125.67 20.2367 125.643 21.2842C125.617 22.3317 127.277 22.5625 128.058 22.4293C130.126 21.6304 127.126 20.139 126.291 17.547Z" fill="#EA5D49"/>
<path d="M128.527 14.209C128.527 14.209 131.439 14.7949 131.901 14.6351C132.371 14.4664 132.407 15.9666 131.652 16.0199C130.897 16.082 128.634 16.3128 128.527 14.209Z" fill="#673B00"/>
<path d="M124.119 14.0664C124.119 14.0664 121.358 15.034 120.879 14.9364C120.4 14.8387 120.568 16.3212 121.314 16.2768C122.06 16.2235 124.306 16.1614 124.119 14.0664Z" fill="#673B00"/>
<path opacity="0.3" d="M73.1523 62.3047C73.1523 62.3047 75.7444 81.7631 77.076 83.3166L86.6188 84.6481C86.6188 84.6481 83.5118 74.6615 82.6241 65.5626C80.254 64.8258 73.1523 62.3047 73.1523 62.3047Z" fill="#431F00"/>
<path d="M73.0118 61.125C73.0118 61.125 72.639 79.101 75.524 82.2079L84.1081 83.4685C84.1081 83.4685 81.6669 69.4161 82.7055 65.2706C80.3354 64.5249 73.0118 61.125 73.0118 61.125Z" fill="#FFF8CB"/>
<path d="M118.271 32.123C116.069 33.0285 114.871 33.9784 114.871 33.9784L117.543 51.5815L118.804 50.6938L118.271 32.123Z" fill="#7EB7C4"/>
<path d="M65.0226 52.0957L48.2273 83.0942L33.4648 60.2359L48.0054 87.3108L65.0226 53.8711V52.0957Z" fill="#EAD67F"/>
<path opacity="0.3" d="M126.273 26.2106L128.448 25.9531L127.419 27.1693L126.273 26.2106Z" fill="#673B00"/>
<mask id="mask0_1380_8313" style="mask-type:luminance" maskUnits="userSpaceOnUse" x="114" y="30" width="28" height="90">
<path d="M141.067 69.9398C140.836 66.4245 140.614 57.5652 138.715 49.2563C138.519 46.2027 138.564 41.1339 139.771 33.7393C124.733 26.2382 114.871 33.9879 114.871 33.9879L117.579 51.804C116.371 62.2612 116.061 72.8692 116.114 72.8692L117.099 119.385L120.384 118.825L126.127 73.5527C128.675 73.4107 126.864 73.5882 129.456 73.3308L135.43 119.092H138.253L141.067 70.0463C141.067 70.0463 141.067 70.0463 141.076 70.0463C141.076 70.0285 141.076 70.0108 141.076 69.993L141.067 69.9398Z" fill="white"/>
</mask>
<g mask="url(#mask0_1380_8313)">
<path opacity="0.3" d="M122.795 119.047L118.801 120.156L122.795 71.5547L128.344 74.6616L122.795 119.047Z" fill="#431F00"/>
</g>
<path d="M125.883 52.3358C125.821 52.1938 124.729 52.4956 123.424 53.0282C122.128 53.5519 121.116 54.0934 121.178 54.2355C121.241 54.3775 122.333 54.0668 123.637 53.5431C124.942 53.0193 125.945 52.4778 125.883 52.3358Z" fill="#FFB38A"/>
<path d="M126.096 53.4991C126.052 53.3481 124.969 53.5257 123.682 53.8985C122.395 54.2713 121.383 54.6975 121.427 54.8572C121.472 55.0081 122.555 54.8306 123.842 54.4578C125.129 54.0761 126.141 53.65 126.096 53.4991Z" fill="#FFB38A"/>
<path d="M126.126 55.0355C126.108 54.9112 124.936 54.9911 123.498 55.2041C122.069 55.4172 120.924 55.6924 120.942 55.8166C120.959 55.9409 122.131 55.861 123.569 55.648C124.998 55.4349 126.144 55.1598 126.126 55.0355Z" fill="#FFB38A"/>
<path d="M122.543 54.2716C122.88 55.1326 122.96 56.0825 120.537 55.9404C118.167 55.8073 118.788 54.9018 119.791 54.0674C120.794 53.2418 122.206 53.4105 122.543 54.2716Z" fill="#FFB38A"/>
<path d="M120.984 53.6669C120.984 53.6669 121.57 52.8414 121.632 52.5484C121.695 52.2555 121.677 51.3234 121.508 50.8529C121.357 50.4446 121.845 50.4446 121.952 50.7553C122.058 51.066 122.227 51.8738 122.165 52.4596C122.129 52.8325 122.085 53.2941 121.854 53.7291C121.641 54.1729 120.984 53.6669 120.984 53.6669Z" fill="#FFB38A"/>
<path d="M114.874 33.916C114.288 35.4784 100.334 60.9731 119.57 56.9075L119.02 53.8005C119.02 53.8005 105.482 57.3247 118.168 37.4136L114.874 33.916Z" fill="#7EB7C4"/>
<path d="M135.328 48.5284C135.328 48.5284 157.414 68.0312 139.758 33.7305L137.556 36.509C137.556 36.509 150.863 59.0211 137.885 45.9275L135.328 48.5284Z" fill="#7EB7C4"/>
<path d="M122.912 21.009C122.912 20.6717 122.069 20.3965 121.03 20.3965C119.992 20.3965 119.148 20.6717 119.148 21.009C119.148 21.3463 119.992 21.6215 121.03 21.6215C122.069 21.6215 122.912 21.3463 122.912 21.009Z" fill="#E59673"/>
<path d="M132.999 20.228C132.937 19.8996 132.058 19.7842 131.029 19.9883C130.008 20.1836 129.226 20.6097 129.289 20.947C129.351 21.2755 130.23 21.3909 131.259 21.1867C132.289 20.9914 133.07 20.5565 132.999 20.228Z" fill="#E59673"/>
<path opacity="0.3" d="M119.537 65.2695L117.211 69.5926L117.317 66.823L119.537 65.2695Z" fill="#431F00"/>
<path d="M116.358 62.8294L116.207 60.974L141.214 60.832L141.143 63.1933L116.358 62.8294Z" fill="#673B00"/>
<path opacity="0.8" d="M116.207 60.9737L116.358 62.829L135.284 63.1131L135.364 60.8672L116.207 60.9737Z" fill="#F2E3A5"/>
<path opacity="0.3" d="M116.359 62.304L116.608 62.8455L116.528 63.5379L140.771 64.7806L140.665 63.2005L141.135 63.1739L141.188 62.1797L116.359 62.304Z" fill="#431F00"/>
<path d="M124.5 60.4576L124.642 63.2716L128.939 63.4935V60.3066L124.5 60.4576Z" fill="#EAD67F"/>
<path d="M134.184 66.1582L139.067 72.2212L138.481 74.2185L133.82 67.4898L134.184 66.1582Z" fill="#77A3BC"/>
<path d="M116.426 70.6665L119.755 64.8965L121.388 65.7842L117.171 72.291L116.426 70.6665Z" fill="#77A3BC"/>
<path opacity="0.3" d="M135.328 48.5284C135.328 48.5284 157.414 68.0312 139.758 33.7305C139.287 35.9852 151.83 60.9651 137.885 45.9275L135.328 48.5284Z" fill="#431F00"/>
<path d="M49.8867 55.5769L51.3337 60.2373L57.1037 59.2431L58.4353 54.0234L49.8867 55.5769Z" fill="#EAD67F"/>
<path d="M50.668 55.8593L51.8486 59.6675L56.5712 58.8508L57.6631 54.5898L50.668 55.8593Z" fill="#FFF8CB"/>
<path opacity="0.7" d="M53.3903 105.234L50.0703 113.419L53.2927 119.713L60.128 111.235L53.3903 105.234ZM50.8959 113.117L53.4968 106.948L58.0507 111.502L53.4347 117.662L50.8959 113.117Z" fill="#D67641"/>
<path opacity="0.7" d="M53.1602 108.244L53.462 112.505L54.0567 112.443L54.3497 109.114L53.1602 108.244Z" fill="#D67641"/>
<path opacity="0.7" d="M53.125 114.067L53.267 115.648L54.0748 115.177L54.2524 113.863L53.125 114.067Z" fill="#D67641"/>
<path opacity="0.7" d="M127.285 20.9024C127.134 20.3697 126.762 20.0147 126.442 20.1034C126.122 20.1922 125.989 20.6982 126.14 21.2219C126.291 21.7545 126.664 22.1096 126.984 22.0209C127.303 21.941 127.436 21.435 127.285 20.9024Z" fill="#FFF5E6"/>
<path d="M37.5742 119.376L47.7828 82.4297L60.4325 105.954L48.0047 87.534L37.5742 119.376Z" fill="#EAD67F"/>
<path opacity="0.2" d="M12.9414 116.383L19.4926 121.824L14.0777 121.807L12.9414 116.383Z" fill="#431F00"/>
<path opacity="0.3" d="M74.1914 64.6758L74.2979 66.2293L81.3995 68.3331L81.1865 67.0016L74.1914 64.6758Z" fill="#431F00"/>
<path opacity="0.3" d="M74.4141 68.4473L74.636 70.0007L81.4003 71.1104L81.0718 70.1073L74.4141 68.4473Z" fill="#431F00"/>
<path opacity="0.3" d="M74.6328 71.8828L74.8547 73.4452L81.7344 74.2175L81.1841 73.0013L74.6328 71.8828Z" fill="#431F00"/>
<path opacity="0.3" d="M78.967 77.4395L78.8516 78.4337L82.287 78.8775L82.1804 77.546L78.967 77.4395Z" fill="#431F00"/>
<path opacity="0.6" d="M44.3047 97.0769C44.3047 97.0769 44.5976 101.737 45.0415 101.737C45.4853 101.737 60.2833 100.699 60.2833 100.699L60.5763 91.9727L44.3047 97.0769ZM58.7565 99.4205C58.7565 99.4205 46.3908 100.779 46.0357 100.796C45.6806 100.823 45.4942 97.8492 45.4942 97.8492L58.863 94.0943L58.7565 99.4205Z" fill="#D67641"/>
<path opacity="0.6" d="M46.8242 98.337L46.9219 99.7129L57.379 98.5323L57.4766 96.0645L46.8242 98.337Z" fill="#D67641"/>
<path opacity="0.3" d="M61.8717 23.7347L66.6387 34.9997L61.2148 49.1407L67.4288 37.1568L70.9796 49.0342L68.3165 34.9375L71.8673 19.9531L67.6418 33.1621L61.8717 23.7347Z" fill="#431F00"/>
<path d="M129.346 23.5217C128.974 24.2584 127.953 24.7822 126.728 24.7822C125.449 24.7822 124.384 24.1963 124.065 23.4062H123.852C123.887 24.4182 125.156 25.226 126.728 25.226C128.237 25.226 129.462 24.4715 129.586 23.5217H129.346Z" fill="#4C3F32"/>
<path opacity="0.3" d="M135.335 39.9258L132.628 55.7269L122.277 55.505L133.294 56.7211L136.072 38.6387L135.335 39.9258Z" fill="#431F00"/>
<path d="M139.769 33.7297C139.769 33.7208 139.769 33.7208 139.76 33.7208L139.769 33.7297C135.907 31.8034 132.392 30.8802 129.294 30.5783C129.214 29.9303 129.143 29.3267 129.072 28.7763C132.223 27.7199 134.416 25.3942 134.416 22.6956C134.416 22.0209 134.265 21.0267 134.007 19.8638C134.735 19.6241 135.445 18.7009 135.756 17.467C136.147 15.8958 135.738 14.4399 134.842 14.2091C134.46 14.1115 134.061 14.2624 133.688 14.5731C133.661 14.0138 133.608 13.4901 133.537 12.9841L133.901 13.0729L134.62 11.8035C134.771 11.5372 134.824 11.2265 134.78 10.9247C134.806 10.7027 134.789 10.4808 134.709 10.2677C134.629 10.0547 134.487 9.86827 134.318 9.71736L135.525 3.76978L125.832 0.591797L118.038 3.65438L118.49 7.40048L116.901 8.03962C116.564 8.17278 116.324 8.48345 116.28 8.84741C116.271 8.95393 116.28 9.05158 116.298 9.15811C116.298 9.17586 116.28 9.19362 116.28 9.22025C116.236 9.58421 116.395 9.93928 116.688 10.1523L118.97 11.7946C118.97 11.7946 118.757 14.218 118.739 15.5052C118.313 15.0258 117.816 14.8572 117.292 15.0258C116.404 15.3099 115.792 16.4284 116.289 17.9641C116.608 18.9672 117.194 19.7395 117.807 20.0857C117.62 21.0888 117.549 22.1718 117.461 23.4678C117.461 26.7523 119.618 28.8651 123.639 29.3089C123.683 29.806 123.737 30.2676 123.799 30.6582C118.49 31.3595 115.286 33.6587 114.904 33.9427L114.877 33.9161C114.318 35.3986 101.695 58.5232 117.008 57.2804C116.262 65.6603 116.058 72.8596 116.102 72.8507L117.088 119.366L120.372 118.807L126.125 73.552C128.672 73.4099 126.861 73.5875 129.453 73.33L135.428 119.091H138.251L141.065 70.0455C141.065 70.0455 141.065 70.0455 141.073 70.0455C141.073 70.0278 141.073 70.01 141.073 69.9923V69.939H141.065C140.86 66.7433 140.656 59.1179 139.192 51.5192C144.598 55.2298 152.454 58.3989 139.769 33.7297ZM115.952 41.1331L117.567 51.7944C117.478 52.5401 117.398 53.2858 117.319 54.0314C114.425 54.1557 109.427 52.9396 115.952 41.1331ZM138.623 46.6546C138.615 44.6573 138.712 42.1451 139.041 39.0914C142.023 44.462 147.749 55.5849 138.623 46.6546Z" fill="url(#paint2_linear_1380_8313)"/>
<path opacity="0.3" d="M119.056 11.8568C119.021 12.638 119.074 14.4844 119.074 14.4844C119.074 14.4844 127.046 20.2545 134.369 16.2598C134.369 15.2212 134.52 14.0761 134.218 12.4871C135.177 10.8981 134.813 10.0459 133.073 9.63757C131.111 9.05169 126.566 7.12539 123.566 6.45961C122.163 6.08677 118.497 7.68464 116.615 8.67886C115.364 10.0814 118.834 11.342 119.056 11.8568Z" fill="#431F00"/>
<defs>
<linearGradient id="paint0_linear_1380_8313" x1="36.0047" y1="64.7419" x2="99.4758" y2="115.785" gradientUnits="userSpaceOnUse">
<stop stop-color="#EAD67F"/>
<stop offset="0.9946" stop-color="#EAB57D"/>
</linearGradient>
<linearGradient id="paint1_linear_1380_8313" x1="161.533" y1="69.4694" x2="102.946" y2="79.8261" gradientUnits="userSpaceOnUse">
<stop stop-color="#597B84"/>
<stop offset="1" stop-color="#599ABF"/>
</linearGradient>
<linearGradient id="paint2_linear_1380_8313" x1="103.992" y1="-1.98351" x2="143.495" y2="110.533" gradientUnits="userSpaceOnUse">
<stop stop-color="#FFFCE9"/>
<stop offset="1" stop-color="#FF0000"/>
</linearGradient>
</defs>
</svg>
