<svg width="304" height="220" viewBox="0 0 304 220" fill="none" xmlns="http://www.w3.org/2000/svg">
<path d="M232.76 29.1374C233.434 26.4245 232.729 23.9108 231.181 23.5123C229.633 23.1292 227.809 25.0144 227.135 27.7273C226.46 30.4402 227.165 32.9693 228.713 33.3524C230.261 33.7509 232.07 31.8657 232.76 29.1374Z" fill="#E59673"/>
<path opacity="0.3" d="M231.87 29.0916C232.437 26.7925 231.839 24.662 230.537 24.3401C229.218 24.0183 227.686 25.6123 227.119 27.8961C226.551 30.1951 227.149 32.3256 228.452 32.6475C229.77 32.9847 231.303 31.3907 231.87 29.0916Z" fill="#673B00"/>
<path d="M204.68 28.217C203.822 25.55 202.412 24.4158 200.895 24.9063C199.362 25.3968 198.304 27.328 199.163 29.9796C200.021 32.6465 201.952 34.4092 203.469 33.9187C204.987 33.4436 205.523 30.8839 204.68 28.217Z" fill="#E59673"/>
<path opacity="0.3" d="M204.987 28.5233C204.297 26.3775 203.163 25.4578 201.922 25.8563C200.695 26.2548 199.837 27.8029 200.527 29.9487C201.217 32.0945 202.78 33.5199 204.006 33.1214C205.248 32.7383 205.677 30.6691 204.987 28.5233Z" fill="#673B00"/>
<path opacity="0.3" d="M304 215.838C260.302 210.857 29.0297 200.618 0 209.508C24.7841 217.785 282.756 224.575 304 215.838Z" fill="#431F00"/>
<path d="M228.453 210.796L228.468 210.52L224.008 208.466L224.498 196.173L220.283 194.641L220.774 185.414L218.045 184.908L218.398 169.673L212.451 164.691L207.868 165.289L207.27 169.673L204.588 169.489L204.144 164.415L197.691 162.208L197.308 153.962L193.292 152.43L189.276 153.196L189.046 160.829L183.59 161.335L183.099 151.081L177.152 146.988L177.398 133.148L166.669 130.205L153.104 143.402L151.219 207.638C177.903 208.481 204.649 209.6 228.453 210.796Z" fill="#B28869"/>
<path opacity="0.5" d="M167.572 209.216C147.033 206.503 37.1373 204.112 23.4961 208.94C35.1448 213.446 157.594 213.967 167.572 209.216Z" fill="#431F00"/>
<path d="M14.8223 170.683L53.4315 160.414L71.533 179.129L66.0918 209.293H22.6545L14.8223 170.683Z" fill="#A8693F"/>
<g opacity="0.8">
<path d="M14.8223 170.684L22.6545 209.293L52.8797 207.469L52.9257 160.553L14.8223 170.684Z" fill="#F2E3A5"/>
<path opacity="0.2" d="M24.5236 168.123L16.86 183.067L14.1777 170.422L24.5236 168.123Z" fill="#431F00"/>
<path opacity="0.3" d="M44.2656 162.759L52.4963 172.139L60.9263 164.874L53.4313 160.414L44.2656 162.759Z" fill="#431F00"/>
<path opacity="0.3" d="M44.4492 207.974L52.6953 194.363L60.1596 208.158L52.496 209.323L44.4492 207.974Z" fill="#431F00"/>
</g>
<path d="M101.666 94.047L104.609 37.8421L123.768 29.4121L155.572 41.6739L152.767 115.505L101.666 94.047Z" fill="#96744B"/>
<path opacity="0.3" d="M153.272 102.142L155.571 41.6757L124.027 29.5059L122.111 96.5931L153.272 102.142Z" fill="#431F00"/>
<path d="M65.2012 78.7515L81.448 69.6777L94.7214 77.0195L96.4687 106.54L68.5272 109.605L65.2012 78.7515Z" fill="#96744B"/>
<path opacity="0.3" d="M67.2871 79.3955L74.3989 91.6726L70.1993 108.732L75.6098 94.0484L81.4188 107.184L76.3148 91.3661L78.2307 73.6172L75.2879 89.4195L67.2871 79.3955Z" fill="#431F00"/>
<path opacity="0.3" d="M96.2865 103.597L94.7231 77.0199L81.6797 69.8008L80.9746 104.011L96.2865 103.597Z" fill="#431F00"/>
<path d="M57.4771 210.274L160.553 209.508L169.366 96.3473L113.421 83.0586L52.8789 93.2819L57.4771 210.274Z" fill="url(#paint0_linear_769_2117)"/>
<path d="M54.5957 94.3689L57.4772 210.273L109.207 208.557L113.422 82.7969L54.5957 94.3689Z" fill="#F2E3A5"/>
<path d="M201.553 201.077L201.369 210.089H205.768L204.435 200.311L201.553 201.077Z" fill="#673B00"/>
<path d="M232.774 201.262L232.59 210.275L235.272 210.091L235.502 200.496L232.774 201.262Z" fill="#673B00"/>
<path d="M241.91 119.735C241.512 113.666 241.129 98.3693 237.849 84.023C237.511 78.7504 237.588 69.9986 239.673 57.231C213.708 44.2795 196.68 57.6602 196.68 57.6602L201.354 88.4219C199.27 106.477 198.734 124.793 198.825 124.793L200.527 205.108L206.198 204.142L216.115 125.974C220.513 125.728 217.387 126.035 221.862 125.59L232.178 204.602H237.052L241.91 119.919C241.91 119.919 241.91 119.919 241.926 119.919C241.926 119.889 241.926 119.858 241.926 119.827L241.91 119.735Z" fill="url(#paint1_linear_769_2117)"/>
<path d="M237.725 81.4022C237.572 76.0223 237.894 68.0828 239.672 57.2158C238.032 56.3882 236.407 55.6831 234.844 55.0547L234.445 78.398L237.725 81.4022Z" fill="#7EB7C4"/>
<path opacity="0.3" d="M234.23 204.602H237.035L241.894 119.919C241.894 119.919 241.894 119.919 241.909 119.919C241.909 119.888 241.909 119.858 241.909 119.827V119.735H241.894C241.511 113.666 241.127 98.3691 237.847 84.0228C237.25 79.8078 238.46 66.6571 238.46 66.6571C238.46 66.6571 237.05 66.3352 235.656 67.8679C235.349 77.4628 235.211 94.2154 235.104 113.727C235.104 114.861 230.49 112.194 230.49 113.344C230.475 115.045 235.073 120.609 235.058 122.356C234.889 149.547 234.736 180.584 234.23 204.602Z" fill="#431F00"/>
<path d="M229.233 62.2748L231.532 53.9368C220.328 50.0896 212.174 51.3465 205.936 53.2317L208.051 62.7499L229.233 62.2748Z" fill="#7EB7C4"/>
<path d="M223.301 54.7943C223.301 52.8938 220.512 51.3457 217.078 51.3457C213.645 51.3457 210.855 52.8938 210.855 54.7943C211.53 56.511 214.212 58.243 217.661 58.243C221.109 58.243 222.336 56.8175 223.301 54.7943Z" fill="#597B84"/>
<path opacity="0.3" d="M218.733 56.5568L239.67 57.2006C239.67 57.2006 224.68 47.7437 207.115 52.8476C214.196 51.3456 217.262 55.9744 218.733 56.5568Z" fill="#431F00"/>
<path d="M212.496 54.3036C212.496 54.3036 209.247 38.4859 215.531 37.2598C219.991 38.0721 219.485 34.3169 221.922 54.5948C217.83 59.0091 212.496 54.3036 212.496 54.3036Z" fill="#FFB38A"/>
<path opacity="0.3" d="M212.022 51.3165L218.736 56.5584L220.774 55.7921L221.954 54.7038L220.897 47.1016L211.256 47.684L212.022 51.3165Z" fill="#673B00"/>
<path d="M232.023 82.9048L236.514 78.276L233.74 77.6016L232.023 82.9048Z" fill="#2D464C"/>
<path d="M230.919 71.8084C230.919 71.8084 235.242 70.5975 235.18 76.4678C235.119 82.2002 232.881 80.8054 230.751 78.4757C228.62 76.146 228.881 72.7127 230.919 71.8084Z" fill="#FFB38A"/>
<path d="M205.492 67.0728L233.296 65.6934L228.498 96.9149L208.772 94.8763L205.492 67.0728Z" fill="#EAD67F"/>
<path opacity="0.3" d="M207.684 71.6863L208.45 94.8763L228.498 96.9149L233.295 65.6934L232.023 67.9158L207.684 71.6863Z" fill="#673B00"/>
<path d="M228.942 30.2254C229.126 29.2598 229.233 28.2636 229.233 27.2213C229.54 12.3079 222.658 8.35352 215.853 8.35352C209.047 8.35352 203.376 17.2586 203.376 25.9951C203.376 27.5585 203.192 27.2979 203.53 28.7387C202.074 34.1339 199.774 50.1048 214.473 50.1048C225.31 48.9553 228.375 46.0125 228.942 30.2254Z" fill="#E59673"/>
<path d="M225.692 27.5884C225.708 16.9054 220.757 8.2302 214.626 8.21487C208.495 8.19954 202.61 14.5297 204.617 28.2628C201.675 48.9546 208.955 48.6787 215.086 48.694C227.654 45.8891 225.677 38.2715 225.692 27.5884Z" fill="#FFB38A"/>
<path d="M203.101 18.7462C201.476 19.9111 200.725 21.9342 201.154 23.8961L202.641 30.5175L203.744 30.1496L204.909 17.4434L203.101 18.7462Z" fill="#673B00"/>
<path d="M228.851 18.7447C229.939 19.7563 230.522 21.197 230.445 22.6838L230.031 30.4087L228.882 30.2248L226.414 16.4609L228.851 18.7447Z" fill="#673B00"/>
<path d="M229.402 19.9566L232.33 5.53376L215.608 0.03125L202.15 5.31916L203.775 18.6998L216.343 16.4774L229.402 19.9566Z" fill="#7EB7C4"/>
<path opacity="0.3" d="M229.739 18.3013L232.345 5.51842L215.638 0.03125L215.102 13.9484C215.086 13.9637 225.156 17.0138 229.739 18.3013Z" fill="#431F00"/>
<path d="M203.776 18.6986L199.837 15.8631C199.331 15.4952 199.055 14.8821 199.132 14.2537C199.208 13.6253 199.622 13.1042 200.205 12.8589L207.271 10.0387C209.34 9.21102 211.639 9.14975 213.754 9.88545L229.495 15.3266C230.154 15.5565 230.691 16.0623 230.936 16.7214C231.181 17.3804 231.135 18.1162 230.783 18.7292L229.541 20.921L217.356 17.7943C214.965 17.1812 212.451 17.0892 210.029 17.5337L203.776 18.6986Z" fill="#7EB7C4"/>
<path d="M203.776 19.3431L199.837 16.5076C199.331 16.1397 199.055 15.5266 199.132 14.8982C199.208 14.2698 199.622 13.7487 200.205 13.5034L207.271 10.6832C209.34 9.85558 211.639 9.79426 213.754 10.53L229.495 15.9712C230.154 16.2011 230.691 16.7069 230.936 17.3659C231.181 18.025 231.135 18.7607 230.783 19.3738L229.541 21.5656L217.356 18.4388C214.965 17.8257 212.451 17.7338 210.029 18.1783L203.776 19.3431Z" fill="#597B84"/>
<path d="M205.644 209.508C200.786 208.481 199.514 207.976 184.125 215.455C184.248 217.846 205.767 211.899 205.644 209.508Z" fill="#423321"/>
<path d="M234.322 208.435C231.625 207.163 229.908 215.639 231.15 219.394C238.844 217.172 236.775 209.585 234.322 208.435Z" fill="#423321"/>
<path d="M211.576 29.9041C211.576 28.7699 211.239 28.3867 210.749 28.3867C210.258 28.3867 209.783 28.7699 209.783 29.9041C209.783 31.0384 210.182 31.9426 210.672 31.9426C211.178 31.958 211.576 31.0384 211.576 29.9041Z" fill="#4C3F32"/>
<path d="M223.715 29.3971C223.715 28.2628 223.317 27.8184 222.826 27.8184C222.336 27.8184 221.938 28.2782 221.938 29.3971C221.938 30.5313 222.336 31.4356 222.826 31.4356C223.317 31.4356 223.715 30.5313 223.715 29.3971Z" fill="#4C3F32"/>
<path d="M216.405 29.2755C214.995 29.2449 215.332 33.9197 215.286 35.7283C215.24 37.5369 218.106 37.9354 219.455 37.7055C223.026 36.3261 217.846 33.7511 216.405 29.2755Z" fill="#EA5D49"/>
<path d="M220.268 23.5117C220.268 23.5117 225.295 24.5233 226.092 24.2474C226.904 23.9562 226.966 26.5465 225.663 26.6385C224.36 26.7458 220.452 27.1443 220.268 23.5117Z" fill="#673B00"/>
<path d="M212.65 23.2676C212.65 23.2676 207.883 24.9383 207.055 24.7697C206.228 24.6011 206.519 27.1607 207.806 27.0841C209.094 26.9921 212.972 26.8848 212.65 23.2676Z" fill="#673B00"/>
<path opacity="0.3" d="M124.656 106.555C124.656 106.555 129.132 140.152 131.431 142.834L147.908 145.133C147.908 145.133 142.543 127.89 141.01 112.18C136.918 110.908 124.656 106.555 124.656 106.555Z" fill="#431F00"/>
<path d="M124.412 104.516C124.412 104.516 123.768 135.553 128.75 140.918L143.571 143.094C143.571 143.094 139.356 118.831 141.149 111.673C137.057 110.386 124.412 104.516 124.412 104.516Z" fill="#FFF8CB"/>
<path d="M202.55 54.4414C198.749 56.0048 196.68 57.6448 196.68 57.6448L201.293 88.0387L203.47 86.506L202.55 54.4414Z" fill="#7EB7C4"/>
<path d="M110.617 88.9277L81.6181 142.45L56.1289 102.983L81.2349 149.731L110.617 91.9932V88.9277Z" fill="#EAD67F"/>
<path opacity="0.3" d="M216.375 44.2336L220.13 43.7891L218.352 45.8889L216.375 44.2336Z" fill="#673B00"/>
<mask id="mask0_769_2117" style="mask-type:luminance" maskUnits="userSpaceOnUse" x="196" y="51" width="46" height="155">
<path d="M241.91 119.735C241.512 113.666 241.129 98.3693 237.849 84.023C237.511 78.7504 237.588 69.9986 239.673 57.231C213.708 44.2795 196.68 57.6602 196.68 57.6602L201.354 88.4219C199.27 106.477 198.734 124.793 198.825 124.793L200.527 205.108L206.198 204.142L216.115 125.974C220.513 125.728 217.387 126.035 221.862 125.59L232.178 204.602H237.052L241.91 119.919C241.91 119.919 241.91 119.919 241.926 119.919C241.926 119.889 241.926 119.858 241.926 119.827L241.91 119.735Z" fill="white"/>
</mask>
<g mask="url(#mask0_769_2117)">
<path opacity="0.3" d="M210.366 204.526L203.469 206.442L210.366 122.525L219.946 127.89L210.366 204.526Z" fill="#431F00"/>
</g>
<path d="M215.7 89.3417C215.593 89.0965 213.708 89.6176 211.455 90.5372C209.217 91.4415 207.47 92.3765 207.577 92.6217C207.684 92.8669 209.569 92.3305 211.823 91.4262C214.076 90.5219 215.808 89.5869 215.7 89.3417Z" fill="#FFB38A"/>
<path d="M216.068 91.3506C215.992 91.09 214.122 91.3966 211.899 92.0403C209.677 92.684 207.93 93.4198 208.006 93.6957C208.083 93.9562 209.953 93.6497 212.175 93.0059C214.398 92.3469 216.145 91.6112 216.068 91.3506Z" fill="#FFB38A"/>
<path d="M216.114 94.0021C216.083 93.7875 214.06 93.9254 211.577 94.2933C209.109 94.6612 207.132 95.1363 207.162 95.3509C207.193 95.5655 209.216 95.4275 211.699 95.0597C214.167 94.6918 216.144 94.2167 216.114 94.0021Z" fill="#FFB38A"/>
<path d="M209.937 92.6839C210.52 94.1707 210.657 95.8107 206.473 95.5655C202.381 95.3356 203.454 93.7722 205.186 92.3314C206.918 90.906 209.355 91.1972 209.937 92.6839Z" fill="#FFB38A"/>
<path d="M207.238 91.6412C207.238 91.6412 208.25 90.2158 208.357 89.71C208.464 89.2042 208.434 87.5948 208.143 86.7825C207.882 86.0774 208.725 86.0774 208.909 86.6139C209.093 87.1503 209.384 88.5451 209.277 89.5567C209.215 90.2004 209.139 90.9975 208.74 91.7485C208.372 92.5149 207.238 91.6412 207.238 91.6412Z" fill="#FFB38A"/>
<path d="M196.694 57.5391C195.682 60.2367 171.588 104.256 204.802 97.2365L203.852 91.872C203.852 91.872 180.478 97.9569 202.38 63.578L196.694 57.5391Z" fill="#7EB7C4"/>
<path d="M232.008 82.7672C232.008 82.7672 270.142 116.441 239.656 57.2168L235.855 62.0142C235.855 62.0142 258.83 100.884 236.422 78.2764L232.008 82.7672Z" fill="#7EB7C4"/>
<path d="M210.565 35.2529C210.565 34.6705 209.109 34.1953 207.316 34.1953C205.522 34.1953 204.066 34.6705 204.066 35.2529C204.066 35.8353 205.522 36.3105 207.316 36.3105C209.109 36.3105 210.565 35.8353 210.565 35.2529Z" fill="#E59673"/>
<path d="M227.993 33.9037C227.886 33.3366 226.368 33.1374 224.59 33.4899C222.828 33.8271 221.479 34.5628 221.586 35.1452C221.693 35.7123 223.211 35.9116 224.989 35.5591C226.767 35.2219 228.115 34.4708 227.993 33.9037Z" fill="#E59673"/>
<path opacity="0.3" d="M204.74 111.674L200.725 119.138L200.909 114.356L204.74 111.674Z" fill="#431F00"/>
<path d="M199.255 107.458L198.994 104.255L242.171 104.01L242.048 108.087L199.255 107.458Z" fill="#673B00"/>
<path opacity="0.8" d="M198.994 104.256L199.255 107.46L231.932 107.95L232.07 104.072L198.994 104.256Z" fill="#F2E3A5"/>
<path opacity="0.3" d="M199.254 106.554L199.683 107.489L199.545 108.685L241.404 110.831L241.22 108.102L242.032 108.056L242.124 106.34L199.254 106.554Z" fill="#431F00"/>
<path d="M213.309 103.366L213.554 108.225L220.972 108.608V103.105L213.309 103.366Z" fill="#EAD67F"/>
<path d="M230.031 113.207L238.461 123.675L237.449 127.124L229.402 115.506L230.031 113.207Z" fill="#77A3BC"/>
<path d="M199.377 120.994L205.125 111.031L207.945 112.564L200.664 123.799L199.377 120.994Z" fill="#77A3BC"/>
<path opacity="0.3" d="M232.008 82.7672C232.008 82.7672 270.142 116.441 239.656 57.2168C238.844 61.1099 260.501 104.241 236.422 78.2764L232.008 82.7672Z" fill="#431F00"/>
<path d="M84.4844 94.9362L86.9827 102.983L96.9454 101.266L99.2445 92.2539L84.4844 94.9362Z" fill="#EAD67F"/>
<path d="M85.832 95.4281L87.8706 102.003L96.0246 100.593L97.9099 93.2363L85.832 95.4281Z" fill="#FFF8CB"/>
<path opacity="0.7" d="M90.5371 180.678L84.8047 194.809L90.3685 205.676L102.17 191.039L90.5371 180.678ZM86.2301 194.288L90.721 183.636L98.5839 191.499L90.6137 202.136L86.2301 194.288Z" fill="#D67641"/>
<path opacity="0.7" d="M90.1387 185.873L90.6598 193.23L91.6867 193.123L92.1925 187.375L90.1387 185.873Z" fill="#D67641"/>
<path opacity="0.7" d="M90.0781 195.929L90.3234 198.657L91.7181 197.845L92.0247 195.576L90.0781 195.929Z" fill="#D67641"/>
<path opacity="0.7" d="M218.122 35.0689C217.861 34.1493 217.217 33.5362 216.665 33.6895C216.114 33.8428 215.884 34.7164 216.144 35.6207C216.405 36.5403 217.049 37.1534 217.6 37.0002C218.152 36.8622 218.382 35.9886 218.122 35.0689Z" fill="#FFF5E6"/>
<path d="M63.2246 205.093L80.8509 141.301L102.692 181.918L81.2341 150.114L63.2246 205.093Z" fill="#EAD67F"/>
<path opacity="0.2" d="M20.6914 199.928L32.0029 209.323L22.6533 209.293L20.6914 199.928Z" fill="#431F00"/>
<path opacity="0.3" d="M126.449 110.646L126.633 113.329L138.895 116.961L138.527 114.662L126.449 110.646Z" fill="#431F00"/>
<path opacity="0.3" d="M126.832 117.162L127.215 119.844L138.895 121.76L138.327 120.028L126.832 117.162Z" fill="#431F00"/>
<path opacity="0.3" d="M127.215 123.094L127.598 125.791L139.477 127.125L138.526 125.025L127.215 123.094Z" fill="#431F00"/>
<path opacity="0.3" d="M134.695 132.688L134.496 134.404L140.428 135.171L140.244 132.871L134.695 132.688Z" fill="#431F00"/>
<path opacity="0.6" d="M74.8418 166.59C74.8418 166.59 75.3476 174.637 76.114 174.637C76.8803 174.637 102.431 172.844 102.431 172.844L102.937 157.777L74.8418 166.59ZM99.7945 170.637C99.7945 170.637 78.4437 172.982 77.8306 173.013C77.2175 173.059 76.8956 167.924 76.8956 167.924L99.9784 161.441L99.7945 170.637Z" fill="#D67641"/>
<path opacity="0.6" d="M79.1953 168.768L79.3639 171.143L97.4194 169.105L97.588 164.844L79.1953 168.768Z" fill="#D67641"/>
<path opacity="0.3" d="M105.175 39.9571L113.406 59.4074L104.041 83.8236L114.77 63.1319L120.901 83.6397L116.303 59.3001L122.434 33.4277L115.138 56.2346L105.175 39.9571Z" fill="#431F00"/>
<path d="M221.677 39.5899C221.033 40.862 219.271 41.7663 217.155 41.7663C214.948 41.7663 213.109 40.7547 212.557 39.3906H212.189C212.251 41.1379 214.443 42.5327 217.155 42.5327C219.761 42.5327 221.876 41.2299 222.091 39.5899H221.677Z" fill="#4C3F32"/>
<path opacity="0.3" d="M232.023 67.9158L227.348 95.1982L209.477 94.8151L228.498 96.9149L233.295 65.6934L232.023 67.9158Z" fill="#431F00"/>
<path d="M239.672 57.2165C239.672 57.2012 239.672 57.2012 239.657 57.2012L239.672 57.2165C233.005 53.8905 226.935 52.2965 221.586 51.7753C221.448 50.6564 221.326 49.6142 221.203 48.6639C226.644 46.84 230.43 42.8242 230.43 38.1648C230.43 36.9999 230.169 35.2832 229.725 33.2754C230.982 32.8615 232.208 31.2675 232.744 29.1371C233.419 26.4241 232.714 23.9105 231.166 23.5119C230.507 23.3433 229.817 23.6039 229.173 24.1404C229.127 23.1748 229.035 22.2704 228.913 21.3968L229.541 21.5501L230.783 19.3583C231.043 18.8985 231.135 18.362 231.058 17.8409C231.104 17.4577 231.074 17.0745 230.936 16.7067C230.798 16.3388 230.553 16.0169 230.261 15.7564L232.346 5.48717L215.609 0L202.151 5.28791L202.933 11.756L200.189 12.8596C199.607 13.0895 199.193 13.6259 199.117 14.2543C199.101 14.4382 199.117 14.6068 199.147 14.7908C199.147 14.8214 199.117 14.8521 199.117 14.8981C199.04 15.5265 199.316 16.1395 199.822 16.5074L203.761 19.3429C203.761 19.3429 203.393 23.5273 203.362 25.7497C202.626 24.922 201.768 24.6309 200.864 24.9221C199.331 25.4125 198.274 27.3438 199.132 29.9954C199.684 31.7273 200.695 33.0608 201.753 33.6586C201.431 35.3905 201.308 37.2604 201.155 39.4982C201.155 45.1693 204.88 48.8172 211.823 49.5836C211.899 50.4419 211.991 51.2389 212.099 51.9133C202.933 53.1241 197.4 57.0939 196.741 57.5844L196.695 57.5384C195.729 60.098 173.934 100.025 200.373 97.8796C199.086 112.349 198.733 124.779 198.81 124.764L200.511 205.078L206.182 204.113L216.114 125.974C220.513 125.729 217.387 126.036 221.862 125.591L232.177 204.603H237.051L241.91 119.92C241.91 119.92 241.91 119.92 241.925 119.92C241.925 119.889 241.925 119.859 241.925 119.828V119.736H241.91C241.558 114.218 241.205 101.052 238.676 87.9322C248.01 94.339 261.575 99.8109 239.672 57.2165ZM198.549 69.9994L201.339 88.4074C201.186 89.6949 201.048 90.9824 200.91 92.2699C195.913 92.4844 187.284 90.3846 198.549 69.9994ZM237.695 79.533C237.68 76.0843 237.848 71.7467 238.416 66.4741C243.565 75.7471 253.452 94.9521 237.695 79.533Z" fill="url(#paint2_linear_769_2117)"/>
<path opacity="0.3" d="M203.914 19.4496C203.853 20.7984 203.945 23.9864 203.945 23.9864C203.945 23.9864 217.709 33.9491 230.354 27.0519C230.354 25.2586 230.614 23.2814 230.093 20.5378C231.748 17.7942 231.12 16.3228 228.116 15.6178C224.728 14.6062 216.881 11.2802 211.7 10.1307C209.279 9.48692 202.948 12.2458 199.699 13.9625C197.538 16.3842 203.531 18.5606 203.914 19.4496Z" fill="#431F00"/>
<defs>
<linearGradient id="paint0_linear_769_2117" x1="60.5152" y1="110.762" x2="170.106" y2="198.894" gradientUnits="userSpaceOnUse">
<stop stop-color="#EAD67F"/>
<stop offset="0.9946" stop-color="#EAB57D"/>
</linearGradient>
<linearGradient id="paint1_linear_769_2117" x1="277.255" y1="118.923" x2="176.096" y2="136.805" gradientUnits="userSpaceOnUse">
<stop stop-color="#597B84"/>
<stop offset="1" stop-color="#599ABF"/>
</linearGradient>
<linearGradient id="paint2_linear_769_2117" x1="177.9" y1="-4.44658" x2="246.106" y2="189.826" gradientUnits="userSpaceOnUse">
<stop stop-color="#FFFCE9"/>
<stop offset="1" stop-color="#FF0000"/>
</linearGradient>
</defs>
</svg>
