<svg width="180" height="143" viewBox="0 0 180 143" fill="none" xmlns="http://www.w3.org/2000/svg">
<path opacity="0.3" d="M179.775 138.018C170.827 131.681 15.5932 131.583 0.8125 138.018C13.4212 144.054 168.964 144.355 179.775 138.018Z" fill="#431F00"/>
<path d="M156.242 137.644L162.01 10.8979L151.597 0.0625L24.168 19.2196L32.1725 137.644H156.242Z" fill="#DB712A"/>
<path opacity="0.3" d="M143.535 137.644H156.25L162.017 10.8975L151.605 0.0703125L150.466 0.24114C149.417 19.6992 145.008 101.867 143.535 137.644Z" fill="#673B00"/>
<path opacity="0.7" d="M28.0352 22.0662L37.8293 133.275L139.887 133.918L146.224 4.16992L28.0352 22.0662Z" fill="#673B00"/>
<path d="M33.1523 109.53L144.801 100.736V102.843L33.5347 111.515L33.1523 109.53Z" fill="#DB712A"/>
<path d="M29.8945 45.1683L146.83 35.0488V37.473L30.3013 47.4542L29.8945 45.1683Z" fill="#DB712A"/>
<path d="M31.1406 79.8966L143.814 70.0293V72.2907L31.523 82.0279L31.1406 79.8966Z" fill="#DB712A"/>
<path d="M35.3867 52.5395L39.8608 79.1805L61.621 77.5536L60.4008 53.7597L54.5032 50.5059L35.3867 52.5395Z" fill="url(#paint0_linear_1380_8174)"/>
<path d="M54.5032 50.5059L35.3867 52.5395L42.9113 78.9772L57.8302 77.8302L54.6577 50.5872L54.5032 50.5059Z" fill="#F2E3A5"/>
<path d="M58.5703 65.4166L60.2623 77.6836L74.4329 76.1299L74.7013 64.3347L70.9106 62.8379L58.5703 65.4166Z" fill="#564332"/>
<path d="M126.293 51.7018L127.407 59.7388L136.689 58.7138L136.868 50.9941L134.379 50.0098L126.293 51.7018Z" fill="#282B2E"/>
<path d="M40.2315 109.076L37.2461 94.5634L52.1569 92.123L56.7693 95.7836L56.2242 107.579L40.2315 109.076Z" fill="url(#paint1_linear_1380_8174)"/>
<path d="M52.1585 92.123L40.3633 94.0266L41.2825 108.97L52.5897 107.921L52.6629 92.5216L52.1585 92.123Z" fill="#F2E3A5"/>
<path d="M60.8047 64.9441L62.5292 77.3495L70.1758 76.593L70.5907 62.9023L60.8047 64.9441Z" fill="#F2E3A5"/>
<path d="M55.582 100.128L55.8505 107.717L64.7986 107.449L65.6121 100.396L61.5448 99.1758L55.582 100.128Z" fill="#6F7173"/>
<path d="M103.301 133.332L104.822 120.959L117.154 121.097L118.594 124.213L117.276 133.747L103.301 133.332Z" fill="#FF3333"/>
<path d="M42.2967 133.073L41.2148 117.21L53.2785 115.307L58.4278 117.479L59.3795 133.479L42.2967 133.073Z" fill="#FF0000"/>
<path d="M63.0428 133.34L61.9609 118.43L76.0583 116.803L79.5806 120.732L78.9054 133.886L63.0428 133.34Z" fill="url(#paint2_linear_1380_8174)"/>
<path d="M120.938 133.34L119.848 118.43L133.953 116.803L137.475 120.732L136.8 133.886L120.938 133.34Z" fill="url(#paint3_linear_1380_8174)"/>
<path opacity="0.3" d="M70.913 120.871L70.1728 117.479L65.2513 118.048L65.2188 122.221L70.913 120.871Z" fill="#431F00"/>
<path d="M62.6383 107.042L62.5 121.278L68.1943 119.919L65.3471 106.766L62.6383 107.042Z" fill="#EA5D49"/>
<path d="M63.9708 106.902L62.6367 107.041L62.9052 119.78L65.6221 118.022L63.9708 106.902Z" fill="#F2E3A5"/>
<path d="M57.1438 100.598L56.8672 107.512L60.8044 107.171L60.3976 99.4102L57.1438 100.598Z" fill="#F2E3A5"/>
<path d="M53.2785 115.307L41.2148 117.21L44.062 119.651L53.6853 120.732L53.4412 115.38L53.2785 115.307Z" fill="#F2E3A5"/>
<path d="M65.2148 131.168L69.1439 123.034L72.6662 121.545L71.991 131.982L65.2148 131.168Z" fill="#F2E3A5"/>
<path d="M34.4336 27.0447L36.4673 44.6725L53.4199 43.0456L52.4681 26.3695L46.3672 24.8809L34.4336 27.0447Z" fill="url(#paint4_linear_1380_8174)"/>
<path d="M107.516 55.2481L109.549 72.8759L126.29 71.3466L125.542 54.5729L119.441 53.0762L107.516 55.2481Z" fill="url(#paint5_linear_1380_8174)"/>
<path d="M124.727 71.501L124.922 59.2664L136.961 58.1113L138.694 60.9991L138.401 70.4435L124.727 71.501Z" fill="#FF3333"/>
<path d="M134.021 50.0996L133.956 57.7543H128.798L126.391 51.7265L134.021 50.0996Z" fill="#F2E3A5"/>
<path d="M120.531 53.4824L120.661 71.2485L110.77 71.517L114.837 54.2959L120.531 53.4824Z" fill="#F2E3A5"/>
<path d="M129.643 59.958L128.016 69.923L134.491 69.622L135.646 59.1445L129.643 59.958Z" fill="#F2E3A5"/>
<path d="M107.243 121.545L104.266 132.388L114.157 132.665L116.468 121.813L107.243 121.545Z" fill="#F2E3A5"/>
<path d="M121.07 119.105L122.022 132.259L130.97 132.666L133.142 117.479L121.07 119.105Z" fill="#F2E3A5"/>
<path d="M19.457 117.51L33.9937 112.914L47.1637 114.899L45.675 139.506L22.0601 139.132L19.457 117.51Z" fill="url(#paint6_linear_1380_8174)"/>
<path opacity="0.2" d="M38.4367 113.646C38.4367 113.646 36.9237 123.864 40.0799 125.539C43.2362 127.215 43.9683 124.677 43.9683 124.677C43.9683 124.677 40.0637 120.561 41.7475 113.947L38.4367 113.646Z" fill="#431F00"/>
<path d="M73.1445 139.443L76.6018 60.5039L78.5622 60.6015L75.5849 139.443H73.1445Z" fill="#A89851"/>
<path d="M88.023 56.7207C86.8434 56.7207 85.8754 58.2582 85.7209 60.243C85.6965 60.5115 85.5582 62.2197 85.3385 64.9448L76.4311 65.2702C77.5862 64.8716 78.3753 62.8136 78.4973 60.9019C78.6437 58.7056 77.6838 57.4284 76.2928 57.4284C75.0238 57.4284 73.8849 58.9333 73.584 60.8694C73.2911 62.8136 61.1542 139.418 61.5772 140.06C62.0002 140.695 62.8543 141.004 63.5376 140.548C63.6841 140.451 64.2779 136.994 65.1321 131.625L80.0592 131.446C79.6362 137.327 79.4002 141.126 79.4979 141.272C79.929 141.923 80.7425 142.232 81.3526 141.769C81.9545 141.305 87.1119 66.5718 87.2258 64.8066C87.3478 63.0413 87.5186 61.0483 87.6162 60.3325C87.7383 59.397 87.9009 58.8764 88.2751 58.673C88.4378 58.7625 88.4134 58.9821 88.5111 60.2511C88.568 60.967 88.6168 64.3347 88.5599 64.7903C89.658 64.4649 90.3576 62.7973 90.3576 60.788C90.3576 58.5429 89.3164 56.7207 88.023 56.7207ZM75.6176 60.9589C75.8128 60.0478 76.0162 59.5353 76.4392 59.3319C76.6101 59.4214 76.5694 59.6329 76.5856 60.8694C76.6019 61.5527 76.4392 64.7252 76.3416 65.2702L74.9018 65.319C75.1458 63.6108 75.4631 61.6584 75.6176 60.9589ZM74.552 67.7838L85.1189 67.5967C84.9318 69.8582 84.7122 72.5507 84.4681 75.5524L73.3887 75.8778C73.8849 72.4287 74.2917 69.6304 74.552 67.7838ZM69.0204 106.822L68.8171 107.278C69.2075 104.626 69.598 101.949 69.9884 99.2975L82.5646 99.1185C82.3694 101.567 82.1742 104.016 81.9789 106.448L69.0204 106.822ZM81.7674 109.075C81.4746 112.744 81.198 116.315 80.9377 119.667L66.9054 120.041C67.4179 116.641 67.9629 112.996 68.5161 109.271L81.7674 109.075ZM70.3464 96.8408C70.7938 93.7741 71.233 90.7724 71.6479 87.9009L83.4757 87.73C83.2479 90.569 83.012 93.5056 82.768 96.4748L70.3464 96.8408ZM72.0058 85.4442C72.3719 82.9143 72.7217 80.5309 73.0308 78.3345L84.2485 78.1718C84.0695 80.3682 83.8824 82.6865 83.6872 85.0944L72.0058 85.4442ZM65.5144 129.184C65.8316 127.134 66.1814 124.889 66.5393 122.489L80.7343 122.31C80.5554 124.629 80.3927 126.817 80.2462 128.818L65.5144 129.184Z" fill="#A89851"/>
<g opacity="0.8">
<path d="M73.4619 70.9727L71.6479 73.2178C68.1663 95.3766 61.2599 139.58 61.5853 140.06C61.8944 140.516 62.4151 140.801 62.9438 140.752L73.4619 70.9727Z" fill="#F2E3A5"/>
<path d="M85.7214 60.2425C85.697 60.5109 85.5587 62.2192 85.3391 64.9443L78.1725 65.2046L77.8389 67.7101L85.1195 67.5799C84.9324 69.8414 84.7127 72.5339 84.4687 75.5356L76.7814 75.7634L76.4479 78.277L84.2572 78.1631C84.0782 80.3595 83.8911 82.6778 83.6959 85.0857L75.5206 85.3216L75.187 87.8271L83.4763 87.7051C83.2485 90.5441 83.0126 93.4807 82.7685 96.4498L74.0075 96.7101L73.674 99.2156L82.5489 99.0855C82.3537 101.534 82.1585 103.983 81.9632 106.415L72.6816 106.683L72.3481 109.181L81.7436 109.042C81.4507 112.711 81.1742 116.282 80.9138 119.634L70.9245 119.894L70.591 122.391L80.7023 122.261C80.5234 124.579 80.3607 126.768 80.2143 128.769L69.7124 129.029L69.3789 131.535L80.019 131.404C79.596 137.286 79.3601 141.085 79.4577 141.231C79.7424 141.654 80.1817 141.931 80.621 141.947L86.4373 57.7207C86.0794 58.3877 85.8028 59.2663 85.7214 60.2425Z" fill="#F2E3A5"/>
</g>
<path d="M90.3893 60.9748C90.3893 60.747 90.373 60.5274 90.3567 60.3078V60.2671C90.1615 58.3229 89.1772 56.7285 88.0302 56.7285C86.8507 56.7285 85.8827 58.266 85.7281 60.2508C85.72 60.4054 85.6631 61.0073 85.5898 61.9672L87.2656 64.3019C87.3795 62.675 87.534 60.9748 87.6235 60.3322C87.7455 59.3967 87.9082 58.8761 88.2824 58.6727C88.4451 58.7622 88.4207 58.9818 88.5183 60.2508V60.2671H88.5102L87.3795 139.848L89.5514 139.987L90.3486 61.8371C90.373 61.4954 90.3893 61.2026 90.3893 60.9748Z" fill="#A89851"/>
<path d="M76.5784 54.2964C76.5784 54.2964 72.5273 64.4729 80.117 61.0157C83.8996 58.9251 84.7456 57.7862 84.7456 57.7862L86.4539 59.8443C86.4539 59.8443 78.1647 68.8168 73.9184 63.8221C70.0951 58.8356 72.7063 54.0117 72.7063 54.0117L76.5784 54.2964Z" fill="#FF0303"/>
<path opacity="0.3" d="M76.5784 54.2964C76.5784 54.2964 72.5273 64.4729 80.117 61.0157C83.8996 58.9251 83.9891 60.0639 83.9891 60.0639L86.4539 59.8443C86.4539 59.8443 78.1647 68.8168 73.9184 63.8221C70.0951 58.8356 72.7063 54.0117 72.7063 54.0117L76.5784 54.2964Z" fill="#673B00"/>
<path d="M70.1588 111.987L70.0938 114.565L70.834 114.492L71.1106 111.58L70.1588 111.987Z" fill="#A38571"/>
<path d="M76.4329 72.6475C73.2197 63.2357 77.5799 58.0783 76.7339 54.8407C75.9367 51.7658 65.6138 52.262 64.3936 57.9563C61.6522 64.2362 65.4511 78.8867 66.7201 83.3527C67.5498 91.6663 69.8194 112.19 69.8194 112.19L71.4463 112.328L72.9594 81.1075C75.6113 78.7891 88.6674 68.328 81.094 93.6186L82.7698 93.822C82.8999 93.4152 94.4511 67.97 76.4329 72.6475Z" fill="url(#paint7_linear_1380_8174)"/>
<path d="M65.8414 55.3789C65.1337 56.0785 64.6131 56.9326 64.3935 57.9657C63.4254 60.1865 63.2709 63.4485 63.5393 66.9383C63.58 66.9057 63.6125 66.8813 63.6451 66.8488C70.9093 59.9262 68.111 56.1436 65.8414 55.3789Z" fill="#7EB7C4"/>
<path d="M70.5678 59.8606C73.3173 58.5428 74.4317 58.0303 74.4317 58.0303C74.4317 58.0303 75.6519 55.533 75.05 53.361C72.9106 52.6045 69.2418 52.938 66.7852 54.5975C66.7933 54.6219 66.7933 54.6463 66.8014 54.6707C66.8014 54.6707 70.462 57.5178 70.5678 59.8606Z" fill="#7EB7C4"/>
<path opacity="0.3" d="M81.0973 93.6191L82.773 93.8224C82.9113 93.4157 94.4544 67.9705 76.4361 72.6479C73.2229 63.2361 77.5831 58.0787 76.7371 54.8411C76.2328 52.8888 71.8889 52.3845 68.4642 53.7267V53.7592C68.4642 53.7592 68.8709 60.9421 63.6484 64.1309C64.771 64.9444 66.9023 68.605 68.0249 73.4858C68.3096 75.0395 68.5943 77.5206 68.8628 80.4978C68.9116 80.9941 67.6751 84.0446 67.7239 84.5652C67.7809 85.2241 69.0905 82.2468 69.1475 82.9382C70.0667 94.7335 70.7744 111.849 70.7744 111.849L71.4496 112.321L72.9626 81.0998C75.6145 78.7896 88.6707 68.3284 81.0973 93.6191Z" fill="#673B00"/>
<path d="M33.9925 112.914L20.4727 118.153L22.0589 139.132L33.8054 139.319L33.9925 112.914Z" fill="#F2E3A5"/>
<path opacity="0.4" d="M21.5586 119.105L26.4394 127.101L22.9171 137.815L27.3912 128.191L32.1743 137.644L28.3348 126.695L32.1337 115.713L27.2529 125.344L21.5586 119.105Z" fill="#12263F"/>
<path d="M70.9764 118.43C71.5214 113.484 70.1629 113.891 69.6179 113.891C69.0728 113.891 70.228 115.925 69.8212 118.365C69.8212 120.61 72.2616 119.854 72.8067 119.854C73.3517 119.854 72.2616 119.715 70.9764 118.43Z" fill="#431F00"/>
<path d="M69.8103 113.875C69.8103 113.875 67.9881 113.834 69.2978 115.73L70.0869 115.77L69.8103 113.875Z" fill="#431F00"/>
<path d="M80.256 95.8555C80.256 95.8555 79.8167 97.6207 81.9561 96.7584L82.1676 95.9938L80.256 95.8555Z" fill="#431F00"/>
<path d="M81.397 93.7168L81.0391 95.0915L81.7061 95.5471L82.365 93.6191L81.397 93.7168Z" fill="#A38571"/>
<path d="M86.6321 97.1747C86.6646 96.9062 85.3061 96.4019 83.4758 95.9057C81.5967 95.4013 80.9215 94.6773 80.8809 94.9376C80.8483 95.2061 79.2539 96.2066 81.133 96.467C83.0203 96.7191 86.5914 97.4431 86.6321 97.1747Z" fill="#431F00"/>
<path d="M69.3411 53.9225L69.2109 46.7559L72.6682 49.8308C72.6682 49.8308 73.3108 51.2381 73.8233 53.5402C72.6682 56.8672 69.3411 53.9225 69.3411 53.9225Z" fill="#FFB38A"/>
<path opacity="0.3" d="M73.822 53.5389C73.3095 51.2368 72.6669 49.8295 72.6669 49.8295L71.0725 48.4141L69.2747 48.5442L69.2422 48.6012L69.291 51.4483L72.008 55.1252C72.7238 55.1008 73.4071 54.7184 73.822 53.5389Z" fill="#673B00"/>
<path d="M69.239 45.471C68.8242 44.3891 67.8317 43.7627 67.0345 44.0637C66.2292 44.3728 65.912 45.5035 66.3268 46.5854C66.7417 47.6674 67.7341 48.2937 68.5313 47.9927C69.3448 47.6836 69.6539 46.5529 69.239 45.471Z" fill="#E59673"/>
<path opacity="0.3" d="M69.4764 45.5115C69.1348 44.6167 68.24 44.1367 67.4753 44.4296C66.7106 44.7224 66.369 45.6823 66.7106 46.569C67.0523 47.4557 67.9471 47.9438 68.7118 47.6509C69.4764 47.3662 69.8181 46.4063 69.4764 45.5115Z" fill="#673B00"/>
<path d="M78.7505 45.6416C78.7261 45.422 78.6855 45.2023 78.6204 44.9827C77.6768 41.8264 77.2782 37.6208 74.5205 37.7266C66.7682 35.9288 67.964 42.282 68.086 45.5684C68.1267 46.813 68.4927 47.9518 69.0703 48.8873C69.7536 50.7583 71.9744 52.0842 74.5612 51.9866C77.628 51.8727 80.0358 49.8228 79.9545 47.4068C79.9138 46.4307 79.4583 45.9588 78.7505 45.6416Z" fill="#E59673"/>
<path d="M78.599 44.9825C77.9238 42.4444 77.5415 38.2388 74.9953 38.2063C67.6823 36.2295 68.5446 42.0377 68.5202 45.0231C68.512 46.1538 68.8049 47.2032 69.3173 48.0736C69.8868 49.7982 71.9449 51.0997 74.4178 51.1323C77.3463 51.1729 79.7379 49.424 79.7541 47.2276C79.7623 46.3409 79.3474 45.6902 78.599 44.9825Z" fill="#FFB38A"/>
<path d="M69.2416 43.0787C69.2416 43.0787 69.3392 46.0804 69.4449 46.5359C69.5426 46.9914 68.8348 47.6585 68.8348 47.6585C68.8348 47.6585 67.8668 43.9491 67.6635 42.8753C67.4682 41.8097 69.2416 43.0787 69.2416 43.0787Z" fill="#4C3F32"/>
<path d="M67.9868 44.0619L72.3307 39.4495L77.3416 39.3193L75.6496 34.6094L69.1745 35.3171L65.9531 39.7912L67.9868 44.0619Z" fill="#7EB7C4"/>
<path d="M69.1797 35.3171L70.8066 38.9777L77.2167 38.8801L75.6549 34.6094L69.1797 35.3171Z" fill="#4A7C84"/>
<path d="M74.9039 36.7743C74.9039 36.2456 74.1473 35.8145 73.2037 35.8145C72.2682 35.8145 71.5117 36.2456 71.5117 36.7825C71.5117 37.3112 72.2682 37.7424 73.2037 37.7424C74.1473 37.7424 74.9039 37.3031 74.9039 36.7743Z" fill="#7EB7C4"/>
<path d="M77.3447 40.1659L78.8334 38.9457C78.7927 37.7336 77.8816 36.7249 76.6858 36.5622L75.8561 36.4483C74.8392 36.3101 73.798 36.4727 72.8625 36.912L72.6998 36.9852C71.8782 37.3757 71.1949 38.0102 70.7475 38.7911L67.8516 43.8183L68.0875 44.0217L72.7324 39.8893L77.3447 40.1659Z" fill="#7EB7C4"/>
<path d="M77.62 40.4022L79.1086 39.182C79.068 37.9699 78.1569 36.9613 76.9611 36.7986L76.1313 36.6847C75.1145 36.5464 74.0733 36.7091 73.1378 37.1483L72.8775 37.2704C72.1128 37.6364 71.4702 38.2059 71.0228 38.9136L67.8828 43.8594L68.0211 44.0953C68.0211 44.0953 72.9995 40.1256 72.9995 40.1338L77.62 40.4022Z" fill="#4A7C84"/>
<path d="M74.0655 43.0625C73.6588 43.2903 73.854 44.5349 74.4641 45.7551C75.2044 47.0566 76.4571 46.837 76.8638 46.6092C78.0027 44.3885 75.8307 45.9259 74.0655 43.0625Z" fill="#EA5D49"/>
<path d="M72.5007 44.4868C72.3868 44.0638 72.1346 43.771 71.9394 43.8198C71.736 43.8767 71.6709 44.259 71.7767 44.682C71.8906 45.105 72.1427 45.3979 72.338 45.3491C72.5413 45.2921 72.6146 44.9098 72.5007 44.4868Z" fill="#4C3F32"/>
<path d="M76.6921 43.5591C76.5782 43.1361 76.326 42.8432 76.1308 42.892C75.9274 42.949 75.8623 43.3313 75.9681 43.7543C76.082 44.1773 76.3341 44.4702 76.5294 44.4213C76.7327 44.3644 76.7978 43.9821 76.6921 43.5591Z" fill="#4C3F32"/>
<path d="M77.3163 47.4303C77.0234 48.0974 76.3401 48.6098 75.5592 48.683C75.006 48.7319 74.518 48.5448 74.1926 48.2031L73.8672 48.2845C74.2007 48.7563 74.8271 49.041 75.5592 48.9759C76.5516 48.8864 77.3976 48.195 77.5929 47.3652L77.3163 47.4303Z" fill="#4C3F32"/>
<path d="M70.5004 43.9239C70.5004 43.9239 72.1273 42.5329 72.3632 42.5329C72.5991 42.5329 72.2656 41.752 72.2656 41.752C72.2656 41.752 70.1994 43.0047 70.1994 43.143C70.1912 43.2813 70.5004 43.9239 70.5004 43.9239Z" fill="#4C3F32"/>
<path d="M75.3421 41.9975C75.3421 41.9975 76.5623 41.7615 77.0341 42.2659C77.5059 42.7702 77.0016 41.2816 77.0016 41.2816C77.0016 41.2816 75.3746 40.9399 75.2038 41.0457C75.033 41.1515 75.3421 41.9975 75.3421 41.9975Z" fill="#4C3F32"/>
<path d="M76.3178 46.0884C76.448 45.9095 76.3585 45.6085 76.1063 45.4214C75.8623 45.2343 75.5532 45.218 75.4149 45.397C75.2847 45.5759 75.3742 45.8769 75.6264 46.064C75.8704 46.2592 76.1796 46.2674 76.3178 46.0884Z" fill="#FFB38A"/>
<path d="M64.6719 77.7569L74.9704 69.3457L76.1906 70.7042L65.7538 80.1973L64.6719 77.7569Z" fill="#673B00"/>
<path opacity="0.3" d="M65.207 79.5143L73.48 71.6562L74.9686 73.6899L66.4272 81.4178L65.207 79.5143Z" fill="#431F00"/>
<path d="M67.1211 60.8604L73.9542 56.2969L81.6252 58.7129L80.828 71.2484L74.8327 76.9915L69.228 73.9816L67.1211 60.8604Z" fill="url(#paint8_linear_1380_8174)"/>
<path d="M67.1914 61.332L69.2251 73.9814L74.8298 76.9912L75.1064 63.7887L67.1914 61.332Z" fill="url(#paint9_linear_1380_8174)"/>
<path opacity="0.3" d="M67.4531 61.6172L70.5687 67.7914L69.5519 73.8924L71.3171 68.5316L74.4327 76.1294L71.7889 67.9215L73.9609 64.1308L71.1137 67.3847L67.4531 61.6172Z" fill="#673B00"/>
<path d="M64.8954 56.5506C64.8954 56.5506 56.9234 73.2185 67.3114 73.0721C69.5322 73.0151 72.8592 71.437 72.8592 71.437L72.2003 68.5167C72.2003 68.5167 64.4643 71.9495 65.0744 67.2721C66.2946 61.3907 67.3765 59.715 67.3765 59.715C67.3765 59.715 67.832 54.5495 64.8954 56.5506Z" fill="#7EB7C4"/>
<path d="M74.832 76.9911L80.4043 71.1423L80.9656 67.3027L80.9168 71.1911L74.832 76.9911Z" fill="url(#paint10_linear_1380_8174)"/>
<path opacity="0.8" d="M68.1942 75.0391L68.4626 77.756L65.7538 80.1964L64.6719 77.756L68.1942 75.0391Z" fill="#F2E3A5"/>
<path d="M67.7188 84.5651L69.9558 80.8069L69.0366 79.0742L67.7188 84.5651Z" fill="#77A3BC"/>
<path opacity="0.7" d="M38.4342 113.646C38.4342 113.646 36.9049 125.238 43.5183 124.937C43.5183 124.937 44.3318 123.001 45.7554 123.001C45.7554 123.001 40.1587 123.611 41.5904 114.151L38.4342 113.646Z" fill="#F2E3A5"/>
<path opacity="0.4" d="M37.0117 53.9631L46.0981 65.6852L42.0959 77.1469L47.18 66.5718L55.7214 76.1301L48.807 64.7415L53.4844 52.1328L46.7733 64.3348L37.0117 53.9631Z" fill="#12263F"/>
<path opacity="0.2" d="M39.0469 96.2627L44.3344 101.55L41.2839 108.058L45.758 102.77L50.8421 106.634L46.3681 100.737L51.0455 93.8223L45.3512 99.7199L39.0469 96.2627Z" fill="#431F00"/>
<path d="M46.9101 25.6953L48.5371 42.9083L37.0102 43.86L34.9766 27.8591L46.9101 25.6953Z" fill="#F2E3A5"/>
<path d="M36.1992 28.4032L40.4048 35.1794L37.6879 42.3704L41.4867 36.2694L47.4494 41.8254L42.7069 35.0492L46.3675 26.5078L41.7552 33.4223L36.1992 28.4032Z" fill="url(#paint11_linear_1380_8174)"/>
<path opacity="0.2" d="M108.391 55.7928L113.776 63.8217L110.424 71.8587L114.793 64.8385L120.283 71.0452L115.606 63.724L120.283 54.4668L114.386 62.3005L108.391 55.7928Z" fill="#431F00"/>
<path opacity="0.2" d="M121.613 119.65L125.274 125.751L122.427 131.446L126.494 126.695L131.92 131.852L127.446 125.206L133.14 117.479L126.494 123.848L121.613 119.65Z" fill="#431F00"/>
<path d="M125.27 60.2666L128.824 64.1306L125.676 69.5157L129.744 65.1474L134.079 69.6215L130.858 64.334L134.828 59.5508L129.841 63.5205L125.27 60.2666Z" fill="#282B2E"/>
<path d="M51.7181 43.2495L51.043 36.1968L58.2259 34.9766L61.618 36.7418V42.5011L51.7181 43.2495Z" fill="#282B2E"/>
<g opacity="0.7">
<path d="M57.7459 41.2088L57.9004 41.1844L57.5995 36.1328L56.4688 38.8417L57.7459 41.2088Z" fill="#F2E3A5"/>
<path d="M54.768 37.6936L57.5907 36.0016L57.5826 35.8633L53.3281 36.5873L54.768 37.6936Z" fill="#F2E3A5"/>
<path d="M53.9556 38.9794L53.1828 38.0195L52.8086 41.8266L53.9556 38.9794Z" fill="#F2E3A5"/>
<path d="M55.1764 39.9297L52.8011 41.9471L52.793 42.0284L57.4541 41.2556L55.1764 39.9297Z" fill="#F2E3A5"/>
</g>
<path d="M113.885 102.77L112.461 85.0769L128.324 82.8398L135.238 86.9072L135.035 101.55L113.885 102.77Z" fill="#FF0000"/>
<path d="M127.548 83.8574L128.281 101.201L114.59 101.754L113.305 85.8667L127.548 83.8574Z" fill="#F2E3A5"/>
<path d="M113.68 86.2988L118.357 92.6682L114.591 101.755L119.577 94.0267L128.281 101.202L120.936 92.8065L127.305 84.6719L119.374 91.5863L113.68 86.2988Z" fill="#6F7173"/>
<path opacity="0.3" d="M68.0195 44.0944L74.7794 45.6237C74.7794 45.6237 78.8956 45.4692 78.619 44.9811C78.1716 43.4762 77.9845 41.7272 77.3256 40.3362C75.3733 40.2386 73.0061 40.1328 73.0061 40.1328L68.0195 44.0944Z" fill="#673B00"/>
<path d="M81.6252 58.7129L73.9542 56.2969L67.1211 60.8604L75.1093 63.7889L81.6252 58.7129Z" fill="#F2E3A5"/>
<path opacity="0.3" d="M75.1086 63.79L74.832 76.9925L80.8273 71.2495L81.2096 59.7227L75.1086 63.79Z" fill="#431F00"/>
<path d="M79.9381 72.1033L74.8295 76.9923L69.2248 73.9824L69.0783 72.8761L72.804 71.5176L72.1939 68.6054L68.4682 69.6873L67.1992 61.333L67.126 60.8694L73.9591 56.3058L76.7005 57.1681C76.8632 56.2977 76.9201 55.5249 76.7493 54.8497C76.4971 53.8736 75.2851 53.2635 73.7151 53.0601C73.6175 52.6534 73.5117 52.271 73.4141 51.9375C73.7883 51.9863 74.1706 52.0189 74.5611 52.0026C77.6279 51.8887 80.0357 49.8388 79.9544 47.4228C79.9218 46.4548 79.4663 45.9748 78.7586 45.6575C78.7342 45.4379 78.6935 45.2183 78.6284 44.9986C78.181 43.51 77.8556 41.7936 77.3513 40.4026L77.6279 40.4188L79.1165 39.1986C79.0758 37.9866 78.1647 36.9779 76.9689 36.8152L76.4239 36.742L75.6593 34.627L69.1841 35.3428L65.9628 39.8169L67.8988 43.8761V43.8842L67.9314 43.933L68.0046 44.0876L68.0127 44.0794C68.0127 44.0957 68.0127 44.112 68.0127 44.1282C67.6954 43.9981 67.3538 43.9737 67.0447 44.0957C66.2393 44.4048 65.9221 45.5355 66.3369 46.6174C66.7518 47.6994 67.7443 48.3257 68.5415 48.0247C68.5659 48.0166 68.5821 48.0003 68.6065 47.9922C68.7448 48.3176 68.8912 48.6348 69.0702 48.9196C69.119 49.0578 69.1922 49.1799 69.2573 49.31L69.3305 53.4668C67.5165 54.0037 65.8407 55.0124 64.9541 56.558C64.9297 56.5743 64.9134 56.5743 64.8971 56.5905C64.8971 56.5905 58.7961 69.3619 64.2301 72.445C65.0029 77.0492 66.1336 81.3199 66.7274 83.3861C67.5572 91.6997 69.8267 112.223 69.8267 112.223L71.4536 112.362L72.9667 81.1409C75.6186 78.8226 88.6747 68.3614 81.1014 93.652L82.7771 93.8554C82.891 93.4487 92.7909 71.6071 79.9381 72.1033Z" fill="url(#paint12_linear_1380_8174)"/>
<path d="M72.3984 69.3125L76.059 67.6855C76.059 67.6855 77.686 67.9947 77.5884 68.5966C77.4907 69.1986 75.2456 69.8656 75.2456 69.8656L72.6018 70.0202L72.3984 69.3125Z" fill="#FFB38A"/>
<path d="M85.7216 57.9565L88.2271 57.265C88.2271 57.265 89.3822 56.9966 89.0731 56.5492C88.764 56.1099 86.6978 56.2807 86.6978 56.2807L85.6484 57.3138L85.7216 57.9565Z" fill="#FFB38A"/>
<path d="M77.6427 64.9527C77.5206 64.8876 76.9268 65.7499 76.3248 66.8806C75.7229 68.0113 75.3324 68.9875 75.4625 69.0525C75.5846 69.1176 76.1784 68.2554 76.7804 67.1246C77.3823 65.9939 77.7728 65.0259 77.6427 64.9527Z" fill="#FFB38A"/>
<path d="M78.5394 64.782C78.4092 64.725 77.8886 65.5873 77.3843 66.7099C76.8799 67.8325 76.5789 68.7923 76.7172 68.8493C76.8474 68.9062 77.368 68.044 77.8724 66.9214C78.3686 65.7988 78.6777 64.847 78.5394 64.782Z" fill="#FFB38A"/>
<path d="M79.1089 65.4561C79.0032 65.3992 78.507 66.1638 77.9864 67.1481C77.4739 68.1405 77.1322 68.9865 77.238 69.0354C77.3356 69.0842 77.8399 68.3276 78.3605 67.3433C78.873 66.3509 79.2147 65.5049 79.1089 65.4561Z" fill="#FFB38A"/>
<path d="M74.5117 68.362C74.5117 68.362 75.1706 67.6543 75.2601 67.3858C75.3496 67.1174 75.4228 66.2632 75.3008 65.8158C75.195 65.4335 75.675 65.466 75.7482 65.767C75.8214 66.0599 75.919 66.8164 75.797 67.3452C75.7238 67.6787 75.6424 68.1017 75.374 68.4921C75.1137 68.8745 74.5117 68.362 74.5117 68.362Z" fill="#FFB38A"/>
<path d="M89.4633 58.5989C89.6016 58.5907 89.4958 57.8749 89.6016 57.0533C89.691 56.3293 88.3814 56.3293 88.2349 56.3374C88.0967 56.3456 89.1704 56.6384 89.2192 57.3624C89.268 58.0864 89.3169 58.607 89.4633 58.5989Z" fill="#FFB38A"/>
<path d="M89.1705 59.1368C89.3088 59.1124 89.2437 58.2339 89.0729 57.3879C88.902 56.5337 88.0316 56.6964 87.8852 56.729C87.7388 56.7534 88.5278 56.7778 88.6987 57.6238C88.8695 58.4698 89.0322 59.1612 89.1705 59.1368Z" fill="#FFB38A"/>
<path d="M88.8131 59.7945C88.9514 59.7457 88.805 58.9322 88.4959 57.9723C88.1868 57.0124 87.2594 56.8335 87.1292 56.8823C86.9991 56.9311 87.6987 57.1751 88.0078 58.1431C88.3169 59.0949 88.683 59.8352 88.8131 59.7945Z" fill="#FFB38A"/>
<path d="M85.957 57.6884C85.957 57.6884 86.681 58.2009 86.7949 58.4124C86.9088 58.6239 87.0877 59.3235 87.0227 59.714C86.9657 60.0475 87.4294 59.958 87.4619 59.7058C87.4945 59.4536 87.4945 58.811 87.3236 58.388C87.2098 58.1196 87.0796 57.7698 86.7786 57.4851C86.4614 57.1922 85.957 57.6884 85.957 57.6884Z" fill="#FFB38A"/>
<path d="M85.8184 59.1122L86.2577 57.7944L85.6476 57.3145L85.1758 58.2988L85.8184 59.1122Z" fill="#FFB38A"/>
<defs>
<linearGradient id="paint0_linear_1380_8174" x1="35.3853" y1="64.8405" x2="61.6195" y2="64.8405" gradientUnits="userSpaceOnUse">
<stop stop-color="#EAD67F"/>
<stop offset="0.9946" stop-color="#EAB57D"/>
</linearGradient>
<linearGradient id="paint1_linear_1380_8174" x1="37.2463" y1="100.6" x2="56.7694" y2="100.6" gradientUnits="userSpaceOnUse">
<stop stop-color="#EAD67F"/>
<stop offset="0.9946" stop-color="#EAB57D"/>
</linearGradient>
<linearGradient id="paint2_linear_1380_8174" x1="61.957" y1="125.341" x2="79.5816" y2="125.341" gradientUnits="userSpaceOnUse">
<stop stop-color="#EAD67F"/>
<stop offset="0.9946" stop-color="#EAB57D"/>
</linearGradient>
<linearGradient id="paint3_linear_1380_8174" x1="119.849" y1="125.341" x2="137.474" y2="125.341" gradientUnits="userSpaceOnUse">
<stop stop-color="#EAD67F"/>
<stop offset="0.9946" stop-color="#EAB57D"/>
</linearGradient>
<linearGradient id="paint4_linear_1380_8174" x1="34.4354" y1="34.7755" x2="53.416" y2="34.7755" gradientUnits="userSpaceOnUse">
<stop stop-color="#EAD67F"/>
<stop offset="0.9946" stop-color="#EAB57D"/>
</linearGradient>
<linearGradient id="paint5_linear_1380_8174" x1="107.512" y1="62.9761" x2="126.289" y2="62.9761" gradientUnits="userSpaceOnUse">
<stop stop-color="#EAD67F"/>
<stop offset="0.9946" stop-color="#EAB57D"/>
</linearGradient>
<linearGradient id="paint6_linear_1380_8174" x1="19.4531" y1="126.209" x2="47.1673" y2="126.209" gradientUnits="userSpaceOnUse">
<stop stop-color="#EAD67F"/>
<stop offset="0.9946" stop-color="#EAB57D"/>
</linearGradient>
<linearGradient id="paint7_linear_1380_8174" x1="87.1112" y1="114.487" x2="65.1477" y2="65.2727" gradientUnits="userSpaceOnUse">
<stop stop-color="#597B84"/>
<stop offset="1" stop-color="#599ABF"/>
</linearGradient>
<linearGradient id="paint8_linear_1380_8174" x1="89.5292" y1="69.7637" x2="62.889" y2="64.273" gradientUnits="userSpaceOnUse">
<stop stop-color="#AF506D"/>
<stop offset="0.9946" stop-color="#FF8C68"/>
</linearGradient>
<linearGradient id="paint9_linear_1380_8174" x1="88.893" y1="72.8442" x2="62.2507" y2="67.353" gradientUnits="userSpaceOnUse">
<stop stop-color="#AF506D"/>
<stop offset="0.9946" stop-color="#FF6445"/>
</linearGradient>
<linearGradient id="paint10_linear_1380_8174" x1="74.8347" y1="72.1472" x2="80.9652" y2="72.1472" gradientUnits="userSpaceOnUse">
<stop stop-color="#AF506D"/>
<stop offset="0.9946" stop-color="#FF6445"/>
</linearGradient>
<linearGradient id="paint11_linear_1380_8174" x1="36.1986" y1="34.4364" x2="47.4512" y2="34.4364" gradientUnits="userSpaceOnUse">
<stop stop-color="#EAD67F"/>
<stop offset="0.9946" stop-color="#EAB57D"/>
</linearGradient>
<linearGradient id="paint12_linear_1380_8174" x1="59.8867" y1="52.8954" x2="84.6972" y2="91.1279" gradientUnits="userSpaceOnUse">
<stop stop-color="#FFFCE9"/>
<stop offset="1" stop-color="#FF0000"/>
</linearGradient>
</defs>
</svg>
