<svg width="131" height="131" viewBox="0 0 131 131" fill="none" xmlns="http://www.w3.org/2000/svg">
<rect width="131" height="131" rx="65.5" fill="#EAEAEA"/>
<path d="M98.875 104.438V43.25H82.1875V26.5625H32.125V104.438H21V110H59.9375V93.3125H71.0625V110H110V104.438H98.875ZM54.375 82.1875H43.25V71.0625H54.375V82.1875ZM54.375 65.5H43.25V54.375H54.375V65.5ZM54.375 48.8125H43.25V37.6875H54.375V48.8125ZM71.0625 82.1875H59.9375V71.0625H71.0625V82.1875ZM71.0625 65.5H59.9375V54.375H71.0625V65.5ZM71.0625 48.8125H59.9375V37.6875H71.0625V48.8125ZM93.3125 82.1875H82.1875V71.0625H93.3125V82.1875ZM93.3125 65.5H82.1875V54.375H93.3125V65.5Z" fill="#FF0000"/>
</svg>
