<svg width="104" height="104" viewBox="0 0 104 104" fill="none" xmlns="http://www.w3.org/2000/svg">
<rect width="104" height="104" rx="52" fill="#EAEAEA"/>
<g clip-path="url(#clip0_1380_9094)">
<path d="M78.4963 82.9123V34.336H65.2482V21.0879H25.5039V82.9123H16.6719V87.3283H47.5841V74.0803H56.4161V87.3283H87.3284V82.9123H78.4963ZM43.1681 65.2482H34.336V56.4161H43.1681V65.2482ZM43.1681 52.0001H34.336V43.168H43.1681V52.0001ZM43.1681 38.752H34.336V29.92H43.1681V38.752ZM56.4161 65.2482H47.5841V56.4161H56.4161V65.2482ZM56.4161 52.0001H47.5841V43.168H56.4161V52.0001ZM56.4161 38.752H47.5841V29.92H56.4161V38.752ZM74.0803 65.2482H65.2482V56.4161H74.0803V65.2482ZM74.0803 52.0001H65.2482V43.168H74.0803V52.0001Z" fill="#FF0000"/>
</g>
<defs>
<clipPath id="clip0_1380_9094">
<rect width="70.6565" height="70.6565" fill="white" transform="translate(16.6719 16.6719)"/>
</clipPath>
</defs>
</svg>
