<svg width="103" height="103" viewBox="0 0 103 103" fill="none" xmlns="http://www.w3.org/2000/svg">
<rect width="103" height="103" rx="51.5" fill="#EAEAEA"/>
<g clip-path="url(#clip0_1380_9061)">
<path d="M77.7406 82.1146C77.7406 83.3217 76.761 84.3014 75.5539 84.3014H58.0596V67.9005C58.0596 67.2959 57.5708 66.8071 56.9662 66.8071H46.0323C45.4276 66.8071 44.9389 67.2959 44.9389 67.9005V84.3014H27.4446C26.2375 84.3014 25.2578 83.3217 25.2578 82.1146V50.8556L51.5091 24.6055L77.7406 50.837V82.1146Z" fill="#FF0000"/>
<path d="M31.8203 23.0723H36.1939V30.2897L31.8203 34.6546V23.0723Z" fill="#FF0000"/>
<path d="M55.876 68.9941H47.1289V84.3016H55.876V68.9941Z" fill="#F9EBB2"/>
<path d="M83.2094 52.5944C82.9076 52.5944 82.5511 52.555 82.3543 52.3571L52.2839 22.2866C52.0706 22.0734 51.7907 21.9663 51.5108 21.9663C51.2309 21.9663 50.951 22.0734 50.7378 22.2866L20.6575 52.368C20.4596 52.5659 20.0944 52.5944 19.7926 52.5944C19.188 52.5944 18.6992 52.1056 18.6992 51.501C18.6992 51.1992 18.7167 50.8209 18.9146 50.623L50.4459 19.1475C50.4459 19.1475 50.8537 18.6992 51.5108 18.6992C52.1679 18.6992 52.5845 19.1344 52.5845 19.1344L84.0808 50.6295C84.2787 50.8275 84.3027 51.1992 84.3027 51.501C84.3027 52.1045 83.814 52.5944 83.2094 52.5944Z" fill="#FF0000"/>
<path d="M85.6261 49.0828L54.166 17.6215C54.166 17.6215 53.1414 16.5117 51.509 16.5117C49.8766 16.5117 48.9111 17.5953 48.9111 17.5953L38.3796 28.106V21.9787C38.3796 21.374 37.8908 20.8853 37.2862 20.8853H30.7258C30.1212 20.8853 29.6324 21.374 29.6324 21.9787V36.8368L17.3678 49.0762C16.7741 49.6699 16.5117 50.5949 16.5117 51.5003C16.5117 53.3109 17.9801 54.7804 19.7919 54.7804C20.6972 54.7804 21.6091 54.506 22.2028 53.9123L23.0721 53.043V82.1152C23.0721 84.5327 25.0282 86.4888 27.4456 86.4888H75.5549C77.9724 86.4888 79.9285 84.5327 79.9285 82.1152V53.0245L80.8075 53.9035C81.4013 54.4951 82.3033 54.7804 83.2086 54.7804C85.0204 54.7804 86.4888 53.312 86.4888 51.5003C86.4888 50.5938 86.2198 49.6765 85.6261 49.0828ZM31.8192 23.0721H36.1928V30.2896L31.8192 34.6544V23.0721ZM55.8738 84.302H47.1267V68.9945H55.8738V84.302ZM77.7417 82.1152C77.7417 83.3223 76.762 84.302 75.5549 84.302H58.0606V67.9011C58.0606 67.2965 57.5719 66.8078 56.9672 66.8078H46.0333C45.4287 66.8078 44.9399 67.2965 44.9399 67.9011V84.302H27.4456C26.2385 84.302 25.2589 83.3223 25.2589 82.1152V50.8563L51.5101 24.6061L77.7417 50.8377V82.1152ZM83.2086 52.5937C82.9069 52.5937 82.5504 52.5543 82.3536 52.3564L52.2831 22.2859C52.0699 22.0727 51.79 21.9656 51.5101 21.9656C51.2302 21.9656 50.9503 22.0727 50.7371 22.2859L20.6568 52.3673C20.4589 52.5652 20.0937 52.5937 19.7919 52.5937C19.1872 52.5937 18.6985 52.1049 18.6985 51.5003C18.6985 51.1985 18.716 50.8202 18.9139 50.6223L50.4451 19.1468C50.4451 19.1468 50.853 18.6985 51.5101 18.6985C52.1672 18.6985 52.5838 19.1337 52.5838 19.1337L84.0801 50.6288C84.278 50.8267 84.302 51.1985 84.302 51.5003C84.302 52.1038 83.8133 52.5937 83.2086 52.5937Z" fill="#FF0000"/>
<path d="M41.6608 51.5H32.9137C32.3091 51.5 31.8203 51.9887 31.8203 52.5934V61.3405C31.8203 61.9452 32.3091 62.4339 32.9137 62.4339H41.6608C42.2655 62.4339 42.7542 61.9452 42.7542 61.3405V52.5934C42.7542 51.9887 42.2655 51.5 41.6608 51.5ZM40.5674 60.2471H34.0071V53.6868H40.5674V60.2471Z" fill="#FF0000"/>
<path d="M61.3395 62.4339H70.0866C70.6913 62.4339 71.18 61.9452 71.18 61.3405V52.5934C71.18 51.9887 70.6913 51.5 70.0866 51.5H61.3395C60.7348 51.5 60.2461 51.9887 60.2461 52.5934V61.3405C60.2461 61.9452 60.7348 62.4339 61.3395 62.4339ZM62.4329 53.6868H68.9932V60.2471H62.4329V53.6868Z" fill="#FF0000"/>
<path d="M55.876 68.9941H47.1289V84.3016H55.876V68.9941Z" fill="#FFE6E6"/>
<path d="M40.5682 53.6875H34.0078V60.2479H40.5682V53.6875Z" fill="#FF0000"/>
<path d="M68.9979 53.6875H62.4375V60.2479H68.9979V53.6875Z" fill="#FF0000"/>
</g>
<defs>
<clipPath id="clip0_1380_9061">
<rect width="69.9771" height="69.9771" fill="white" transform="translate(16.5117 16.5117)"/>
</clipPath>
</defs>
</svg>
