<svg width="131" height="131" viewBox="0 0 131 131" fill="none" xmlns="http://www.w3.org/2000/svg">
<rect width="131" height="131" rx="65.5" fill="#EAEAEA"/>
<g clip-path="url(#clip0_773_2956)">
<path d="M98.875 104.438C98.875 105.973 97.629 107.219 96.0938 107.219H73.8438V86.3595C73.8438 85.5905 73.2221 84.9689 72.4531 84.9689H58.5469C57.7779 84.9689 57.1562 85.5905 57.1562 86.3595V107.219H34.9062C33.371 107.219 32.125 105.973 32.125 104.438V64.681L65.5125 31.2949L98.875 64.6574V104.438Z" fill="#FF0000"/>
<path d="M40.4688 29.3438H46.0312V38.5233L40.4688 44.0746V29.3438Z" fill="#FF0000"/>
<path d="M71.0625 87.75H59.9375V107.219H71.0625V87.75Z" fill="#F9EBB2"/>
<path d="M105.828 66.8906C105.444 66.8906 104.991 66.8406 104.741 66.5889L66.4957 28.3439C66.2245 28.0727 65.8685 27.9364 65.5125 27.9364C65.1565 27.9364 64.8005 28.0727 64.5293 28.3439L26.2719 66.6028C26.0202 66.8545 25.5557 66.8906 25.1719 66.8906C24.4029 66.8906 23.7812 66.269 23.7812 65.5C23.7812 65.1162 23.8035 64.635 24.0552 64.3833L64.158 24.3514C64.158 24.3514 64.6768 23.7812 65.5125 23.7812C66.3483 23.7812 66.8781 24.3347 66.8781 24.3347L106.936 64.3917C107.188 64.6434 107.219 65.1162 107.219 65.5C107.219 66.2676 106.597 66.8906 105.828 66.8906Z" fill="#FF0000"/>
<path d="M108.903 62.4253L68.8903 22.4115C68.8903 22.4115 67.5873 21 65.5111 21C63.4349 21 62.207 22.3781 62.207 22.3781L48.8125 35.7462V27.9531C48.8125 27.1841 48.1909 26.5625 47.4219 26.5625H39.0781C38.3091 26.5625 37.6875 27.1841 37.6875 27.9531V46.8503L22.0889 62.417C21.3338 63.1721 21 64.3486 21 65.5C21 67.8029 22.8676 69.6719 25.1719 69.6719C26.3233 69.6719 27.4831 69.3228 28.2382 68.5677L29.3438 67.4622V104.438C29.3438 107.512 31.8316 110 34.9062 110H96.0938C99.1684 110 101.656 107.512 101.656 104.438V67.4385L102.774 68.5566C103.529 69.3089 104.677 69.6719 105.828 69.6719C108.132 69.6719 110 67.8043 110 65.5C110 64.3472 109.658 63.1804 108.903 62.4253ZM40.4688 29.3438H46.0312V38.5233L40.4688 44.0746V29.3438ZM71.0625 107.219H59.9375V87.75H71.0625V107.219ZM98.875 104.438C98.875 105.973 97.629 107.219 96.0938 107.219H73.8438V86.3594C73.8438 85.5904 73.2221 84.9688 72.4531 84.9688H58.5469C57.7779 84.9688 57.1562 85.5904 57.1562 86.3594V107.219H34.9062C33.371 107.219 32.125 105.973 32.125 104.438V64.6809L65.5125 31.2948L98.875 64.6573V104.438ZM105.828 66.8906C105.444 66.8906 104.991 66.8406 104.741 66.5889L66.4957 28.3439C66.2245 28.0727 65.8685 27.9364 65.5125 27.9364C65.1565 27.9364 64.8005 28.0727 64.5293 28.3439L26.2719 66.6028C26.0202 66.8545 25.5557 66.8906 25.1719 66.8906C24.4029 66.8906 23.7812 66.269 23.7812 65.5C23.7812 65.1162 23.8035 64.635 24.0552 64.3833L64.158 24.3514C64.158 24.3514 64.6768 23.7812 65.5125 23.7812C66.3483 23.7812 66.8781 24.3347 66.8781 24.3347L106.936 64.3917C107.188 64.6434 107.219 65.1162 107.219 65.5C107.219 66.2676 106.597 66.8906 105.828 66.8906Z" fill="#FF0000"/>
<path d="M52.9844 65.5H41.8594C41.0904 65.5 40.4688 66.1216 40.4688 66.8906V78.0156C40.4688 78.7846 41.0904 79.4062 41.8594 79.4062H52.9844C53.7534 79.4062 54.375 78.7846 54.375 78.0156V66.8906C54.375 66.1216 53.7534 65.5 52.9844 65.5ZM51.5938 76.625H43.25V68.2812H51.5938V76.625Z" fill="#FF0000"/>
<path d="M78.0156 79.4062H89.1406C89.9096 79.4062 90.5312 78.7846 90.5312 78.0156V66.8906C90.5312 66.1216 89.9096 65.5 89.1406 65.5H78.0156C77.2466 65.5 76.625 66.1216 76.625 66.8906V78.0156C76.625 78.7846 77.2466 79.4062 78.0156 79.4062ZM79.4062 68.2812H87.75V76.625H79.4062V68.2812Z" fill="#FF0000"/>
<path d="M71.0625 87.75H59.9375V107.219H71.0625V87.75Z" fill="#FFE6E6"/>
<path d="M51.5938 68.2812H43.25V76.625H51.5938V68.2812Z" fill="#FF0000"/>
<path d="M87.75 68.2812H79.4062V76.625H87.75V68.2812Z" fill="#FF0000"/>
</g>
<defs>
<clipPath id="clip0_773_2956">
<rect width="89" height="89" fill="white" transform="translate(21 21)"/>
</clipPath>
</defs>
</svg>
