<svg width="103" height="103" viewBox="0 0 103 103" fill="none" xmlns="http://www.w3.org/2000/svg">
<rect width="103" height="103" rx="51.5" fill="#EAEAEA"/>
<g clip-path="url(#clip0_1380_9081)">
<path d="M19.2109 52.748V79.9079H83.7867V52.748H19.2109ZM41.5446 74.5035H29.9505V68.4067H41.5446V74.5035ZM41.5446 64.2494H29.9505V58.1525H41.5446V64.2494ZM57.2958 74.5035H45.7018V68.4067H57.2958V74.5035ZM57.2958 64.2494H45.7018V58.1525H57.2958V64.2494ZM73.0471 74.5035H61.453V68.4067H73.0471V74.5035ZM73.0471 64.2494H61.453V58.1525H73.0471V64.2494Z" fill="#FF0000"/>
<path d="M74.5382 23.0938H28.4622L16.5117 44.3039V48.5906H86.4888V44.3039L74.5382 23.0938Z" fill="#FF0000"/>
</g>
<defs>
<clipPath id="clip0_1380_9081">
<rect width="69.9771" height="69.9771" fill="white" transform="translate(16.5117 16.5117)"/>
</clipPath>
</defs>
</svg>
